<?xml version="1.0" encoding="UTF-8" standalone="no"?>
<svg
   version="1.1"
   id="Layer_1"
   x="0px"
   y="0px"
   viewBox="0 0 1999.35 1999.35"
   style="enable-background:new 0 0 1999.35 1999.35;"
   xml:space="preserve"
   sodipodi:docname="icon.svg"
   inkscape:version="1.3.2 (091e20e, 2023-11-25, custom)"
   xmlns:inkscape="http://www.inkscape.org/namespaces/inkscape"
   xmlns:sodipodi="http://sodipodi.sourceforge.net/DTD/sodipodi-0.dtd"
   xmlns="http://www.w3.org/2000/svg"
   xmlns:svg="http://www.w3.org/2000/svg"
   xmlns:rdf="http://www.w3.org/1999/02/22-rdf-syntax-ns#"
   xmlns:cc="http://creativecommons.org/ns#"
   xmlns:dc="http://purl.org/dc/elements/1.1/"><metadata
   id="metadata41"><rdf:RDF><cc:Work
       rdf:about=""><dc:format>image/svg+xml</dc:format><dc:type
         rdf:resource="http://purl.org/dc/dcmitype/StillImage" /></cc:Work></rdf:RDF></metadata><defs
   id="defs39" /><sodipodi:namedview
   inkscape:document-rotation="0"
   pagecolor="#ffffff"
   bordercolor="#666666"
   borderopacity="1"
   objecttolerance="10"
   gridtolerance="10"
   guidetolerance="10"
   inkscape:pageopacity="0"
   inkscape:pageshadow="2"
   inkscape:window-width="1680"
   inkscape:window-height="987"
   id="namedview37"
   showgrid="false"
   inkscape:zoom="0.20506665"
   inkscape:cx="1126.463"
   inkscape:cy="1348.3421"
   inkscape:window-x="-8"
   inkscape:window-y="-8"
   inkscape:window-maximized="1"
   inkscape:current-layer="Layer_1"
   inkscape:showpageshadow="2"
   inkscape:pagecheckerboard="0"
   inkscape:deskcolor="#d1d1d1" />





<text
   id="text962"
   y="1244.7931"
   x="877.56189"
   style="font-style:normal;font-weight:normal;font-size:40px;line-height:1.25;font-family:sans-serif;letter-spacing:0px;word-spacing:0px;fill:#000000;fill-opacity:1;stroke:none;stroke-width:1.0110551;stroke-dasharray:none"
   xml:space="preserve"><tspan
     y="1244.7931"
     x="877.56189"
     id="tspan960"
     sodipodi:role="line" /></text><path
   style="stroke-width:37.79527559;stroke-dasharray:none"
   d="m 432.99627,438.61166 c -1.84759,1.84445 -2.1515,2.39697 -1.7024,3.10562 0.30358,0.48209 3.01954,3.49674 3.74445,4.15656 0.33413,0.30344 0.60584,0.65688 0.60284,0.78398 -0.006,0.12709 0.47673,0.884 1.06623,1.68088 0.58759,0.7985 1.06679,1.56985 1.06348,1.71628 -0.007,0.14642 0.16397,0.36331 0.37141,0.48035 0.20927,0.11689 0.62164,0.69546 0.91772,1.28537 1.47139,2.92864 2.15764,4.42687 2.15142,4.70201 -0.008,0.16727 0.21986,0.5933 0.49829,0.94509 0.27835,0.35343 0.57732,1.18468 0.66476,1.84744 0.0852,0.66271 0.32172,1.29782 0.51935,1.41004 0.19944,0.11226 0.49711,0.92903 0.66242,1.81366 0.16534,0.88461 0.41237,1.74494 0.54938,1.91361 0.13749,0.16867 0.34618,1.375 0.46718,2.68128 0.12101,1.30628 0.35854,2.79575 0.52883,3.31191 0.42308,1.27832 0.17129,11.79537 -0.31841,13.31689 -0.19826,0.61181 -0.49573,2.00423 -0.6626,3.09388 -0.16672,1.08966 -0.50346,2.3389 -0.74667,2.77705 -0.24519,0.43815 -0.45509,1.15782 -0.46668,1.60033 -0.004,0.44266 -0.27019,1.18801 -0.57394,1.65845 a 6.5417173,6.7911772 69.942389 0 0 -0.771,1.87767 c -0.11938,0.56502 -0.455,1.31388 -0.74453,1.66683 -0.28945,0.35136 -0.52983,0.81204 -0.53474,1.01961 -0.0188,0.32636 -0.60413,1.53784 -1.49719,3.03761 -0.13221,0.22069 -0.46563,0.82156 -0.74217,1.3338 -0.27639,0.51221 -0.69268,1.1309 -0.92505,1.37596 -0.23408,0.24345 -0.81025,1.06039 -1.28261,1.81597 -0.47227,0.75396 -0.95493,1.37444 -1.07255,1.3779 -0.1178,0.003 -0.33948,0.30639 -0.49198,0.67515 -0.15261,0.37039 -0.3959,0.67175 -0.54167,0.67206 -0.14572,-1.9e-4 -0.34252,0.21147 -0.43775,0.47073 -0.0963,0.25764 -0.99778,1.3037 -2.00262,2.32424 -1.00624,1.01895 -1.83321,2.07616 -1.83933,2.34647 -0.0191,0.88986 3.54276,4.51417 4.43342,4.51237 0.46844,-0.001 3.81032,-3.05841 3.82021,-3.49446 0.007,-0.13671 0.25677,-0.37866 0.56336,-0.53694 0.3066,-0.15831 0.56088,-0.42433 0.5646,-0.59167 0.008,-0.16724 0.20161,-0.49436 0.43712,-0.72817 0.92616,-0.919 2.11995,-2.53367 2.12769,-2.87961 0.0123,-0.20095 0.18214,-0.36562 0.39566,-0.36606 0.21365,-1e-4 0.53571,-0.33413 0.71705,-0.73998 0.1812,-0.40585 0.64664,-1.22096 1.03248,-1.81226 0.38594,-0.58966 0.90959,-1.4966 1.16473,-2.01361 0.25678,-0.51702 0.62784,-1.12116 0.82831,-1.342 a 3.4758882,3.6084365 69.942419 0 0 0.58053,-1.0744 c 0.12105,-0.36868 0.38346,-0.85195 0.58375,-1.07278 0.20056,-0.22243 0.50862,-0.89081 0.68414,-1.48491 0.17745,-0.5957 0.51169,-1.32041 0.7434,-1.6105 0.23342,-0.29172 0.43439,-0.83116 0.44942,-1.19964 0.022,-0.36825 0.22867,-1.03345 0.47862,-1.47645 0.25013,-0.44298 0.58893,-1.51042 0.75249,-2.37161 0.16328,-0.86276 0.47498,-1.82882 0.69267,-2.14622 0.21574,-0.31902 0.49235,-1.42497 0.61184,-2.4582 0.12039,-1.03325 0.44224,-2.42087 0.71385,-3.08594 0.72711,-1.77301 1.00696,-13.96993 0.36178,-15.95575 -0.23652,-0.73807 -0.49287,-2.1358 -0.56682,-3.10912 -0.0754,-0.97168 -0.30663,-2.10074 -0.51412,-2.5074 -0.2095,-0.40668 -0.47894,-1.44073 -0.60193,-2.29646 -0.12235,-0.85738 -0.40991,-1.92517 -0.63656,-2.37205 -0.22814,-0.44683 -0.41096,-0.99996 -0.40562,-1.22843 0.0137,-0.2299 -0.22884,-0.86681 -0.51932,-1.4165 -0.29217,-0.5497 -0.52436,-1.25401 -0.51734,-1.56617 -0.002,-0.31073 -0.23052,-0.78311 -0.52739,-1.04961 -0.29687,-0.26649 -0.53565,-0.69079 -0.52978,-0.9418 0.0154,-0.25076 -0.29095,-0.90047 -0.65768,-1.44356 -0.36674,-0.54312 -0.66422,-1.15555 -0.65933,-1.36151 0.0115,-0.20579 -0.0996,-0.44069 -0.23163,-0.52087 -0.13114,-0.0801 -0.48141,-0.66835 -0.77646,-1.30656 -0.29344,-0.63818 -0.96563,-1.72451 -1.49468,-2.41531 -0.52726,-0.69084 -0.95543,-1.3754 -0.95194,-1.52182 a 0.26429564,0.27437421 69.942395 0 0 -0.26553,-0.26495 c -0.14737,-2.3e-4 -0.49783,-0.45436 -0.77679,-1.0089 -0.27878,-0.55454 -0.94311,-1.4816 -1.47612,-2.06139 -0.53314,-0.57815 -0.96701,-1.14847 -0.96448,-1.26757 0.006,-0.11742 -0.18544,-0.21523 -0.41717,-0.21475 a 0.65833641,0.6834412 69.942409 0 1 -0.57348,-0.40433 c -0.93326,-2.50334 -2.66901,-2.52556 -5.13186,-0.0668 m -10.37207,10.29299 c -0.19366,0.22082 -0.51559,0.40329 -0.71435,0.40369 -0.19863,4.5e-4 -0.44569,0.24224 -0.54847,0.53691 -0.10343,0.29468 -0.34654,0.5365 -0.53868,0.53691 -0.19348,6.3e-4 -0.49997,0.30349 -0.68062,0.67233 -0.18068,0.36882 -0.51848,0.67199 -0.74855,0.67248 -0.23169,-5e-4 -0.42376,0.14236 -0.42742,0.31461 -0.0101,0.17203 -0.22768,0.54591 -0.49726,0.82967 -0.46635,0.49008 -0.46731,0.5319 -0.0204,0.85438 0.25893,0.18773 0.46842,0.4335 0.46584,0.54774 -0.005,0.11423 0.269,0.47573 0.60263,0.80168 0.9198,0.89758 2.43824,2.78027 2.88528,3.57744 0.21788,0.39055 0.54952,0.80661 0.73723,0.92368 0.18757,0.11704 0.33474,0.42251 0.32892,0.67674 -0.0154,0.25558 0.18685,0.7446 0.42711,1.08846 0.69112,0.98976 1.95245,3.46829 1.95411,3.84319 0.007,0.18679 0.23111,0.82174 0.51097,1.4117 0.27943,0.58832 0.5031,1.45834 0.49724,1.93302 -0.006,0.47469 0.19428,1.43971 0.44316,2.14554 0.65479,1.85067 0.44133,10.90665 -0.29662,12.64752 -0.27462,0.64575 -0.50649,1.52795 -0.51627,1.9592 -0.004,0.43301 -0.26592,1.29258 -0.56973,1.91106 a 11.180507,11.606861 69.94241 0 0 -0.7647,2.11418 c -0.11808,0.54407 -0.37627,1.04823 -0.57658,1.12266 -0.20045,0.0744 -0.45325,0.49811 -0.56424,0.94083 -0.10871,0.4411 -0.38743,0.95332 -0.6185,1.1372 -0.23092,0.1839 -0.61031,0.70436 -0.84413,1.16022 -0.78091,1.52207 -1.22243,2.16176 -2.23866,3.24346 -2.55629,2.72121 -2.98886,3.25629 -2.99909,3.71487 -0.007,0.48603 3.9451,4.72736 4.41014,4.72802 0.71996,0.003 5.22008,-5.07897 5.68926,-6.42025 0.10758,-0.30913 0.34871,-0.56224 0.53571,-0.56263 0.1872,-8.6e-4 0.50259,-0.41292 0.70121,-0.91532 0.19682,-0.50239 0.54352,-0.98261 0.76897,-1.06512 0.22375,-0.0841 0.4138,-0.36769 0.41977,-0.62998 0.0149,-0.26211 0.24762,-0.8404 0.53418,-1.28345 0.28804,-0.44309 0.6238,-1.1678 0.74654,-1.61055 0.12375,-0.44274 0.38974,-0.98712 0.59021,-1.20795 0.20038,-0.22247 0.46172,-0.94383 0.57917,-1.60378 0.11819,-0.65992 0.40766,-1.40226 0.64327,-1.64892 0.23577,-0.24666 0.51464,-1.15629 0.62196,-2.01899 0.10708,-0.86425 0.40294,-1.93324 0.65786,-2.37625 0.59641,-1.0374 0.96977,-13.19751 0.425,-13.85128 -0.17725,-0.21364 -0.45067,-1.28789 -0.60639,-2.38657 -0.15543,-1.09864 -0.43548,-2.17772 -0.62428,-2.39775 -0.18689,-0.2217 -0.41875,-0.88413 -0.51275,-1.47444 -0.0942,-0.59034 -0.32806,-1.37345 -0.51677,-1.74153 -0.53897,-1.04799 -1.61119,-3.55428 -1.80478,-4.22002 -0.0963,-0.33288 -0.2925,-0.6028 -0.43478,-0.60252 -0.14242,10e-6 -0.44435,-0.47373 -0.66982,-1.05092 -0.22519,-0.5788 -0.58376,-1.11708 -0.79718,-1.19714 a 0.62790235,0.65184659 69.942397 0 1 -0.38,-0.54304 0.80570124,0.83642559 69.942413 0 0 -0.33212,-0.61078 c -0.18607,-0.11711 -0.75451,-0.81584 -1.26252,-1.55335 -0.80783,-1.17136 -3.33187,-3.88065 -3.61678,-3.88009 -0.0563,5.3e-4 -0.26071,0.18075 -0.45431,0.40318 m -14.28169,13.70559 c -0.0924,0.22062 -0.2822,0.40282 -0.42301,0.40309 -0.31115,0.001 -2.20885,1.77762 -2.21541,2.07532 -0.006,0.1174 -0.25675,0.36412 -0.56544,0.5498 -0.67472,0.40523 -0.80407,1.87936 -0.18526,2.10982 0.2249,0.0849 0.4075,0.28075 0.40405,0.43523 -0.009,0.15435 0.32484,0.7121 0.72997,1.23907 2.24804,2.92225 3.06109,6.33815 2.26292,9.49023 -0.27062,1.0625 -0.57559,2.31492 -0.68063,2.78338 -0.10366,0.46681 -0.35323,0.90981 -0.55353,0.98424 -0.20032,0.0743 -0.45937,0.47236 -0.57459,0.88288 -0.11533,0.41214 -0.45272,0.91164 -0.75018,1.11175 -0.29762,0.20012 -0.54294,0.50793 -0.54697,0.68656 -0.0105,0.17685 -0.25903,0.47358 -0.56781,0.65761 -1.1848,0.71197 0.83062,4.61945 2.38004,4.6163 0.13087,-5.4e-4 0.3108,0.24072 0.40008,0.5366 0.35429,1.16101 3.03857,-0.19281 3.60666,-1.81905 0.11559,-0.33168 0.45353,-0.72819 0.75007,-0.88165 0.29652,-0.1534 0.54364,-0.4661 0.5487,-0.69622 0.0135,-0.22989 0.26485,-0.72458 0.57626,-1.10011 0.31305,-0.37556 0.5745,-0.95212 0.58196,-1.28196 -9.5e-4,-0.32844 0.26881,-0.90479 0.58022,-1.28034 0.31141,-0.37554 0.57419,-1.01164 0.58317,-1.41228 0.002,-0.40087 0.3081,-1.83008 0.66469,-3.17757 0.55954,-2.1154 0.60594,-2.62875 0.35183,-3.78837 a 61.60331,63.952471 69.942407 0 1 -0.59731,-3.43725 c -0.16747,-1.15334 -0.43569,-2.17775 -0.5956,-2.27716 -0.16076,-0.0995 -0.37358,-0.60426 -0.47441,-1.12052 -0.22284,-1.1291 -1.38084,-3.2072 -1.89623,-3.39925 a 0.62309697,0.64685796 69.942401 0 1 -0.36176,-0.54312 c 0.0257,-1.14245 -3.05654,-3.25047 -3.43291,-2.34704 m -97.73631,4.4215 c -0.0771,0.18357 -0.54605,19.70515 -1.04484,43.37805 l -0.90456,43.0431 28.73655,0.0754 c 15.80571,0.042 28.7911,0.13641 28.85748,0.2103 0.67958,0.75486 0.70319,2.06135 0.33108,18.47087 l -0.38922,17.16579 -0.6218,0.41801 c -0.55471,0.37284 -3.77223,0.42599 -29.0885,0.47723 -25.70154,0.052 -28.48209,0.0977 -28.6414,0.48114 -0.0965,0.23357 -0.2826,4.8097 -0.39782,10.1698 -0.12181,5.35989 -0.15072,9.93603 -0.0632,10.16913 0.27138,0.72836 79.55737,0.47777 80.04405,-0.25372 0.64956,-0.978 2.35257,-79.67697 1.73359,-80.1214 -0.39735,-0.28723 -5.82554,-0.34224 -28.86224,-0.29557 -26.76447,0.0542 -28.38449,0.0301 -28.56142,-0.41204 -0.26475,-0.66078 0.68709,-41.27273 0.97307,-41.54524 0.12821,-0.1243 13.03551,-0.28222 28.68335,-0.35252 25.92348,-0.11681 28.49194,-0.16708 28.9579,-0.56866 0.7328,-0.63545 1.24562,-20.57867 0.53556,-20.84593 -0.93231,-0.34888 -80.13243,-0.018 -80.27779,0.33627 m 101.98538,64.95725 c -0.0772,0.18517 -0.5106,18.13791 -0.96557,39.89276 l -0.82566,39.5578 80.83841,-0.1636 1.80561,-79.6501 -40.35717,0.0125 c -32.14011,0.0119 -40.38539,0.0831 -40.49561,0.35067 m 98.77125,-0.19992 c -0.24849,0.59745 -1.79069,78.99522 -1.55608,79.22644 0.31597,0.31152 20.07762,0.35677 20.59958,0.0468 0.3675,-0.21796 0.50671,-3.72914 1.13245,-28.48517 l 0.7129,-28.23651 0.62785,-0.46467 c 0.57945,-0.42915 1.98571,-0.4674 18.36441,-0.5054 l 17.73773,-0.0423 0.80435,0.58565 0.8029,0.58405 -0.63016,27.8003 c -0.60288,26.59029 -0.60907,27.818 -0.13557,28.24181 0.7319,0.65499 19.61781,0.63668 20.30641,-0.0202 0.40108,-0.38212 0.52408,-4.26333 1.26566,-39.7582 l 0.82204,-39.33577 -40.35703,0.0125 c -32.14021,0.012 -40.38535,0.0833 -40.49744,0.35069 m 98.53599,-0.11094 c -0.45857,1.09989 -1.94761,78.02207 -1.52098,78.63103 l 0.41555,0.59451 79.05834,-0.16004 0.34174,-0.60406 c 0.26023,-0.45909 0.5352,-9.9561 1.15439,-39.758 l 0.81474,-39.15394 -40.04422,0.0119 c -36.33474,0.0124 -40.05853,0.0537 -40.21957,0.43859 m 97.9059,-0.28507 c -0.0768,0.1836 -0.51045,18.13628 -0.96386,39.89116 l -0.82739,39.55779 10.40621,0.0482 10.40424,0.0497 0.41591,-0.60743 c 0.34244,-0.50274 0.47585,-2.65265 0.77057,-12.38943 0.33067,-10.92108 0.3942,-11.82547 0.87446,-12.40406 l 0.51883,-0.62376 28.41512,-0.0575 c 19.06031,-0.0386 28.59429,-0.14801 28.95609,-0.33537 0.5191,-0.26815 0.5483,-0.67368 0.7818,-10.93969 l 0.2417,-10.65863 -0.8513,-0.49384 c -0.82,-0.4762 -1.9175,-0.48527 -29.04228,-0.2389 -23.61663,0.21515 -28.23777,0.19715 -28.48756,-0.10808 -0.50742,-0.61842 -0.46714,-8.23398 0.0483,-9.27771 l 0.43016,-0.86809 28.95117,-0.12942 c 25.37731,-0.11411 28.98561,-0.17933 29.22871,-0.53217 0.4997,-0.7251 0.6595,-19.81484 0.168,-20.11956 -0.6726,-0.41537 -80.26422,-0.18347 -80.43787,0.23682 m 98.33197,-0.0911 c -0.3245,0.37073 -0.5418,6.63351 -1.3222,37.88223 -0.9483,38.10832 -0.9627,40.49132 -0.2553,41.19305 0.4792,0.47526 19.358,0.56406 20.6284,0.0951 l 0.7143,-0.26213 0.2765,-12.19049 c 0.2431,-10.72301 0.3289,-12.24049 0.7206,-12.61133 a 13.07062,13.569051 69.942433 0 0 0.4945,-0.4869 c 0.026,-0.0355 13.0258,-0.15187 28.8848,-0.25959 l 28.8351,-0.19516 0.3126,-10.86147 c 0.1886,-6.57648 0.2117,-11.02061 0.058,-11.26328 -0.2254,-0.35353 -3.7421,-0.39469 -28.9156,-0.34373 -23.8859,0.0483 -28.7348,-0.003 -29.1087,-0.30953 -0.3835,-0.3146 -0.4341,-0.99672 -0.3491,-4.75234 l 0.1003,-4.38477 0.8237,-0.41037 c 0.7217,-0.36026 4.3085,-0.41901 29.2454,-0.46948 27.8175,-0.0563 28.4268,-0.0688 28.7182,-0.57623 0.3895,-0.67981 0.814,-18.76121 0.4633,-19.71144 l -0.2527,-0.68814 -39.8406,0.0806 c -36.7218,0.0743 -39.8711,0.11612 -40.2297,0.52551 m -335.67249,22.49452 c 0.57812,0.9224 -0.45218,34.54335 -1.07005,34.86156 -0.61486,0.31823 -35.13573,0.34626 -35.45625,0.0283 -0.24289,-0.2409 0.61454,-34.62575 0.86986,-34.8644 0.64112,-0.60308 35.27781,-0.62813 35.65644,-0.0255 m 195.87696,-0.15673 0.68584,0.18524 -0.78346,34.57139 -17.35193,0.10431 c -12.5889,0.0754 -17.45422,0.0208 -17.72242,-0.19903 -0.30398,-0.24879 -0.30212,-3.25929 0.0125,-17.13128 0.40248,-17.75796 0.35019,-17.2011 1.63831,-17.50945 0.87051,-0.2077 32.75428,-0.2288 33.52115,-0.0212"
   fill="#1e100f"
   fill-rule="evenodd"
   id="path988" /><path
   style="fill:none;stroke:#000000;stroke-width:37.79527559;stroke-linecap:butt;stroke-linejoin:miter;stroke-opacity:1;stroke-dasharray:none"
   d="M 336.47597,248.69963 H 1687.2563"
   id="path390" /><path
   style="fill:none;stroke:#000000;stroke-width:37.79527559;stroke-linecap:butt;stroke-linejoin:miter;stroke-opacity:1;stroke-dasharray:none"
   d="m 1911.5736,497.39926 4.8765,999.67494"
   id="path392" /><path
   style="fill:none;stroke:#000000;stroke-width:37.79527559;stroke-linecap:butt;stroke-linejoin:miter;stroke-opacity:1;stroke-dasharray:none"
   d="M 1682.3799,1716.5151 H 336.47597"
   id="path394" /><path
   style="fill:none;stroke:#000000;stroke-width:37.79527559;stroke-linecap:butt;stroke-linejoin:miter;stroke-opacity:1;stroke-dasharray:none"
   d="m 112.15866,1472.6919 4.87646,-975.29264"
   id="path396" /><path
   style="fill:none;stroke:#000000;stroke-width:45.35433071;stroke-linecap:butt;stroke-linejoin:miter;stroke-dasharray:none;stroke-opacity:1"
   d="m 334.47349,248.26898 c 507.95826,1.09999 733.99511,-18.59281 1382.72031,6.89636 147.5272,5.79652 198.9522,131.18992 199.9944,234.47626 3.4213,339.05381 2.4438,590.7031 0,1017.2132 -0.7912,138.0949 -137.7564,203.5529 -206.8908,203.4426 -643.5779,-1.0272 -862.88281,-0.3713 -1382.72027,3.4482 -105.70386,0.7767 -221.47766,-125.4065 -217.23536,-231.0281 19.10263,-475.6024 -10.31465,-623.11901 3.44818,-999.97226 5.5955,-153.21577 114.99585,-234.70513 220.68354,-234.47626 z"
   id="path461"
   sodipodi:nodetypes="sssssssss" /><path
   style="fill:none;stroke:#000000;stroke-width:37.79527559;stroke-linecap:butt;stroke-linejoin:miter;stroke-opacity:1;stroke-dasharray:none"
   d="m 117.23813,1344.7903 1803.39827,3.4482"
   id="path1114" /><path
   style="fill:none;fill-rule:evenodd;stroke-width:26.45669291;stroke:#000000;stroke-opacity:1;stroke-dasharray:none"
   id="path1168"
   sodipodi:type="arc"
   sodipodi:cx="741.35876"
   sodipodi:cy="1513.7512"
   sodipodi:rx="96.549049"
   sodipodi:ry="96.549049"
   sodipodi:start="2.4065996"
   sodipodi:end="2.4059364"
   sodipodi:open="true"
   sodipodi:arc-type="arc"
   d="m 669.73526,1578.4953 a 96.549049,96.549049 0 0 1 6.86758,-136.3568 96.549049,96.549049 0 0 1 136.35796,6.8449 96.549049,96.549049 0 0 1 -6.82236,136.3591 96.549049,96.549049 0 0 1 -136.36023,-6.7997" /><path
   style="fill:none;fill-rule:evenodd;stroke:#000000;stroke-width:26.45669291;stroke-dasharray:none;stroke-opacity:1"
   id="path1170"
   sodipodi:type="arc"
   sodipodi:cx="965.49048"
   sodipodi:cy="1510.3031"
   sodipodi:rx="96.549049"
   sodipodi:ry="96.549049"
   sodipodi:start="2.4065996"
   sodipodi:end="2.4059364"
   sodipodi:open="true"
   sodipodi:arc-type="arc"
   d="m 893.86697,1575.0472 a 96.549049,96.549049 0 0 1 6.86758,-136.3569 96.549049,96.549049 0 0 1 136.35795,6.845 96.549049,96.549049 0 0 1 -6.8223,136.3591 96.549049,96.549049 0 0 1 -136.36027,-6.7998" /><path
   style="fill:none;fill-rule:evenodd;stroke:#000000;stroke-width:26.45669291;stroke-dasharray:none;stroke-opacity:1"
   id="path1174"
   sodipodi:type="arc"
   sodipodi:cx="1199.9668"
   sodipodi:cy="1513.7512"
   sodipodi:rx="96.549049"
   sodipodi:ry="96.549049"
   sodipodi:start="2.4065996"
   sodipodi:end="2.4059364"
   sodipodi:open="true"
   sodipodi:arc-type="arc"
   d="m 1128.3433,1578.4953 a 96.549049,96.549049 0 0 1 6.8676,-136.3568 96.549049,96.549049 0 0 1 136.3579,6.8449 96.549049,96.549049 0 0 1 -6.8223,136.3591 96.549049,96.549049 0 0 1 -136.3603,-6.7997" /><path
   style="fill:none;fill-rule:evenodd;stroke:#000000;stroke-width:26.45669291;stroke-dasharray:none;stroke-opacity:1"
   id="path1176"
   sodipodi:type="arc"
   sodipodi:cx="1424.0985"
   sodipodi:cy="1510.3031"
   sodipodi:rx="96.549049"
   sodipodi:ry="96.549049"
   sodipodi:start="2.4065996"
   sodipodi:end="2.4059364"
   sodipodi:open="true"
   sodipodi:arc-type="arc"
   d="m 1352.475,1575.0472 a 96.549049,96.549049 0 0 1 6.8676,-136.3569 96.549049,96.549049 0 0 1 136.3579,6.845 96.549049,96.549049 0 0 1 -6.8223,136.3591 96.549049,96.549049 0 0 1 -136.3602,-6.7998" /><path
   style="fill:none;fill-rule:evenodd;stroke:#000000;stroke-width:37.79527559;stroke-dasharray:none;stroke-opacity:1"
   id="path1178"
   sodipodi:type="arc"
   sodipodi:cx="1665.4712"
   sodipodi:cy="551.70898"
   sodipodi:rx="112.94595"
   sodipodi:ry="112.94595"
   sodipodi:start="2.4065996"
   sodipodi:end="2.4059364"
   sodipodi:open="true"
   sodipodi:arc-type="arc"
   d="m 1581.6839,627.44851 a 112.94595,112.94595 0 0 1 8.0339,-159.51427 112.94595,112.94595 0 0 1 159.5156,8.00744 112.94595,112.94595 0 0 1 -7.981,159.51693 112.94595,112.94595 0 0 1 -159.5183,-7.95455" /><path
   style="fill:none;fill-rule:evenodd;stroke:#000000;stroke-width:18.8976378;stroke-dasharray:none;stroke-opacity:1"
   id="path1180"
   sodipodi:type="arc"
   sodipodi:cx="1665.4712"
   sodipodi:cy="965.4906"
   sodipodi:rx="21.123274"
   sodipodi:ry="21.123274"
   sodipodi:start="2.4065996"
   sodipodi:end="2.4059364"
   sodipodi:open="true"
   sodipodi:arc-type="arc"
   d="m 1649.8012,979.65549 a 21.123274,21.123274 0 0 1 1.5025,-29.83253 21.123274,21.123274 0 0 1 29.8328,1.49756 21.123274,21.123274 0 0 1 -1.4926,29.83303 21.123274,21.123274 0 0 1 -29.8333,-1.48767" /><path
   style="fill:none;stroke:#000000;stroke-width:18.8976378;stroke-linecap:butt;stroke-linejoin:miter;stroke-opacity:1;stroke-dasharray:none"
   d="m 1661.1609,904.7163 c 6.0343,-5.60329 9.9135,0.43103 9.9135,0.43103"
   id="path1182"
   sodipodi:nodetypes="cc" /><path
   style="fill:none;stroke:#000000;stroke-width:18.8976378;stroke-linecap:butt;stroke-linejoin:miter;stroke-opacity:1;stroke-dasharray:none"
   d="m 1653.4025,883.5962 c 12.4996,-13.79272 27.5854,0 27.5854,0"
   id="path1184"
   sodipodi:nodetypes="cc" /><path
   style="fill:none;stroke:#000000;stroke-width:18.8976378;stroke-linecap:butt;stroke-linejoin:miter;stroke-opacity:1;stroke-dasharray:none"
   d="m 1636.5926,864.20019 c 33.6197,-24.56829 58.619,-0.43103 58.619,-0.43103"
   id="path1186" /><text
   xml:space="preserve"
   style="font-style:normal;font-weight:normal;font-size:70.6667px;line-height:1.25;font-family:sans-serif;letter-spacing:0px;word-spacing:0px;fill:#000000;fill-opacity:1;stroke:none;stroke-width:18.8976378;stroke-dasharray:none"
   x="636.37848"
   y="1165.4747"
   id="text1242"><tspan
     sodipodi:role="line"
     id="tspan1240"
     x="636.37848"
     y="1165.4747"
     style="font-style:normal;font-variant:normal;font-weight:bold;font-stretch:normal;font-size:70.6667px;font-family:sans-serif;-inkscape-font-specification:'sans-serif Bold';stroke-width:18.8976378;stroke-dasharray:none">L Out   L in    S1    S2</tspan></text><path
   style="fill:none;stroke:#000000;stroke-width:18.8976378;stroke-linecap:butt;stroke-linejoin:miter;stroke-opacity:1;stroke-dasharray:none"
   d="m 736.18649,1199.9667 -20.68908,39.6541 44.82635,-1.7241 -27.58545,48.2746"
   id="path1294" /><path
   style="fill:none;stroke:#000000;stroke-width:18.8976378;stroke-linecap:butt;stroke-linejoin:miter;stroke-dasharray:none;stroke-opacity:1"
   d="m 962.0423,1203.4149 -20.68908,39.6541 44.82635,-1.7241 -27.58545,48.2746"
   id="path1296" /><path
   style="fill:none;stroke:#000000;stroke-width:18.8976378;stroke-linecap:butt;stroke-linejoin:miter;stroke-opacity:1;stroke-dasharray:none"
   d="m 1174.1054,1198.2427 41.3782,1.724 1.724,82.7564 -48.2745,-1.7241 z"
   id="path1298" /><path
   style="fill:none;stroke:#000000;stroke-width:18.8976378;stroke-linecap:butt;stroke-linejoin:miter;stroke-opacity:1;stroke-dasharray:none"
   d="m 1399.9612,1198.2427 41.3782,1.724 1.724,82.7564 -48.2745,-1.7241 z"
   id="path1300" /><path
   style="fill:none;stroke:#000000;stroke-width:18.8976378;stroke-linecap:butt;stroke-linejoin:miter;stroke-opacity:1;stroke-dasharray:none"
   d="m 1181.0018,1222.3799 22.4131,1.7241"
   id="path1302" /><path
   style="fill:none;stroke:#000000;stroke-width:18.8976378;stroke-linecap:butt;stroke-linejoin:miter;stroke-opacity:1;stroke-dasharray:none"
   d="m 1412.0299,1224.104 22.4131,1.7241"
   id="path1304" /></svg>
