<?xml version="1.0" encoding="UTF-8" standalone="no"?>
<svg
   height="960"
   viewBox="0 0 960 960"
   width="960"
   version="1.1"
   id="svg1"
   sodipodi:docname="icon.svg"
   xml:space="preserve"
   inkscape:version="1.3.2 (091e20e, 2023-11-25, custom)"
   xmlns:inkscape="http://www.inkscape.org/namespaces/inkscape"
   xmlns:sodipodi="http://sodipodi.sourceforge.net/DTD/sodipodi-0.dtd"
   xmlns="http://www.w3.org/2000/svg"
   xmlns:svg="http://www.w3.org/2000/svg"><defs
     id="defs1" /><sodipodi:namedview
     id="namedview1"
     pagecolor="#ffffff"
     bordercolor="#666666"
     borderopacity="1.0"
     inkscape:showpageshadow="2"
     inkscape:pageopacity="0.0"
     inkscape:pagecheckerboard="0"
     inkscape:deskcolor="#d1d1d1"
     inkscape:zoom="0.58262653"
     inkscape:cx="393.04767"
     inkscape:cy="507.18597"
     inkscape:window-width="1680"
     inkscape:window-height="987"
     inkscape:window-x="-8"
     inkscape:window-y="-8"
     inkscape:window-maximized="1"
     inkscape:current-layer="svg1" /><path
     style="fill:none;stroke:#000000;stroke-width:37.79527559;stroke-linecap:butt;stroke-linejoin:miter;stroke-opacity:1;stroke-dasharray:none"
     d="m 308.94577,109.84738 27.46185,-18.880015 307.2294,5.149097 24.02911,24.029118 -1.71636,70.37098 -386.18221,-1.71637 -24.02912,20.59639 -1.71636,511.47688 12.01455,8.58183 226.56024,6.86546 212.8293,-8.58183 17.16366,-5.14909 -1.71637,-513.19325 -25.74548,-18.88002 -386.18221,-1.71637 z"
     id="path1" /><path
     style="fill:none;stroke:#000000;stroke-width:37.79527559;stroke-linecap:butt;stroke-linejoin:miter;stroke-opacity:1;stroke-dasharray:none"
     d="m 593.86242,731.17165 29.17821,13.73093 -1.71636,80.66917 -13.73092,17.16365 -236.85843,-1.71636 -24.02911,-10.29819 1.71636,-85.81827 29.17821,-13.73093"
     id="path2" /><path
     style="fill:none;stroke:#000000;stroke-width:37.7953;stroke-linecap:butt;stroke-linejoin:miter;stroke-dasharray:none;stroke-opacity:1"
     d="m 346.70581,746.61894 18.88002,1.71637 48.05823,1.71636 37.76004,-5.14909 39.4764,10.29819 h 61.78915 l 27.46185,-8.58183 34.32731,8.58183 8.58182,-6.86546"
     id="path3"
     sodipodi:nodetypes="ccccccccc" /><path
     style="fill:none;stroke:#000000;stroke-width:18.8976378;stroke-linecap:butt;stroke-linejoin:miter;stroke-opacity:1;stroke-dasharray:none"
     d="m 487.44777,751.76804 1.71636,77.23644"
     id="path5" /><path
     style="fill:none;stroke:#000000;stroke-width:18.8976378;stroke-linecap:butt;stroke-linejoin:miter;stroke-opacity:1;stroke-dasharray:none"
     d="m 550.95329,755.20077 v 75.52008"
     id="path6" /><path
     style="fill:none;stroke:#000000;stroke-width:18.8976378;stroke-linecap:butt;stroke-linejoin:miter;stroke-opacity:1;stroke-dasharray:none"
     d="m 411.92769,756.91713 3.43273,85.81827"
     id="path4" /></svg>
