<?xml version="1.0" encoding="UTF-8" standalone="no"?>
<svg
   inkscape:version="1.3.2 (091e20e, 2023-11-25, custom)"
   sodipodi:docname="icon.svg"
   xml:space="preserve"
   style="enable-background:new 0 0 1999.35 1999.35;"
   viewBox="0 0 1999.35 1999.35"
   y="0px"
   x="0px"
   id="Layer_1"
   version="1.1"
   xmlns:inkscape="http://www.inkscape.org/namespaces/inkscape"
   xmlns:sodipodi="http://sodipodi.sourceforge.net/DTD/sodipodi-0.dtd"
   xmlns="http://www.w3.org/2000/svg"
   xmlns:svg="http://www.w3.org/2000/svg"
   xmlns:rdf="http://www.w3.org/1999/02/22-rdf-syntax-ns#"
   xmlns:cc="http://creativecommons.org/ns#"
   xmlns:dc="http://purl.org/dc/elements/1.1/"><metadata
   id="metadata41"><rdf:RDF><cc:Work
       rdf:about=""><dc:format>image/svg+xml</dc:format><dc:type
         rdf:resource="http://purl.org/dc/dcmitype/StillImage" /></cc:Work></rdf:RDF></metadata><defs
   id="defs39" /><sodipodi:namedview
   inkscape:current-layer="Layer_1"
   inkscape:window-maximized="1"
   inkscape:window-y="-8"
   inkscape:window-x="-8"
   inkscape:cy="-389.64437"
   inkscape:cx="-55.170884"
   inkscape:zoom="0.14500402"
   showgrid="false"
   id="namedview37"
   inkscape:window-height="987"
   inkscape:window-width="1680"
   inkscape:pageshadow="2"
   inkscape:pageopacity="0"
   guidetolerance="10"
   gridtolerance="10"
   objecttolerance="10"
   borderopacity="1"
   bordercolor="#666666"
   pagecolor="#ffffff"
   inkscape:showpageshadow="2"
   inkscape:pagecheckerboard="0"
   inkscape:deskcolor="#d1d1d1" />





<path
   sodipodi:nodetypes="ccccsaccc"
   id="path880"
   d="m 373.04945,368.17298 -53.6411,75.58519 V 1519.0183 l 36.57347,36.5735 c 0,0 426.70123,38.1679 463.26402,41.4499 18.68851,1.6775 37.45794,-2.5702 56.07933,-4.8764 55.79379,-6.9098 133.21123,-22.0332 166.51393,-26.8206 l 35.8593,-41.4499 -160.32147,27.6887"
   style="fill:none;stroke:#000000;stroke-width:10;stroke-linecap:butt;stroke-linejoin:miter;stroke-opacity:1;stroke-miterlimit:4;stroke-dasharray:none" /><path
   sodipodi:nodetypes="cccccccccscccc"
   id="path882"
   d="m 1077.6984,1523.8948 -2.4382,-136.541 v 0 l 51.2028,82.8999 v 0 l 10.9721,17.0676 m 13.4103,19.5059 302.3407,24.3823 63.394,-39.0117 c 0,0 7.3147,-17.0676 231.632,-633.94025 3.9476,-10.85579 -23.3673,-21.61637 -26.8205,-21.94408 l 9.7529,24.38231 -224.3173,585.17562 17.0676,29.2588"
   style="fill:none;stroke:#000000;stroke-width:10;stroke-linecap:butt;stroke-linejoin:miter;stroke-opacity:1;stroke-miterlimit:4;stroke-dasharray:none" /><path
   sodipodi:nodetypes="cccc"
   id="path884"
   d="m 1748.5169,854.90498 10.8197,26.66816 -231.7845,637.44516 -10.972,-26.8205"
   style="fill:none;stroke:#000000;stroke-width:10;stroke-linecap:butt;stroke-linejoin:miter;stroke-opacity:1;stroke-miterlimit:4;stroke-dasharray:none" /><path
   id="path886"
   d="m 1527.5521,1519.0183 -59.7366,37.7926 -14.6294,-25.6014"
   style="fill:none;stroke:#000000;stroke-width:10;stroke-linecap:butt;stroke-linejoin:miter;stroke-opacity:1;stroke-miterlimit:4;stroke-dasharray:none" /><path
   sodipodi:nodetypes="cssc"
   id="path888"
   d="m 1467.8155,1556.8109 c 0,0 -292.4716,-25.7808 -316.9701,-26.8205 -9.0703,-0.3849 -25.999,-14.4023 -32.1281,-37.1587 -2.0693,-7.6828 7.7457,-22.578 7.7457,-22.578"
   style="fill:none;stroke:#000000;stroke-width:10;stroke-linecap:butt;stroke-linejoin:miter;stroke-opacity:1;stroke-miterlimit:4;stroke-dasharray:none" /><path
   sodipodi:nodetypes="cac"
   id="path890"
   d="m 1150.8454,1506.8272 c 0,0 -15.0817,-0.132 -21.2722,-3.8163 -5.0774,-3.0219 -11.0715,-13.843 -11.0715,-13.843"
   style="fill:none;stroke:#000000;stroke-width:10;stroke-linecap:butt;stroke-linejoin:miter;stroke-opacity:1;stroke-miterlimit:4;stroke-dasharray:none" /><path
   sodipodi:nodetypes="ccccc"
   id="path892"
   d="m 1506.8272,1445.8714 -109.7204,-198.7159 1.2191,49.9838 118.2542,195.0585 -63.394,39.0117"
   style="fill:none;stroke:#000000;stroke-width:10;stroke-linecap:butt;stroke-linejoin:miter;stroke-opacity:1;stroke-miterlimit:4;stroke-dasharray:none" /><path
   sodipodi:nodetypes="csssccccscc"
   id="path894"
   d="m 1453.1861,1531.2095 c 0,0 0.862,6.4653 -113.7349,-197.1271 -5.8319,-10.3609 -33.246,-26.478 -49.6266,-27.1902 -280.3967,-12.1912 -187.074,-5.6179 -280.3967,-12.1912 -19.96944,-1.4066 -26.51575,-30.4779 -26.51575,-30.4779 l 273.99625,-587.61381 99.9675,-58.51756 260.8908,-9.75293 c 0,0 21.313,-1.69903 23.9557,9.50911 2.6565,11.26704 -4.4498,29.5026 -4.4498,29.5026 l -240.1658,599.80499"
   style="fill:none;stroke:#000000;stroke-width:10;stroke-linecap:butt;stroke-linejoin:miter;stroke-opacity:1;stroke-miterlimit:4;stroke-dasharray:none" /><path
   sodipodi:nodetypes="ccsc"
   id="path896"
   d="m 1721.3916,836.31347 -75.5852,-171.89534 c 0,0 5.7361,-7.89508 7.3147,-19.81063 1.4316,-10.8052 -10.972,-25.90621 -10.972,-25.90621"
   style="fill:none;stroke:#000000;stroke-width:10;stroke-linecap:butt;stroke-linejoin:miter;stroke-opacity:1;stroke-miterlimit:4;stroke-dasharray:none" /><path
   sodipodi:nodetypes="cc"
   id="path900"
   d="M 1431.242,1529.5332 1303.2961,1310.1364"
   style="fill:none;stroke:#000000;stroke-width:10;stroke-linecap:butt;stroke-linejoin:miter;stroke-opacity:1;stroke-miterlimit:4;stroke-dasharray:none" /><path
   sodipodi:nodetypes="cccccc"
   id="path902"
   d="m 1419.8128,1509.7226 -48.3075,-5.3337 -17.9972,-13.2624 -119.8369,-6.9575 -9.6789,8.0288 -86.5572,-4.8765"
   style="fill:none;stroke:#000000;stroke-width:10;stroke-linecap:butt;stroke-linejoin:miter;stroke-opacity:1;stroke-miterlimit:4;stroke-dasharray:none" /><path
   id="path904"
   d="M 1645.8064,664.41813 1405.6406,1260.5658"
   style="fill:none;stroke:#000000;stroke-width:10;stroke-linecap:butt;stroke-linejoin:miter;stroke-opacity:1;stroke-miterlimit:4;stroke-dasharray:none" /><path
   sodipodi:nodetypes="cssc"
   id="path906"
   d="m 1309.3304,1320.912 c 0,0 -190.1094,-9.5239 -285.7041,-12.7484 -31.07477,-1.0483 -31.88682,-8.1159 -37.2624,-16.7439 -3.78092,-6.0685 -3.45175,-27.1966 -3.45175,-27.1966"
   style="fill:none;stroke:#000000;stroke-width:10;stroke-linecap:butt;stroke-linejoin:miter;stroke-opacity:1;stroke-miterlimit:4;stroke-dasharray:none" /><path
   sodipodi:nodetypes="ccscsc"
   id="path908"
   d="M 1076.4793,1061.8499 V 393.77442 c 0,0 1.6,-27.6474 -14.6559,-28.51827 l -82.09163,-4.39786 c 0,0 73.97673,2.13199 74.08933,16.64929 l 5.5906,720.91582"
   style="fill:none;stroke:#000000;stroke-width:10;stroke-linecap:butt;stroke-linejoin:miter;stroke-opacity:1;stroke-miterlimit:4;stroke-dasharray:none" /><path
   sodipodi:nodetypes="cssc"
   id="path910"
   d="m 890.24029,340.05713 126.50231,29.33497 c 18.0586,4.18767 24.3284,13.15922 24.3823,49.98375 0.1433,97.91006 -1.2191,721.71655 -1.2191,721.71655"
   style="fill:none;stroke:#000000;stroke-width:10;stroke-linecap:butt;stroke-linejoin:miter;stroke-opacity:1;stroke-miterlimit:4;stroke-dasharray:none" /><path
   sodipodi:nodetypes="ccscc"
   id="path912"
   d="m 373.04945,368.17298 473.01694,-48.76463 c 0,0 21.53046,-1.94607 32.62378,10.47203 9.06522,10.1478 8.82616,28.53968 8.82616,28.53968 0,0 -0.10574,769.35024 -1.71775,1149.71294"
   style="fill:none;stroke:#000000;stroke-width:10;stroke-linecap:butt;stroke-linejoin:miter;stroke-opacity:1;stroke-miterlimit:4;stroke-dasharray:none" /><path
   sodipodi:nodetypes="csc"
   id="path914"
   d="m 885.95097,1507.9806 c 0,0 -1.8354,29.2061 7.28012,38.8069 7.652,8.0593 24.14584,4.796 24.14584,4.796"
   style="fill:none;stroke:#000000;stroke-width:10;stroke-linecap:butt;stroke-linejoin:miter;stroke-opacity:1;stroke-miterlimit:4;stroke-dasharray:none" /><path
   sodipodi:nodetypes="csc"
   id="path918"
   d="m 885.75132,1500.3895 c 0,0 3.39874,26.074 -32.59429,61.7648 -36.09183,35.7888 -70.47398,31.6054 -70.47398,31.6054"
   style="fill:none;stroke:#000000;stroke-width:10;stroke-linecap:butt;stroke-linejoin:miter;stroke-opacity:1;stroke-miterlimit:4;stroke-dasharray:none" /><path
   sodipodi:nodetypes="csscscccc"
   id="path920"
   d="m 863.84613,321.19248 c 0,0 5.24618,1.94647 16.88847,5.8089 7.16819,2.37811 12.06693,19.17362 12.07726,23.53252 l 2.75288,1162.0766 c 0,0 -0.0705,10.7942 6.61773,16.0785 4.8836,3.8585 15.03349,2.3031 15.03349,2.3031 l 138.35824,-24.5683 v -152.151 0.431"
   style="fill:none;stroke:#000000;stroke-width:10;stroke-linecap:butt;stroke-linejoin:miter;stroke-opacity:1;stroke-miterlimit:4;stroke-dasharray:none" /><path
   id="path922"
   d="m 1075.2602,1387.3538 -51.8125,-79.8521"
   style="fill:none;stroke:#000000;stroke-width:10;stroke-linecap:butt;stroke-linejoin:miter;stroke-opacity:1;stroke-miterlimit:4;stroke-dasharray:none" /><path
   id="path924"
   d="m 1038.6867,1330.6649 1.2191,161.5329 -143.85566,23.1632"
   style="fill:none;stroke:#000000;stroke-width:10;stroke-linecap:butt;stroke-linejoin:miter;stroke-opacity:1;stroke-miterlimit:4;stroke-dasharray:none" /></svg>
