<?xml version="1.0" encoding="UTF-8" standalone="no"?>
<svg
   inkscape:version="1.3.2 (091e20e, 2023-11-25, custom)"
   sodipodi:docname="icon.svg"
   xml:space="preserve"
   style="enable-background:new 0 0 1999.35 1999.35;"
   viewBox="0 0 1999.35 1999.35"
   y="0px"
   x="0px"
   id="Layer_1"
   version="1.1"
   xmlns:inkscape="http://www.inkscape.org/namespaces/inkscape"
   xmlns:sodipodi="http://sodipodi.sourceforge.net/DTD/sodipodi-0.dtd"
   xmlns="http://www.w3.org/2000/svg"
   xmlns:svg="http://www.w3.org/2000/svg"
   xmlns:rdf="http://www.w3.org/1999/02/22-rdf-syntax-ns#"
   xmlns:cc="http://creativecommons.org/ns#"
   xmlns:dc="http://purl.org/dc/elements/1.1/"><metadata
   id="metadata41"><rdf:RDF><cc:Work
       rdf:about=""><dc:format>image/svg+xml</dc:format><dc:type
         rdf:resource="http://purl.org/dc/dcmitype/StillImage" /></cc:Work></rdf:RDF></metadata><defs
   id="defs39" /><sodipodi:namedview
   inkscape:current-layer="Layer_1"
   inkscape:window-maximized="1"
   inkscape:window-y="-8"
   inkscape:window-x="-8"
   inkscape:cy="1265.4422"
   inkscape:cx="2223.6673"
   inkscape:zoom="0.20506665"
   showgrid="false"
   id="namedview37"
   inkscape:window-height="987"
   inkscape:window-width="1680"
   inkscape:pageshadow="2"
   inkscape:pageopacity="0"
   guidetolerance="10"
   gridtolerance="10"
   objecttolerance="10"
   borderopacity="1"
   bordercolor="#666666"
   pagecolor="#ffffff"
   inkscape:showpageshadow="2"
   inkscape:pagecheckerboard="0"
   inkscape:deskcolor="#d1d1d1" />





<path
   style="fill:none;stroke:#000000;stroke-width:5;stroke-linecap:butt;stroke-linejoin:miter;stroke-opacity:1;stroke-dasharray:none"
   d="m 1345.7515,452.90152 c 0,0 -98.8951,922.28448 -126.6357,1170.96078 -1.4104,12.643 -17.0676,34.1352 -17.0676,34.1352 0,0 -61.8094,-105.4583 -175.6034,-106.698 -161.16334,-1.7557 -395.69252,-9.8376 -563.18078,-9.7275 -65.41914,0.043 -53.6411,50.5933 -53.6411,50.5933 0,0 105.81719,71.0453 168.23798,73.1469 274.01816,9.2258 340.83886,20.4004 524.2198,21.9441 72.125,0.6071 99.9136,-28.9894 99.9136,-28.9894"
   id="path1"
   sodipodi:nodetypes="cscsscssc" /><path
   style="fill:none;stroke:#000000;stroke-width:5;stroke-linecap:butt;stroke-linejoin:miter;stroke-opacity:1;stroke-dasharray:none"
   d="m 1215.3603,1635.9695 c 0,0 -2.8842,-16.2464 -43.6114,-49.247 -59.4155,-48.1435 -84.4225,-52.2347 -148.1226,-53.6411 -219.18109,-4.8391 -343.33478,-7.367 -560.36229,-11.6249 -18.17,-0.3565 -50.82939,1.5208 -62.1749,20.1155 -8.84706,14.4999 8.22903,50.2885 8.22903,50.2885"
   id="path2"
   sodipodi:nodetypes="csssac" /><path
   style="fill:none;stroke:#000000;stroke-width:5;stroke-linecap:butt;stroke-linejoin:miter;stroke-opacity:1;stroke-dasharray:none"
   d="m 409.16575,1592.1653 c 0,0 -23.45947,-37.9023 -20.2678,-60.9558 44.90365,-324.3405 102.59468,-766.50955 159.70417,-1163.03652 4.84254,-33.6231 82.19669,-55.06887 119.47335,-56.07933 168.45427,-4.5663 267.49849,-9.71613 429.12873,-12.19116 37.7195,-0.57759 124.0843,22.92805 160.9233,49.37419 61.0208,43.80583 87.7764,104.23441 87.7764,104.23441 0,0 -56.5389,-58.72057 -92.6528,-75.58518 -54.7373,-25.56141 -117.6287,-36.57622 -177.9909,-34.13525 -157.1437,6.35469 -283.68805,13.75166 -424.79321,16.20557 -58.20202,1.01217 -106.02719,37.57074 -106.02719,37.57074"
   id="path3"
   sodipodi:nodetypes="cssssscassc" /><path
   style="fill:none;stroke:#000000;stroke-width:5;stroke-linecap:butt;stroke-linejoin:miter;stroke-opacity:1;stroke-dasharray:none"
   d="m 594.8111,1550.8191 c 256.02738,3.4482 256.02738,3.4482 256.02738,3.4482"
   id="path4" /><path
   style="fill:none;stroke:#000000;stroke-width:5;stroke-linecap:butt;stroke-linejoin:miter;stroke-opacity:1;stroke-dasharray:none"
   d="m 996.5241,884.45824 c 82.7563,5.17227 82.7563,5.17227 82.7563,5.17227"
   id="path5" /><path
   style="fill:none;stroke:#000000;stroke-width:5;stroke-linecap:butt;stroke-linejoin:miter;stroke-dasharray:none;stroke-opacity:1"
   d="m 1694.571,713.18276 c 0,0 -26.1639,-49.91817 -47.5455,-67.05137 -21.3203,-17.08413 -38.3819,-31.16957 -75.5852,-31.69701 -73.854,-1.04705 -60.4822,-0.34627 -142.6365,1.21912 -21.8799,0.41691 -68.4846,11.14563 -70.7088,32.91612 -22.1489,216.79156 -65.8322,619.31088 -65.8322,619.31088 0,0 34.7983,49.947 58.5175,68.2704 13.9512,10.7775 29.9247,22.6201 47.5456,23.1632 84.8447,2.6151 86.0224,3.5864 179.21,2.4383 22.9322,-0.2825 59.7367,-34.1353 59.7367,-34.1353 z"
   id="path6"
   sodipodi:nodetypes="cassscasscc" /><path
   style="fill:none;stroke:#000000;stroke-width:5;stroke-linecap:butt;stroke-linejoin:miter;stroke-opacity:1;stroke-dasharray:none"
   d="m 1636.663,1326.398 c 0,0 -16.6596,-29.329 -29.8683,-39.0117 -27.889,-20.4442 -62.9561,-34.6768 -97.5293,-35.3543 -60.7573,-1.1906 -61.345,-1.5064 -175.5527,2.4382 -23.3052,0.8049 -40.2308,13.4103 -40.2308,13.4103"
   id="path7"
   sodipodi:nodetypes="cassc" /><path
   style="fill:none;stroke:#000000;stroke-width:5;stroke-linecap:butt;stroke-linejoin:miter;stroke-dasharray:none;stroke-opacity:1"
   d="m 1615.0147,1345.4422 c 0,0 -18.1697,-30.1901 -31.9928,-40.3787 -19.4696,-14.3504 -38.2338,-24.8501 -67.6609,-26.211 -71.0203,-3.2845 -71.6125,-2.5593 -158.4851,-1.2191 -24.1841,0.3731 -46.9792,12.9053 -46.9792,12.9053"
   id="path8"
   sodipodi:nodetypes="cassc" /><path
   style="fill:none;stroke:#000000;stroke-width:5;stroke-linecap:butt;stroke-linejoin:miter;stroke-opacity:1;stroke-dasharray:none"
   d="m 1354.4377,913.11775 43.8882,-1.21911"
   id="path9" /></svg>
