<?xml version="1.0" encoding="UTF-8" standalone="no"?>
<svg
   xmlns:dc="http://purl.org/dc/elements/1.1/"
   xmlns:cc="http://creativecommons.org/ns#"
   xmlns:rdf="http://www.w3.org/1999/02/22-rdf-syntax-ns#"
   xmlns:svg="http://www.w3.org/2000/svg"
   xmlns="http://www.w3.org/2000/svg"
   xmlns:sodipodi="http://sodipodi.sourceforge.net/DTD/sodipodi-0.dtd"
   xmlns:inkscape="http://www.inkscape.org/namespaces/inkscape"
   inkscape:version="1.0 (4035a4fb49, 2020-05-01)"
   sodipodi:docname="icon.svg"
   xml:space="preserve"
   style="enable-background:new 0 0 1999.35 1999.35;"
   viewBox="0 0 1999.35 1999.35"
   y="0px"
   x="0px"
   id="Layer_1"
   version="1.1"><metadata
   id="metadata41"><rdf:RDF><cc:Work
       rdf:about=""><dc:format>image/svg+xml</dc:format><dc:type
         rdf:resource="http://purl.org/dc/dcmitype/StillImage" /></cc:Work></rdf:RDF></metadata><defs
   id="defs39" /><sodipodi:namedview
   inkscape:current-layer="Layer_1"
   inkscape:window-maximized="1"
   inkscape:window-y="-8"
   inkscape:window-x="-8"
   inkscape:cy="613.80653"
   inkscape:cx="628.66653"
   inkscape:zoom="0.14500402"
   showgrid="false"
   id="namedview37"
   inkscape:window-height="987"
   inkscape:window-width="1680"
   inkscape:pageshadow="2"
   inkscape:pageopacity="0"
   guidetolerance="10"
   gridtolerance="10"
   objecttolerance="10"
   borderopacity="1"
   bordercolor="#666666"
   pagecolor="#ffffff" />





<path
   sodipodi:nodetypes="csccccscccccc"
   id="path880"
   d="m 1546.5089,1575.8184 c 0,0 1.9365,56.5887 -13.3617,74.1359 -13.0921,15.0167 -50.4297,13.7927 -50.4297,13.7927 L 406.88528,1622.3688 339.64576,1551.6811 336.19758,424.12618 c 0,0 -4.2061,-26.96611 12.06863,-43.10226 19.89388,-19.72448 51.72271,-20.68908 51.72271,-20.68908 l 1117.21038,-41.37816 39.6541,49.99861 101.7213,37.92999 -49.9986,-49.99862 -93.1009,-37.92998"
   style="fill:none;stroke:#000000;stroke-width:9;stroke-linecap:butt;stroke-linejoin:miter;stroke-opacity:1;stroke-miterlimit:4;stroke-dasharray:none" /><path
   sodipodi:nodetypes="ccscc"
   id="path882"
   d="m 1658.5747,406.88528 -1.7241,1172.38132 c 0,0 0.3628,19.9029 -14.4393,34.2663 -16.3982,15.9123 -40.7315,17.4564 -40.7315,17.4564 l -44.8264,-1.7241"
   style="fill:none;stroke:#000000;stroke-width:9;stroke-linecap:butt;stroke-linejoin:miter;stroke-opacity:1;stroke-miterlimit:4;stroke-dasharray:none" /><path
   sodipodi:nodetypes="cccc"
   id="path884"
   d="m 1560.3016,401.71301 87.9286,32.75771 -6.6809,1153.63178 c -9.1059,29.1436 -24.0741,34.888 -61.2051,42.2403"
   style="fill:none;stroke:#000000;stroke-width:9;stroke-linecap:butt;stroke-linejoin:miter;stroke-opacity:1;stroke-miterlimit:4;stroke-dasharray:none" /><path
   id="path886"
   d="m 1648.2302,434.47072 -17.2409,12.06863 -72.4118,-24.13726"
   style="fill:none;stroke:#000000;stroke-width:9;stroke-linecap:butt;stroke-linejoin:miter;stroke-opacity:1;stroke-miterlimit:4;stroke-dasharray:none" /><path
   id="path888"
   d="m 1560.3016,401.71301 -3.4482,1227.55219"
   style="fill:none;stroke:#000000;stroke-width:9;stroke-linecap:butt;stroke-linejoin:miter;stroke-opacity:1;stroke-miterlimit:4;stroke-dasharray:none" /><path
   sodipodi:nodetypes="ccsc"
   id="path890"
   d="m 1630.9893,446.53935 -1.7241,1120.65855 c 0,0 0.092,29.4957 -17.2409,39.6541 -12.2355,7.1708 -55.1709,5.1723 -55.1709,5.1723"
   style="fill:none;stroke:#000000;stroke-width:9;stroke-linecap:butt;stroke-linejoin:miter;stroke-opacity:1;stroke-miterlimit:4;stroke-dasharray:none" /><path
   sodipodi:nodetypes="scsssccas"
   id="path892"
   d="m 881.01007,863.76917 3.44818,165.51263 c 0,0 -36.26768,7.3734 -35.64862,63.4164 0.4295,38.8827 27.71999,68.4667 69.26838,66.7524 31.87889,-1.3153 69.02492,-32.8463 68.9636,-66.3775 -0.0874,-47.7849 -37.06794,-67.2395 -37.06794,-67.2395 l 3.44819,-163.78852 c -2.1145,-32.63202 -16.69893,-38.4693 -33.87225,-38.83535 -18.64565,-0.39745 -39.33918,2.1766 -38.53954,40.55944 z"
   style="fill:none;stroke:#000000;stroke-width:9;stroke-linecap:butt;stroke-linejoin:miter;stroke-opacity:1;stroke-miterlimit:4;stroke-dasharray:none" /><path
   sodipodi:nodetypes="ccsasc"
   id="path894"
   d="m 917.21596,870.66553 1.72409,187.92587 c 0,0 -31.33098,4.7964 -30.17157,31.0336 0.90394,20.4561 14.65803,32.644 29.30953,32.7577 15.25067,0.1183 32.23804,-14.4291 31.03362,-33.6197 -1.93896,-30.8943 -30.17158,-30.1716 -30.17158,-30.1716"
   style="fill:none;stroke:#000000;stroke-width:9;stroke-linecap:butt;stroke-linejoin:miter;stroke-opacity:1;stroke-miterlimit:4;stroke-dasharray:none" /><path
   id="path896"
   d="m 1556.8534,368.95529 -8.1894,27.58545 -2.1551,1179.27766"
   style="fill:none;stroke:#000000;stroke-width:9;stroke-linecap:butt;stroke-linejoin:miter;stroke-opacity:1;stroke-miterlimit:4;stroke-dasharray:none" /><path
   sodipodi:nodetypes="csc"
   id="path898"
   d="m 1556.8534,1629.2652 c 0,0 -7.381,19.5219 -15.5168,24.9993 -20.4004,13.7346 -54.3088,9.4825 -54.3088,9.4825"
   style="fill:none;stroke:#000000;stroke-width:9;stroke-linecap:butt;stroke-linejoin:miter;stroke-opacity:1;stroke-miterlimit:4;stroke-dasharray:none" /><path
   id="path904"
   d="M 962.90435,889.63052 H 1013.765"
   style="fill:none;stroke:#000000;stroke-width:5;stroke-linecap:butt;stroke-linejoin:miter;stroke-opacity:1;stroke-miterlimit:4;stroke-dasharray:none" /><path
   style="fill:none;stroke:#000000;stroke-width:5;stroke-linecap:butt;stroke-linejoin:miter;stroke-opacity:1;stroke-miterlimit:4;stroke-dasharray:none"
   d="m 962.90435,905.63052 h 43.10225"
   id="path906" /><path
   id="path908"
   d="M 962.90435,923.63052 H 996.5241"
   style="fill:none;stroke:#000000;stroke-width:5;stroke-linecap:butt;stroke-linejoin:miter;stroke-opacity:1;stroke-miterlimit:4;stroke-dasharray:none" /><path
   style="fill:none;stroke:#000000;stroke-width:5;stroke-linecap:butt;stroke-linejoin:miter;stroke-opacity:1;stroke-miterlimit:4;stroke-dasharray:none"
   d="m 962.90435,943.63052 h 26.72339"
   id="path910" /><path
   id="path912"
   d="m 962.90435,961.63052 h 20.68907"
   style="fill:none;stroke:#000000;stroke-width:5;stroke-linecap:butt;stroke-linejoin:miter;stroke-opacity:1;stroke-miterlimit:4;stroke-dasharray:none" /></svg>
