<?xml version="1.0" encoding="UTF-8" standalone="no"?>
<svg
   xmlns:dc="http://purl.org/dc/elements/1.1/"
   xmlns:cc="http://creativecommons.org/ns#"
   xmlns:rdf="http://www.w3.org/1999/02/22-rdf-syntax-ns#"
   xmlns:svg="http://www.w3.org/2000/svg"
   xmlns="http://www.w3.org/2000/svg"
   xmlns:sodipodi="http://sodipodi.sourceforge.net/DTD/sodipodi-0.dtd"
   xmlns:inkscape="http://www.inkscape.org/namespaces/inkscape"
   version="1.1"
   id="Layer_1"
   x="0px"
   y="0px"
   viewBox="0 0 1999.35 1999.35"
   style="enable-background:new 0 0 1999.35 1999.35;"
   xml:space="preserve"
   sodipodi:docname="icon.svg"
   inkscape:version="1.0 (4035a4fb49, 2020-05-01)"><metadata
   id="metadata41"><rdf:RDF><cc:Work
       rdf:about=""><dc:format>image/svg+xml</dc:format><dc:type
         rdf:resource="http://purl.org/dc/dcmitype/StillImage" /></cc:Work></rdf:RDF></metadata><defs
   id="defs39" /><sodipodi:namedview
   inkscape:document-rotation="0"
   pagecolor="#ffffff"
   bordercolor="#666666"
   borderopacity="1"
   objecttolerance="10"
   gridtolerance="10"
   guidetolerance="10"
   inkscape:pageopacity="0"
   inkscape:pageshadow="2"
   inkscape:window-width="1680"
   inkscape:window-height="987"
   id="namedview37"
   showgrid="false"
   inkscape:zoom="0.20506665"
   inkscape:cx="-56.252576"
   inkscape:cy="1455.7839"
   inkscape:window-x="-8"
   inkscape:window-y="-8"
   inkscape:window-maximized="1"
   inkscape:current-layer="Layer_1" />





<path
   sodipodi:nodetypes="sssssssss"
   id="path875"
   d="m 297.46426,541.28743 c 1440.99494,0 0,0 1440.99494,0 26.461,0 53.6411,32.05654 53.6411,58.51756 0,709.52541 0,0 0,709.52541 0,24.1373 -27.0656,51.2029 -51.2029,51.2029 -1436.11844,0 0,0 -1436.11844,0 -24.87846,0 -58.51756,-21.4479 -58.51756,-46.3264 0,-738.78423 0,0 0,-738.78423 0,-20.51273 30.69013,-34.13524 51.20286,-34.13524 z"
   style="fill:none;stroke:#000000;stroke-width:6;stroke-linecap:butt;stroke-linejoin:miter;stroke-miterlimit:4;stroke-dasharray:none;stroke-opacity:1" /><path
   style="fill:none;stroke:#000000;stroke-width:6;stroke-linecap:butt;stroke-linejoin:miter;stroke-miterlimit:4;stroke-dasharray:none;stroke-opacity:1"
   d="m 305.36423,567.91298 1418.03877,0 c 24.741,0 35.525,29.97286 35.525,54.71391 V 1286.033 c 0,22.5684 -10.6769,47.8748 -33.2453,47.8748 H 312.20347 c -23.26135,0 -30.33159,-32.245 -30.33159,-55.5064 V 587.63826 c 0,-19.1794 4.31295,-19.72528 23.49235,-19.72528 z"
   id="path877"
   sodipodi:nodetypes="sssssssss" /><path
   id="path879"
   d="M 1732.7106,1332.7217 V 568.94975"
   style="fill:none;stroke:#000000;stroke-width:3;stroke-linecap:butt;stroke-linejoin:miter;stroke-opacity:1;stroke-miterlimit:4;stroke-dasharray:none" /><path
   id="path881"
   d="M 1755.1238,598.25928 H 279.3026"
   style="fill:none;stroke:#000000;stroke-width:3;stroke-linecap:butt;stroke-linejoin:miter;stroke-opacity:1;stroke-miterlimit:4;stroke-dasharray:none" /><path
   id="path883"
   d="M 305.36423,567.91298 V 1332.7217"
   style="fill:none;stroke:#000000;stroke-width:3;stroke-linecap:butt;stroke-linejoin:miter;stroke-opacity:1;stroke-miterlimit:4;stroke-dasharray:none" /><path
   id="path885"
   d="M 281.02669,1305.1362 H 1755.1238"
   style="fill:none;stroke:#000000;stroke-width:3;stroke-linecap:butt;stroke-linejoin:miter;stroke-opacity:1;stroke-miterlimit:4;stroke-dasharray:none" /><path
   sodipodi:nodetypes="cssassc"
   id="path887"
   d="m 245.04228,807.66424 c 0,0 -89.7839,7.40243 -90.21457,106.06308 0,0 0,0 64.00358,0 15.40198,0 27.41348,21.78106 27.43011,37.18303 0.0174,16.13378 -12.51543,39.01171 -28.64922,39.01171 -60.34624,0 -60.34624,0 -60.34624,0 -1.95879,98.56734 87.77634,103.62484 87.77634,103.62484"
   style="fill:none;stroke:#000000;stroke-width:6;stroke-linecap:butt;stroke-linejoin:miter;stroke-opacity:1;stroke-miterlimit:4;stroke-dasharray:none" /><path
   style="fill:none;stroke:#000000;stroke-width:6;stroke-linecap:butt;stroke-linejoin:miter;stroke-miterlimit:4;stroke-dasharray:none;stroke-opacity:1"
   d="m 1793.9289,1095.9851 c 0,0 89.7839,-7.4025 90.2146,-106.06306 0,0 0,0 -64.0036,0 -15.402,0 -27.4135,-21.7811 -27.4301,-37.183 -0.017,-16.1338 12.5154,-39.0118 28.6492,-39.0118 60.3463,0 60.3463,0 60.3463,0 1.9588,-98.5673 -87.7764,-103.6248 -87.7764,-103.6248"
   id="path889"
   sodipodi:nodetypes="cssassc" /><path
   d="m 445.48225,1111.3881 a 29.309532,29.309532 0 0 1 -41.3839,-2.1187 29.309532,29.309532 0 0 1 2.09511,-41.3851 29.309532,29.309532 0 0 1 41.38629,2.0715 29.309532,29.309532 0 0 1 -2.04783,41.3874"
   sodipodi:arc-type="arc"
   sodipodi:open="true"
   sodipodi:end="0.83455187"
   sodipodi:start="0.83683651"
   sodipodi:ry="29.309532"
   sodipodi:rx="29.309532"
   sodipodi:cy="1089.625"
   sodipodi:cx="425.85028"
   sodipodi:type="arc"
   id="path891"
   style="fill:#000000;fill-rule:evenodd;fill-opacity:1;stroke:#000000;stroke-opacity:1" /><path
   style="fill:#000000;fill-opacity:1;fill-rule:evenodd;stroke:#000000;stroke-opacity:1"
   id="path893"
   sodipodi:type="arc"
   sodipodi:cx="425.85028"
   sodipodi:cy="1172.3813"
   sodipodi:rx="29.309532"
   sodipodi:ry="29.309532"
   sodipodi:start="0.83683651"
   sodipodi:end="0.83455187"
   sodipodi:open="true"
   sodipodi:arc-type="arc"
   d="m 445.48225,1194.1445 a 29.309532,29.309532 0 0 1 -41.3839,-2.1188 29.309532,29.309532 0 0 1 2.09511,-41.3851 29.309532,29.309532 0 0 1 41.38629,2.0715 29.309532,29.309532 0 0 1 -2.04783,41.3875" /><path
   style="fill:#000000;fill-opacity:1;fill-rule:evenodd;stroke:#000000;stroke-opacity:1"
   id="path895"
   sodipodi:type="arc"
   sodipodi:cx="1615.4725"
   sodipodi:cy="1051.6951"
   sodipodi:rx="29.309532"
   sodipodi:ry="29.309532"
   sodipodi:start="0.83683651"
   sodipodi:end="0.83455187"
   sodipodi:open="true"
   sodipodi:arc-type="arc"
   d="m 1635.1045,1073.4582 a 29.309532,29.309532 0 0 1 -41.3839,-2.1187 29.309532,29.309532 0 0 1 2.0951,-41.3851 29.309532,29.309532 0 0 1 41.3863,2.0714 29.309532,29.309532 0 0 1 -2.0478,41.3875" /><path
   d="m 1635.1045,1156.2146 a 29.309532,29.309532 0 0 1 -41.3839,-2.1188 29.309532,29.309532 0 0 1 2.0951,-41.3851 29.309532,29.309532 0 0 1 41.3863,2.0715 29.309532,29.309532 0 0 1 -2.0478,41.3875"
   sodipodi:arc-type="arc"
   sodipodi:open="true"
   sodipodi:end="0.83455187"
   sodipodi:start="0.83683651"
   sodipodi:ry="29.309532"
   sodipodi:rx="29.309532"
   sodipodi:cy="1134.4514"
   sodipodi:cx="1615.4725"
   sodipodi:type="arc"
   id="path897"
   style="fill:#000000;fill-opacity:1;fill-rule:evenodd;stroke:#000000;stroke-opacity:1" /><path
   d="m 1547.2708,1075.092 a 37.173065,37.173065 0 0 1 -52.4869,-2.6872 37.173065,37.173065 0 0 1 2.6572,-52.4884 37.173065,37.173065 0 0 1 52.4899,2.6272 37.173065,37.173065 0 0 1 -2.5972,52.4915"
   sodipodi:arc-type="arc"
   sodipodi:open="true"
   sodipodi:end="0.83455187"
   sodipodi:start="0.83683651"
   sodipodi:ry="37.173065"
   sodipodi:rx="37.173065"
   sodipodi:cy="1047.49"
   sodipodi:cx="1522.3717"
   sodipodi:type="arc"
   id="path899"
   style="fill:none;fill-opacity:1;fill-rule:evenodd;stroke-width:6;stroke:#000000;stroke-opacity:1;stroke-miterlimit:4;stroke-dasharray:none" /><path
   style="fill:none;fill-opacity:1;fill-rule:evenodd;stroke-width:6;stroke:#000000;stroke-opacity:1;stroke-miterlimit:4;stroke-dasharray:none"
   id="path901"
   sodipodi:type="arc"
   sodipodi:cx="1522.3717"
   sodipodi:cy="1140.3806"
   sodipodi:rx="37.173065"
   sodipodi:ry="37.173065"
   sodipodi:start="0.83683651"
   sodipodi:end="0.83455187"
   sodipodi:open="true"
   sodipodi:arc-type="arc"
   d="m 1547.2708,1167.9827 a 37.173065,37.173065 0 0 1 -52.4869,-2.6872 37.173065,37.173065 0 0 1 2.6572,-52.4885 37.173065,37.173065 0 0 1 52.4899,2.6273 37.173065,37.173065 0 0 1 -2.5972,52.4914" /><path
   style="fill:none;fill-opacity:1;fill-rule:evenodd;stroke:#000000;stroke-width:6;stroke-miterlimit:4;stroke-dasharray:none;stroke-opacity:1"
   id="path903"
   sodipodi:type="arc"
   sodipodi:cx="527.57172"
   sodipodi:cy="1085.4199"
   sodipodi:rx="37.173065"
   sodipodi:ry="37.173065"
   sodipodi:start="0.83683651"
   sodipodi:end="0.83455187"
   sodipodi:open="true"
   sodipodi:arc-type="arc"
   d="m 552.4708,1113.022 a 37.173065,37.173065 0 0 1 -52.4869,-2.6872 37.173065,37.173065 0 0 1 2.65722,-52.4885 37.173065,37.173065 0 0 1 52.48993,2.6273 37.173065,37.173065 0 0 1 -2.59726,52.4914" /><path
   d="m 552.4708,1205.9126 a 37.173065,37.173065 0 0 1 -52.4869,-2.6872 37.173065,37.173065 0 0 1 2.65722,-52.4884 37.173065,37.173065 0 0 1 52.48993,2.6272 37.173065,37.173065 0 0 1 -2.59726,52.4914"
   sodipodi:arc-type="arc"
   sodipodi:open="true"
   sodipodi:end="0.83455187"
   sodipodi:start="0.83683651"
   sodipodi:ry="37.173065"
   sodipodi:rx="37.173065"
   sodipodi:cy="1178.3105"
   sodipodi:cx="527.57172"
   sodipodi:type="arc"
   id="path905"
   style="fill:none;fill-opacity:1;fill-rule:evenodd;stroke:#000000;stroke-width:6;stroke-miterlimit:4;stroke-dasharray:none;stroke-opacity:1" /><path
   id="path907"
   d="m 565.07055,1087.9009 h 56.46395 v 90.9457 h -56.03293"
   style="fill:none;stroke:#000000;stroke-width:6;stroke-linecap:butt;stroke-linejoin:miter;stroke-opacity:1;stroke-miterlimit:4;stroke-dasharray:none" /><path
   id="path909"
   d="m 621.5345,1133.1583 h 20.25806"
   style="fill:none;stroke:#000000;stroke-width:6;stroke-linecap:butt;stroke-linejoin:miter;stroke-opacity:1;stroke-miterlimit:4;stroke-dasharray:none" /><path
   id="path911"
   d="m 1485.4926,1049.0492 h -56.9936 v 96.6149 h 55.7745"
   style="fill:none;stroke:#000000;stroke-width:6;stroke-linecap:butt;stroke-linejoin:miter;stroke-opacity:1;stroke-miterlimit:4;stroke-dasharray:none" /><path
   id="path913"
   d="m 1428.1942,1096.5947 h -24.9919"
   style="fill:none;stroke:#000000;stroke-width:6;stroke-linecap:butt;stroke-linejoin:miter;stroke-opacity:1;stroke-miterlimit:4;stroke-dasharray:none" /><text
   id="text917"
   y="755.77332"
   x="444.81525"
   style="font-style:normal;font-variant:normal;font-weight:bold;font-stretch:normal;font-size:86.6667px;line-height:1.25;font-family:sans-serif;-inkscape-font-specification:'sans-serif, Bold';font-variant-ligatures:normal;font-variant-caps:normal;font-variant-numeric:normal;font-variant-east-asian:normal;letter-spacing:0px;word-spacing:0px;fill:#000000;fill-opacity:1;stroke:#000000;stroke-opacity:1"
   xml:space="preserve"><tspan
     y="755.77332"
     x="444.81525"
     id="tspan915"
     sodipodi:role="line">Zigbee OnOff Controller</tspan></text><text
   id="text921"
   y="1108.59"
   x="508.6066"
   style="font-style:normal;font-variant:normal;font-weight:normal;font-stretch:normal;font-size:53.3333px;line-height:1.25;font-family:sans-serif;-inkscape-font-specification:'sans-serif, Normal';font-variant-ligatures:normal;font-variant-caps:normal;font-variant-numeric:normal;font-variant-east-asian:normal;letter-spacing:0px;word-spacing:0px;fill:#000000;fill-opacity:1;stroke:#000000;stroke-opacity:1;"
   xml:space="preserve"><tspan
     y="1108.59"
     x="508.6066"
     id="tspan919"
     sodipodi:role="line">N</tspan></text><text
   id="text925"
   y="1194.7944"
   x="513.77887"
   style="font-style:normal;font-variant:normal;font-weight:normal;font-stretch:normal;font-size:53.3333px;line-height:1.25;font-family:sans-serif;-inkscape-font-specification:'sans-serif, Normal';font-variant-ligatures:normal;font-variant-caps:normal;font-variant-numeric:normal;font-variant-east-asian:normal;letter-spacing:0px;word-spacing:0px;fill:#000000;fill-opacity:1;stroke:#000000;stroke-opacity:1;"
   xml:space="preserve"><tspan
     y="1194.7944"
     x="513.77887"
     id="tspan923"
     sodipodi:role="line">L</tspan></text><text
   id="text929"
   y="1151.6921"
   x="646.53375"
   style="font-style:normal;font-variant:normal;font-weight:normal;font-stretch:normal;font-size:53.3333px;line-height:1.25;font-family:sans-serif;-inkscape-font-specification:'sans-serif, Normal';font-variant-ligatures:normal;font-variant-caps:normal;font-variant-numeric:normal;font-variant-east-asian:normal;letter-spacing:0px;word-spacing:0px;fill:#000000;fill-opacity:1;stroke:#000000;stroke-opacity:1;"
   xml:space="preserve"><tspan
     y="1151.6921"
     x="646.53375"
     id="tspan927"
     sodipodi:role="line">Input</tspan></text><text
   id="text933"
   y="1112.0381"
   x="1217.2076"
   style="font-style:normal;font-variant:normal;font-weight:normal;font-stretch:normal;font-size:53.3333px;line-height:1.25;font-family:sans-serif;-inkscape-font-specification:'sans-serif, Normal';font-variant-ligatures:normal;font-variant-caps:normal;font-variant-numeric:normal;font-variant-east-asian:normal;letter-spacing:0px;word-spacing:0px;fill:#000000;fill-opacity:1;stroke:#000000;stroke-opacity:1;"
   xml:space="preserve"><tspan
     y="1112.0381"
     x="1217.2076"
     id="tspan931"
     sodipodi:role="line">Output</tspan></text><text
   xml:space="preserve"
   style="font-style:normal;font-variant:normal;font-weight:normal;font-stretch:normal;font-size:53.3333px;line-height:1.25;font-family:sans-serif;-inkscape-font-specification:'sans-serif, Normal';font-variant-ligatures:normal;font-variant-caps:normal;font-variant-numeric:normal;font-variant-east-asian:normal;letter-spacing:0px;word-spacing:0px;fill:#000000;fill-opacity:1;stroke:#000000;stroke-opacity:1;"
   x="1503.4066"
   y="1067.2118"
   id="text937"><tspan
     sodipodi:role="line"
     id="tspan935"
     x="1503.4066"
     y="1067.2118">N</tspan></text><text
   xml:space="preserve"
   style="font-style:normal;font-variant:normal;font-weight:normal;font-stretch:normal;font-size:53.3333px;line-height:1.25;font-family:sans-serif;-inkscape-font-specification:'sans-serif, Normal';font-variant-ligatures:normal;font-variant-caps:normal;font-variant-numeric:normal;font-variant-east-asian:normal;letter-spacing:0px;word-spacing:0px;fill:#000000;fill-opacity:1;stroke:#000000;stroke-opacity:1;"
   x="1505.1307"
   y="1163.7609"
   id="text941"><tspan
     sodipodi:role="line"
     id="tspan939"
     x="1505.1307"
     y="1163.7609">L</tspan></text></svg>
