<?xml version="1.0" encoding="UTF-8" standalone="no"?>
<svg
   inkscape:version="1.3.2 (091e20e, 2023-11-25, custom)"
   sodipodi:docname="icon.svg"
   xml:space="preserve"
   style="enable-background:new 0 0 1999.35 1999.35;"
   viewBox="0 0 1999.35 1999.35"
   y="0px"
   x="0px"
   id="Layer_1"
   version="1.1"
   xmlns:inkscape="http://www.inkscape.org/namespaces/inkscape"
   xmlns:sodipodi="http://sodipodi.sourceforge.net/DTD/sodipodi-0.dtd"
   xmlns="http://www.w3.org/2000/svg"
   xmlns:svg="http://www.w3.org/2000/svg"
   xmlns:rdf="http://www.w3.org/1999/02/22-rdf-syntax-ns#"
   xmlns:cc="http://creativecommons.org/ns#"
   xmlns:dc="http://purl.org/dc/elements/1.1/"><metadata
   id="metadata41"><rdf:RDF><cc:Work
       rdf:about=""><dc:format>image/svg+xml</dc:format><dc:type
         rdf:resource="http://purl.org/dc/dcmitype/StillImage" /></cc:Work></rdf:RDF></metadata><defs
   id="defs39" /><sodipodi:namedview
   inkscape:current-layer="Layer_1"
   inkscape:window-maximized="1"
   inkscape:window-y="-8"
   inkscape:window-x="1672"
   inkscape:cy="1046.0014"
   inkscape:cx="97.529267"
   inkscape:zoom="0.20506665"
   showgrid="false"
   id="namedview37"
   inkscape:window-height="987"
   inkscape:window-width="1680"
   inkscape:pageshadow="2"
   inkscape:pageopacity="0"
   guidetolerance="10"
   gridtolerance="10"
   objecttolerance="10"
   borderopacity="1"
   bordercolor="#666666"
   pagecolor="#ffffff"
   inkscape:showpageshadow="2"
   inkscape:pagecheckerboard="0"
   inkscape:deskcolor="#d1d1d1" />





<path
   style="fill:none;stroke:#000000;stroke-width:3;stroke-linecap:butt;stroke-linejoin:miter;stroke-opacity:1;stroke-dasharray:none"
   d="m 997.23675,516.90511 346.22885,156.04683 73.147,68.27049 c 0,0 117.5473,218.5599 187.7438,363.29647 7.2338,14.9152 2.3938,37.4842 -9.7529,48.7647 -118.0829,109.662 -136.541,124.3498 -136.541,124.3498 l -9.7529,29.2587 c 0,0 -192.1875,169.8405 -429.1288,375.4878 -11.6783,10.1359 -33.0264,10.3268 -46.32636,2.4382 -210.2601,-124.7122 -209.07318,-125.7708 -326.72305,-190.1821 -34.81528,-19.0608 -59.67979,-53.9602 -80.46164,-87.7763 -82.2698,-133.869 -83.31845,-135.0158 -190.18207,-329.1613 -12.528,-22.7604 -3.68127,-42.2168 19.50585,-29.2588 210.83793,117.8254 211.65808,116.0171 346.2289,190.1821 28.1859,15.5339 52.51871,40.2058 68.27048,68.2705 111.50334,198.664 111.73526,197.9795 197.49679,338.9142 6.8125,11.1952 4.8764,39.0117 4.8764,39.0117"
   id="path1"
   sodipodi:nodetypes="cccssccsssssssssc" /><path
   style="fill:none;stroke:#000000;stroke-width:3;stroke-linecap:butt;stroke-linejoin:miter;stroke-opacity:1;stroke-dasharray:none"
   d="m 997.54153,517.20989 c 0,0 -27.23313,-0.96148 -36.87825,7.00992 -110.91106,91.66463 -141.41744,121.91158 -141.41744,121.91158 l -24.38232,2.43823 -420.08998,397.00078"
   id="path3"
   sodipodi:nodetypes="csccc" /><path
   style="fill:none;stroke:#000000;stroke-width:3;stroke-linecap:butt;stroke-linejoin:miter;stroke-opacity:1;stroke-dasharray:none"
   d="m 821.68407,644.91228 364.51563,180.42914 53.6411,56.07933 215.7835,396.21265"
   id="path4" /><path
   style="fill:none;stroke:#000000;stroke-width:3;stroke-linecap:butt;stroke-linejoin:miter;stroke-opacity:1;stroke-dasharray:none"
   d="m 1158.16,588.83295 186.5248,-164.58064 180.4291,81.68076 -182.8674,167.01887 8.5338,6.09558 179.2101,-163.36152 -7.3147,-9.75293 45.1073,82.89988 -160.9233,143.85567"
   id="path5" /><path
   style="fill:none;stroke:#000000;stroke-width:3;stroke-linecap:butt;stroke-linejoin:miter;stroke-opacity:1;stroke-dasharray:none"
   d="m 1277.6334,523.00069 31.697,15.84851 -32.9161,31.69701 -35.3544,-18.28674 z"
   id="path6" /><path
   style="fill:none;stroke:#000000;stroke-width:3;stroke-linecap:butt;stroke-linejoin:miter;stroke-opacity:1;stroke-dasharray:none"
   d="m 1375.1627,565.66975 30.4778,17.06762 -35.3543,30.4779 -32.9161,-15.84851 z"
   id="path7"
   sodipodi:nodetypes="ccccc" /><path
   style="fill:#000000;fill-opacity:1;fill-rule:evenodd;stroke-width:1.1547"
   id="path8"
   sodipodi:type="arc"
   sodipodi:cx="1197.9819"
   sodipodi:cy="-208.18915"
   sodipodi:rx="9.7529268"
   sodipodi:ry="12.191158"
   sodipodi:start="2.4065996"
   sodipodi:end="2.4059364"
   sodipodi:open="true"
   sodipodi:arc-type="arc"
   d="m 1190.7469,-200.01398 a 9.7529268,12.191158 0 0 1 0.6937,-17.21765 9.7529268,12.191158 0 0 1 13.7742,0.86431 9.7529268,12.191158 0 0 1 -0.6891,17.21794 9.7529268,12.191158 0 0 1 -13.7745,-0.8586"
   transform="rotate(50.396016)" /><path
   style="fill:#000000;fill-opacity:1;fill-rule:evenodd;stroke-width:1.1547"
   id="path9"
   sodipodi:type="arc"
   sodipodi:cx="1200.3917"
   sodipodi:cy="-142.5074"
   sodipodi:rx="9.7529268"
   sodipodi:ry="12.191158"
   sodipodi:start="2.4065996"
   sodipodi:end="2.4059364"
   sodipodi:open="true"
   sodipodi:arc-type="arc"
   d="m 1193.1567,-134.33223 a 9.7529268,12.191158 0 0 1 0.6937,-17.21765 9.7529268,12.191158 0 0 1 13.7742,0.86431 9.7529268,12.191158 0 0 1 -0.6891,17.21793 9.7529268,12.191158 0 0 1 -13.7745,-0.85859"
   transform="rotate(51.453658)" /><path
   style="fill:none;stroke:#000000;stroke-width:3;stroke-linecap:butt;stroke-linejoin:miter;stroke-opacity:1;stroke-dasharray:none"
   d="m 775.35767,928.96627 c 11.19969,11.4755 5.20768,33.91882 -7.31469,47.54551 -27.72823,30.17352 -75.22296,41.36582 -93.87192,23.1632 -16.36483,-15.97308 8.06733,-47.60565 25.60143,-60.95579 20.21219,-15.3892 57.8417,-27.93337 75.58518,-9.75292 z"
   id="path10"
   sodipodi:nodetypes="assaa" /><path
   style="fill:none;stroke:#000000;stroke-width:3;stroke-linecap:butt;stroke-linejoin:miter;stroke-opacity:1;stroke-dasharray:none"
   d="m 774.13856,927.74715 c 0,0 16.17648,13.9364 16.99366,23.59422 1.19532,14.1269 -8.08217,28.80927 -18.70507,38.19821 -20.50373,18.12202 -50.62267,31.32832 -77.60507,26.77202 -8.87431,-1.4985 -21.21726,-16.69787 -21.21726,-16.69787"
   id="path11"
   sodipodi:nodetypes="caaac" /><path
   style="fill:none;stroke:#000000;stroke-width:3;stroke-linecap:butt;stroke-linejoin:miter;stroke-opacity:1;stroke-dasharray:none"
   d="m 799.73999,1339.8083 -75.58518,-41.4499 129.22627,234.0702 84.119,51.2029 z"
   id="path12" /><path
   style="fill:none;stroke:#000000;stroke-width:3;stroke-linecap:butt;stroke-linejoin:miter;stroke-opacity:1;stroke-dasharray:none"
   d="m 755.85182,1315.426 114.59689,204.8114 46.3264,25.6015"
   id="path13" /><path
   style="fill:none;stroke:#000000;stroke-width:3;stroke-linecap:butt;stroke-linejoin:miter;stroke-opacity:1;stroke-dasharray:none"
   d="M 1346.5144,679.29152 729.29013,1231.0004"
   id="path14"
   sodipodi:nodetypes="cc" /><path
   style="fill:none;stroke:#000000;stroke-width:3;stroke-linecap:butt;stroke-linejoin:miter;stroke-opacity:1;stroke-dasharray:none"
   d="M 1410.3057,737.91058 793.08147,1284.4471"
   id="path15"
   sodipodi:nodetypes="cc" /></svg>
