<?xml version="1.0" encoding="UTF-8" standalone="no"?>
<svg
   version="1.1"
   id="Layer_1"
   x="0px"
   y="0px"
   viewBox="0 0 1999.35 1999.35"
   style="enable-background:new 0 0 1999.35 1999.35;"
   xml:space="preserve"
   sodipodi:docname="icon.svg"
   inkscape:version="1.2 (dc2aedaf03, 2022-05-15)"
   xmlns:inkscape="http://www.inkscape.org/namespaces/inkscape"
   xmlns:sodipodi="http://sodipodi.sourceforge.net/DTD/sodipodi-0.dtd"
   xmlns="http://www.w3.org/2000/svg"
   xmlns:svg="http://www.w3.org/2000/svg"
   xmlns:rdf="http://www.w3.org/1999/02/22-rdf-syntax-ns#"
   xmlns:cc="http://creativecommons.org/ns#"
   xmlns:dc="http://purl.org/dc/elements/1.1/"><metadata
   id="metadata41"><rdf:RDF><cc:Work
       rdf:about=""><dc:format>image/svg+xml</dc:format><dc:type
         rdf:resource="http://purl.org/dc/dcmitype/StillImage" /></cc:Work></rdf:RDF></metadata><defs
   id="defs39" /><sodipodi:namedview
   inkscape:document-rotation="0"
   pagecolor="#ffffff"
   bordercolor="#666666"
   borderopacity="1"
   objecttolerance="10"
   gridtolerance="10"
   guidetolerance="10"
   inkscape:pageopacity="0"
   inkscape:pageshadow="2"
   inkscape:window-width="1680"
   inkscape:window-height="987"
   id="namedview37"
   showgrid="false"
   inkscape:zoom="0.20506665"
   inkscape:cx="1604.3564"
   inkscape:cy="312.09365"
   inkscape:window-x="1672"
   inkscape:window-y="-8"
   inkscape:window-maximized="1"
   inkscape:current-layer="Layer_1"
   inkscape:showpageshadow="2"
   inkscape:pagecheckerboard="0"
   inkscape:deskcolor="#d1d1d1" />





<path
   sodipodi:nodetypes="ccccccccsscc"
   id="path857"
   d="m 1657.8929,477.27769 19.1516,719.51151 m -15.5691,55.1196 -172.1252,245.2638 -651.88324,120.0681 -164.51502,-176.2458 -330.75015,-122.368 m 8.18943,14.0759 -1.72409,-762.15659 c -0.077,-34.04853 14.64474,-64.08828 42.82144,-67.81332 l 934.33893,-123.52224 342.4608,110.33433"
   style="fill:none;stroke:#000000;stroke-width:30;stroke-linecap:butt;stroke-linejoin:miter;stroke-miterlimit:4;stroke-dasharray:none;stroke-opacity:1" /><path
   sodipodi:nodetypes="cc"
   id="path859"
   d="m 349.35154,1256.7327 324.23969,101.5331"
   style="fill:none;stroke:#000000;stroke-width:30;stroke-linecap:butt;stroke-linejoin:miter;stroke-miterlimit:4;stroke-dasharray:none;stroke-opacity:1" /><path
   sodipodi:nodetypes="csc"
   id="path863"
   d="m 673.46897,1439.2441 10.1264,-776.23376 c 0.78438,-60.12589 46.80929,-70.32372 46.80929,-70.32372"
   style="fill:none;stroke:#000000;stroke-width:30;stroke-linecap:butt;stroke-linejoin:miter;stroke-miterlimit:4;stroke-dasharray:none;stroke-opacity:1" /><path
   id="path865"
   d="M 1643.7251,481.36081 727.79729,593.28927"
   style="fill:none;stroke:#000000;stroke-width:30;stroke-linecap:butt;stroke-linejoin:miter;stroke-miterlimit:4;stroke-dasharray:none;stroke-opacity:1"
   sodipodi:nodetypes="cc" /><path
   sodipodi:nodetypes="cc"
   id="path867"
   d="M 1688.8759,1181.3406 678.31543,1359.3144"
   style="fill:none;stroke:#000000;stroke-width:30;stroke-linecap:butt;stroke-linejoin:miter;stroke-miterlimit:4;stroke-dasharray:none;stroke-opacity:1" /><path
   sodipodi:nodetypes="ccc"
   id="path877"
   d="M 836.29834,1618.4017 530.82036,1508.5469 c -62.1538,-62.7085 28.63978,28.3924 -184.73731,-185.5394"
   style="fill:none;stroke:#000000;stroke-width:30;stroke-linecap:butt;stroke-linejoin:miter;stroke-miterlimit:4;stroke-dasharray:none;stroke-opacity:1" /><path
   transform="matrix(0.99113854,0.13283219,-0.12924749,0.99161237,0,0)"
   d="m 1657.0685,582.51083 a 56.291584,75.089523 0 0 1 -79.4815,-5.42813 56.291584,75.089523 0 0 1 4.0238,-106.02651 56.291584,75.089523 0 0 1 79.4861,5.30701 56.291584,75.089523 0 0 1 -3.933,106.03257"
   sodipodi:arc-type="arc"
   sodipodi:open="true"
   sodipodi:end="0.83455187"
   sodipodi:start="0.83683651"
   sodipodi:ry="75.089523"
   sodipodi:rx="56.291584"
   sodipodi:cy="526.75476"
   sodipodi:cx="1619.3635"
   sodipodi:type="arc"
   id="path881"
   style="fill:none;fill-rule:evenodd;stroke:#000000;stroke-width:20.22116875;stroke-miterlimit:4;stroke-dasharray:none;stroke-opacity:1" /><text
   id="text962"
   y="1244.7931"
   x="877.56189"
   style="font-style:normal;font-weight:normal;font-size:40px;line-height:1.25;font-family:sans-serif;letter-spacing:0px;word-spacing:0px;fill:#000000;fill-opacity:1;stroke:none;stroke-width:1.0110551;stroke-dasharray:none"
   xml:space="preserve"><tspan
     y="1244.7931"
     x="877.56189"
     id="tspan960"
     sodipodi:role="line" /></text><path
   style="stroke-width:1.63205"
   d="m 926.50049,675.71758 c -1.83739,2.14484 -2.14109,2.74984 -1.70122,3.3998 0.29732,0.44244 2.96486,3.08635 3.67769,3.64543 0.32856,0.257 0.59513,0.57398 0.59142,0.70311 -0.007,0.12961 0.46615,0.8233 1.04432,1.54148 0.57625,0.7201 1.04552,1.429 1.04139,1.57775 -0.008,0.1493 0.15999,0.34317 0.36439,0.43048 0.20621,0.0869 0.61052,0.61067 0.8998,1.1634 1.43759,2.74381 2.10731,4.15747 2.09955,4.43696 -0.009,0.17055 0.2139,0.56761 0.48712,0.88192 0.27313,0.31597 0.56385,1.1126 0.64643,1.77041 0.0804,0.65811 0.31049,1.26555 0.50522,1.34946 0.19652,0.0837 0.48604,0.86583 0.64431,1.73657 0.15828,0.87072 0.39751,1.70458 0.53198,1.85475 0.13494,0.1501 0.33422,1.34 0.44622,2.64425 0.112,1.30427 0.33821,2.77646 0.50366,3.27341 0.41082,1.23057 0.10049,11.91553 -0.39254,13.52943 -0.19958,0.64916 -0.5018,2.10349 -0.67314,3.2317 -0.17119,1.12817 -0.51139,2.44346 -0.7544,2.92357 -0.24497,0.4804 -0.45669,1.24051 -0.47073,1.69023 -0.007,0.44881 -0.27406,1.24328 -0.57711,1.76518 a 6.0853173,7.3005297 43.400747 0 0 -0.77321,2.01673 c -0.12132,0.58995 -0.4575,1.3985 -0.74581,1.7993 -0.28821,0.39919 -0.52856,0.90168 -0.53463,1.11255 -0.0205,0.33323 -0.60624,1.64763 -1.49792,3.30013 -0.132,0.24327 -0.46515,0.90167 -0.74154,1.46178 -0.27624,0.56008 -0.69142,1.24897 -0.92258,1.53197 -0.23284,0.28162 -0.80725,1.19521 -1.27866,2.03111 -0.47131,0.83424 -0.95211,1.53489 -1.06842,1.55606 -0.11646,0.0209 -0.33741,0.36119 -0.49034,0.75742 -0.15304,0.39789 -0.39532,0.73955 -0.53944,0.76176 -0.14407,0.0217 -0.33986,0.26554 -0.43553,0.54231 -0.0967,0.27529 -0.99407,1.46973 -1.99346,2.65385 -1.00077,1.18273 -1.82453,2.37723 -1.83215,2.65182 -0.0241,0.90374 3.47619,4.03775 4.35675,3.90213 0.46313,-0.0714 3.78493,-3.66868 3.79726,-4.1116 0.008,-0.13951 0.25606,-0.42192 0.5601,-0.62823 0.30404,-0.20633 0.55699,-0.51383 0.56164,-0.6838 0.009,-0.17053 0.20221,-0.53076 0.43641,-0.80283 0.92102,-1.06952 2.11068,-2.8835 2.12036,-3.2349 0.0133,-0.20527 0.1822,-0.3975 0.3933,-0.43002 0.21123,-0.0322 0.53158,-0.41875 0.71324,-0.85685 0.18151,-0.4381 0.64642,-1.33321 1.03134,-1.98979 0.385,-0.65494 0.90801,-1.65177 1.16326,-2.2135 0.25689,-0.56199 0.62726,-1.22934 0.82674,-1.48304 a 3.2333836,3.8790768 43.400747 0 0 0.58022,-1.1749 c 0.12183,-0.39143 0.38408,-0.92009 0.58338,-1.17375 0.19959,-0.25532 0.50806,-0.97824 0.68506,-1.60605 0.17891,-0.62973 0.51358,-1.41362 0.74435,-1.74211 0.23249,-0.33039 0.43432,-0.90669 0.45133,-1.28199 0.0239,-0.37612 0.23211,-1.08059 0.48181,-1.56662 0.24987,-0.48605 0.59106,-1.61758 0.75779,-2.51399 0.16651,-0.89797 0.48026,-1.92279 0.69737,-2.27683 0.21509,-0.35537 0.49505,-1.51656 0.61924,-2.58053 0.12504,-1.06411 0.4513,-2.51723 0.72372,-3.23134 0.72918,-1.90416 1.0771,-14.294 0.45088,-16.20747 -0.22955,-0.71166 -0.47488,-2.08815 -0.54234,-3.06239 -0.0689,-0.97237 -0.29078,-2.08068 -0.49369,-2.46118 -0.20472,-0.38023 -0.46512,-1.38658 -0.58169,-2.23443 -0.11629,-0.84955 -0.39402,-1.8874 -0.61548,-2.30575 -0.22295,-0.41808 -0.40045,-0.95059 -0.39386,-1.1827 0.0147,-0.23476 -0.22116,-0.84315 -0.50515,-1.35601 -0.28563,-0.51259 -0.51111,-1.19071 -0.50228,-1.5078 1.6e-4,-0.31433 -0.22339,-0.75816 -0.51534,-0.98336 -0.29195,-0.22519 -0.52549,-0.61887 -0.51828,-0.87386 0.0164,-0.25613 -0.28236,-0.86789 -0.64178,-1.36261 -0.35941,-0.49474 -0.64987,-1.07006 -0.64391,-1.27929 0.0127,-0.2101 -0.0963,-0.43112 -0.22591,-0.49252 -0.12915,-0.0614 -0.47207,-0.60429 -0.76007,-1.20607 -0.28635,-0.60199 -0.94458,-1.60078 -1.46354,-2.22064 -0.51731,-0.62017 -0.9366,-1.24887 -0.93232,-1.39762 a 0.24585636,0.29495285 43.400747 0 0 -0.26093,-0.22834 c -0.1457,0.0219 -0.48953,-0.38519 -0.76208,-0.90468 -0.27238,-0.51953 -0.92376,-1.35825 -1.44734,-1.86512 -0.52371,-0.50521 -0.94933,-1.01741 -0.94613,-1.13836 0.007,-0.11982 -0.18208,-0.19002 -0.41118,-0.15473 a 0.61240584,0.73470072 43.400747 0 1 -0.56461,-0.32317 c -0.90806,-2.3941 -2.62398,-2.15583 -5.07323,0.70334 m -10.31444,11.97853 c -0.19276,0.25265 -0.5121,0.48574 -0.70861,0.516 -0.19637,0.0303 -0.44204,0.3122 -0.54538,0.62596 -0.10397,0.31386 -0.34573,0.59519 -0.5357,0.62447 -0.19128,0.0297 -0.49606,0.38236 -0.67682,0.78289 -0.18077,0.40053 -0.51651,0.75821 -0.74397,0.79327 -0.22906,0.0343 -0.41978,0.20778 -0.42441,0.38271 -0.011,0.17568 -0.22828,0.58688 -0.49646,0.91463 -0.46392,0.5662 -0.46512,0.60869 -0.0252,0.86802 0.2549,0.15115 0.46057,0.36848 0.45736,0.48453 -0.006,0.11645 0.26317,0.4412 0.59111,0.72106 0.90412,0.7705 2.39433,2.44835 2.83165,3.18823 0.21312,0.36264 0.53857,0.73403 0.72347,0.82435 0.18476,0.0903 0.32847,0.37744 0.32123,0.63569 -0.0168,0.26108 0.18033,0.72575 0.41591,1.03775 0.6775,0.89817 1.91005,3.21787 1.90949,3.59717 0.006,0.18801 0.2237,0.79717 0.49694,1.35238 0.27283,0.55363 0.48887,1.40081 0.48031,1.88224 -0.009,0.48149 0.18369,1.42831 0.42561,2.10549 0.63654,1.77519 0.37264,10.97525 -0.3671,12.84851 -0.27527,0.695 -0.50966,1.62295 -0.52184,2.061 -0.006,0.43889 -0.27045,1.34852 -0.57442,2.02029 a 10.400469,12.4774 43.400747 0 0 -0.76837,2.25522 c -0.11992,0.56853 -0.37812,1.11772 -0.57659,1.22315 -0.19862,0.10538 -0.45101,0.57238 -0.56333,1.03724 -0.11005,0.46288 -0.38859,1.02332 -0.61812,1.24418 -0.22937,0.22088 -0.60749,0.80477 -0.84132,1.30139 -0.78093,1.65822 -1.22118,2.37216 -2.23219,3.6199 -2.54316,3.13891 -2.97395,3.74559 -2.98674,4.21138 -0.01,0.49313 3.87274,4.19316 4.33249,4.12396 0.71176,-0.10518 5.19048,-5.92603 5.66217,-7.35438 0.10816,-0.32912 0.34804,-0.62158 0.53292,-0.65007 0.18508,-0.029 0.49929,-0.49354 0.69859,-1.032 0.19751,-0.53817 0.54308,-1.07641 0.76646,-1.19381 0.22168,-0.11884 0.41125,-0.43441 0.41869,-0.70083 0.0163,-0.26759 0.24972,-0.88799 0.53561,-1.37958 0.28736,-0.49184 0.62353,-1.27597 0.74746,-1.74262 0.12494,-0.46682 0.39108,-1.05789 0.59056,-1.31156 0.19941,-0.25532 0.462,-1.02488 0.58197,-1.71063 0.1207,-0.68583 0.41122,-1.48085 0.6456,-1.76596 0.23452,-0.28513 0.51554,-1.24792 0.62668,-2.13739 0.11091,-0.89104 0.40966,-2.01771 0.66427,-2.50447 0.5957,-1.13984 1.03581,-13.50645 0.50103,-14.08646 -0.17398,-0.18965 -0.43803,-1.23611 -0.58556,-2.32498 -0.14722,-1.08889 -0.41785,-2.13924 -0.60321,-2.33364 -0.18347,-0.19635 -0.40883,-0.83214 -0.49832,-1.41564 -0.09,-0.58344 -0.31632,-1.34115 -0.50074,-1.68543 -0.52673,-0.97998 -1.57215,-3.35619 -1.75965,-4.00107 -0.0933,-0.32253 -0.28566,-0.56631 -0.42634,-0.54465 -0.1408,0.0214 -0.43654,-0.41285 -0.65607,-0.9633 -0.21926,-0.55213 -0.57062,-1.0432 -0.78115,-1.09217 a 0.5840951,0.70073644 43.400747 0 1 -0.37251,-0.49268 0.74948938,0.89915926 43.400747 0 0 -0.32479,-0.56844 c -0.18328,-0.0906 -0.74118,-0.71258 -1.23913,-1.38289 -0.79181,-1.06448 -3.2714,-3.42809 -3.55308,-3.38471 -0.0557,0.009 -0.2588,0.22214 -0.4515,0.47641 m -14.19962,16.02068 c -0.0926,0.23724 -0.28135,0.4502 -0.42056,0.47163 -0.30759,0.048 -2.19416,2.13145 -2.20238,2.43382 -0.007,0.11981 -0.25596,0.4072 -0.56223,0.64155 -0.66943,0.5116 -0.80592,2.0234 -0.19548,2.16374 0.22185,0.0521 0.40124,0.223 0.39692,0.37991 -0.01,0.15766 0.31701,0.67212 0.71446,1.14473 2.20546,2.62066 2.98935,5.95668 2.18183,9.26765 -0.27375,1.11631 -0.58257,2.43003 -0.68915,2.92006 -0.10521,0.48817 -0.35454,0.97413 -0.553,1.07957 -0.19847,0.10536 -0.45691,0.54722 -0.57322,0.98012 -0.11643,0.43458 -0.4529,0.99093 -0.74815,1.23822 -0.29542,0.2473 -0.53975,0.59578 -0.54478,0.7772 -0.0114,0.18062 -0.25886,0.51835 -0.5652,0.75107 -1.17551,0.89877 0.79422,4.55179 2.32608,4.31583 0.12938,-0.0202 0.30587,0.19701 0.3924,0.48314 0.34349,1.12213 3.00522,-0.65169 3.57635,-2.3834 0.11621,-0.35315 0.45263,-0.80533 0.7467,-1.00524 0.29406,-0.19984 0.54019,-0.55354 0.54654,-0.78726 0.0147,-0.23477 0.26607,-0.77333 0.57614,-1.20029 0.31169,-0.42723 0.57354,-1.0502 0.58284,-1.38524 10e-4,-0.33239 0.27104,-0.95639 0.58111,-1.38336 0.31007,-0.42697 0.57358,-1.11041 0.58479,-1.51735 0.004,-0.40608 0.31529,-1.89902 0.6757,-3.31673 0.56555,-2.22562 0.61442,-2.7523 0.36996,-3.88809 a 57.305392,68.749039 43.400747 0 1 -0.57049,-3.39002 c -0.15878,-1.14245 -0.418,-2.13923 -0.57554,-2.21585 -0.15836,-0.0766 -0.36582,-0.5556 -0.46249,-1.06311 -0.21371,-1.10958 -1.34644,-3.03942 -1.85487,-3.15641 a 0.57962499,0.69537367 43.400747 0 1 -0.35448,-0.49549 c 0.0321,-1.16045 -3.00287,-2.83149 -3.38025,-1.86034 m -96.65287,19.15942 c -0.0773,0.19743 -0.65489,20.03091 -1.28621,44.07154 l -1.14558,43.71139 28.40996,-4.24086 c 15.62608,-2.33199 28.46354,-4.18729 28.52873,-4.12246 0.66747,0.6621 0.68318,1.9812 0.2195,18.64959 l -0.48501,17.4366 -0.61719,0.51659 c -0.55059,0.46077 -3.73191,0.99796 -28.76115,4.85317 -25.41015,3.91389 -28.15938,4.37804 -28.31914,4.78998 -0.0968,0.25095 -0.30748,4.91165 -0.45268,10.35536 -0.15173,5.44447 -0.20702,10.08156 -0.12187,10.3044 0.26405,0.69659 78.65166,-11.46847 79.13709,-12.28213 0.6479,-1.08768 2.79102,-81.01588 2.18166,-81.37284 -0.39116,-0.23106 -5.75743,0.52874 -28.53295,4.03684 -26.46103,4.07575 -28.06253,4.29474 -28.23486,3.87376 -0.25789,-0.62918 0.92025,-41.88646 1.20457,-42.20529 0.12748,-0.1451 12.88921,-2.24408 28.35987,-4.66607 25.62995,-4.01282 28.16955,-4.44958 28.63257,-4.92613 0.72819,-0.7534 1.35162,-21.02034 0.65118,-21.18422 -0.9197,-0.21314 -79.22288,12.0203 -79.36866,12.4008 m 100.44869,50.4391 c -0.0774,0.19907 -0.6107,18.43896 -1.1875,40.53124 l -1.04723,40.17112 79.92193,-12.31024 2.25009,-80.90653 -39.89923,6.07563 c -31.7754,4.8406 -39.92748,6.1516 -40.03806,6.43878 m 97.65143,-15.04109 c -0.2491,0.64217 -2.2315,80.24129 -2.0009,80.44012 0.3106,0.2679 19.8477,-2.65513 20.3655,-3.04736 0.3646,-0.27585 0.5227,-3.85137 1.2859,-29.0076 l 0.8697,-28.69287 0.6234,-0.56475 c 0.5754,-0.52151 1.9659,-0.7715 18.1589,-3.27058 l 17.5367,-2.70764 0.7918,0.47205 0.7904,0.47065 -0.7853,28.23884 c -0.7513,27.00973 -0.7646,28.25354 -0.2989,28.61146 0.7197,0.55315 19.3914,-2.30267 20.076,-3.07113 0.3988,-0.44711 0.543,-4.3948 1.4834,-40.4401 l 1.0424,-39.94579 -39.8991,6.07563 c -31.7755,4.84063 -39.9275,6.1516 -40.0399,6.43907 m 97.4183,-14.91569 c -0.4597,1.18238 -2.381,79.2797 -1.9627,79.83208 l 0.4073,0.53945 78.1621,-12.03921 0.3413,-0.66286 c 0.26,-0.50388 0.5873,-10.15965 1.3734,-40.42317 l 1.0341,-39.76061 -39.5898,6.02799 c -35.9224,5.47121 -39.6042,6.07249 -39.7657,6.48633 m 96.7964,-14.99728 c -0.077,0.19741 -0.6105,18.43727 -1.1858,40.52935 l -1.0489,40.17136 10.2878,-1.51461 10.2859,-1.51271 0.4147,-0.67742 c 0.3415,-0.56039 0.4859,-2.75694 0.8342,-12.65844 0.3906,-11.10582 0.4587,-12.03095 0.9369,-12.68885 l 0.5166,-0.70942 28.093,-4.32711 c 18.8442,-2.90256 28.2706,-4.44563 28.6293,-4.68966 0.5149,-0.34946 0.5461,-0.7644 0.8369,-11.19245 l 0.3011,-10.82677 -0.8387,-0.37207 c -0.808,-0.35889 -1.8929,-0.2032 -28.7113,4.12126 -23.3498,3.7658 -27.9184,4.44182 -28.1636,4.17038 -0.498,-0.54988 -0.4138,-8.26567 0.1019,-9.39973 l 0.4304,-0.94347 28.6233,-4.48043 c 25.0899,-3.92803 28.6577,-4.53615 28.9001,-4.92989 0.4983,-0.80913 0.7677,-20.15898 0.2836,-20.39365 -0.6626,-0.31944 -79.3522,11.87261 -79.5264,12.3242 m 97.2165,-14.86506 c -0.323,0.42406 -0.5743,6.79694 -1.5283,38.54939 -1.16,38.72213 -1.1882,41.13678 -0.4929,41.7409 0.471,0.40916 19.135,-2.33716 20.3937,-3.00288 l 0.7077,-0.37268 0.3445,-12.3828 c 0.303,-10.89216 0.3966,-12.44129 0.7861,-12.87557 a 12.158714,14.586758 43.400747 0 0 0.4917,-0.56721 c 0.026,-0.0399 12.8789,-2.11067 28.5585,-4.60227 l 28.509,-4.52955 0.3724,-11.04278 c 0.2249,-6.68615 0.2737,-11.18873 0.1233,-11.41133 -0.2207,-0.32405 -3.6973,0.16262 -28.5854,3.9961 -23.6151,3.63739 -28.4087,4.3139 -28.7765,4.05972 -0.3773,-0.26088 -0.4233,-0.94384 -0.3174,-4.75867 l 0.1247,-4.45407 0.8168,-0.53918 c 0.7156,-0.47314 4.262,-1.07146 28.9162,-4.86892 27.5021,-4.2361 28.1046,-4.34031 28.3957,-4.89779 0.389,-0.74672 0.9143,-19.11554 0.5731,-20.02483 l -0.2459,-0.65869 -39.3888,6.06701 c -36.3055,5.59209 -39.4193,6.1075 -39.7763,6.57586 m -331.99411,73.20184 c 0.56618,0.84695 -0.64873,35.03853 -1.26141,35.45352 -0.60969,0.41451 -34.73898,5.62907 -35.054,5.35537 -0.23873,-0.20736 0.8097,-35.14633 1.06353,-35.42629 0.63736,-0.70685 34.88106,-5.93579 35.25188,-5.3826 m 193.65481,-29.58587 0.677,0.0845 -0.9764,35.1167 -17.1556,2.71243 c -12.4465,1.96755 -17.2562,2.64331 -17.5201,2.46097 -0.2991,-0.20618 -0.2797,-3.25419 0.1124,-17.34503 0.5015,-18.03806 0.4466,-17.46647 1.7219,-17.97215 0.8618,-0.34104 32.3839,-5.15241 33.1408,-5.05742"
   fill="#1e100f"
   fill-rule="evenodd"
   id="path988" /><path
   style="fill:none;stroke:#000000;stroke-width:30;stroke-linecap:butt;stroke-linejoin:miter;stroke-dasharray:none;stroke-opacity:1"
   d="m 1657.9886,1261.1719 -1.0334,-81.9989"
   id="path582"
   sodipodi:nodetypes="cc" /><path
   sodipodi:nodetypes="cssc"
   id="path1619"
   d="M 424.25231,1355.361 V 594.92853 c 0,-34.04861 14.64474,-64.08828 42.82144,-67.81332 L 1401.4127,403.59297"
   style="fill:none;stroke:#000000;stroke-width:30;stroke-linecap:butt;stroke-linejoin:miter;stroke-miterlimit:4;stroke-dasharray:none;stroke-opacity:1" /><path
   style="fill:none;stroke:#000000;stroke-width:20.22110384;stroke-linecap:butt;stroke-linejoin:miter;stroke-opacity:1;stroke-dasharray:none"
   d="m 1588.5079,765.60474 29.2588,32.91613"
   id="path1621" /><path
   style="fill:none;stroke:#000000;stroke-width:20.22110384;stroke-linecap:butt;stroke-linejoin:miter;stroke-opacity:1;stroke-dasharray:none"
   d="m 1564.1256,798.52087 31.697,36.57347"
   id="path1623" /><path
   style="fill:none;stroke:#000000;stroke-width:20.22110384;stroke-linecap:butt;stroke-linejoin:miter;stroke-opacity:1;stroke-dasharray:none"
   d="m 1505.608,804.61645 -30.4778,45.10728"
   id="path1625" /><path
   style="fill:none;stroke:#000000;stroke-width:20.22110384;stroke-linecap:butt;stroke-linejoin:miter;stroke-opacity:1;stroke-dasharray:none"
   d="m 1483.664,780.23413 -29.2588,43.88817"
   id="path1627" /></svg>
