<?xml version="1.0" encoding="UTF-8" standalone="no"?>
<svg
   xmlns:dc="http://purl.org/dc/elements/1.1/"
   xmlns:cc="http://creativecommons.org/ns#"
   xmlns:rdf="http://www.w3.org/1999/02/22-rdf-syntax-ns#"
   xmlns:svg="http://www.w3.org/2000/svg"
   xmlns="http://www.w3.org/2000/svg"
   xmlns:sodipodi="http://sodipodi.sourceforge.net/DTD/sodipodi-0.dtd"
   xmlns:inkscape="http://www.inkscape.org/namespaces/inkscape"
   inkscape:version="1.0 (4035a4fb49, 2020-05-01)"
   sodipodi:docname="icon.svg"
   xml:space="preserve"
   style="enable-background:new 0 0 667 666;"
   viewBox="0 0 667 666"
   y="0px"
   x="0px"
   id="Layer_1"
   version="1.1"><metadata
   id="metadata319"><rdf:RDF><cc:Work
       rdf:about=""><dc:format>image/svg+xml</dc:format><dc:type
         rdf:resource="http://purl.org/dc/dcmitype/StillImage" /></cc:Work></rdf:RDF></metadata><defs
   id="defs317"><marker
     inkscape:isstock="true"
     style="overflow:visible"
     id="Arrow1Send"
     refX="0"
     refY="0"
     orient="auto"
     inkscape:stockid="Arrow1Send"><path
       transform="matrix(-0.2,0,0,-0.2,-1.2,0)"
       style="fill:#000000;fill-opacity:1;fill-rule:evenodd;stroke:#000000;stroke-width:1.00000003pt;stroke-opacity:1"
       d="M 0,0 5,-5 -12.5,0 5,5 Z"
       id="path4714"
       inkscape:connector-curvature="0" /></marker><clipPath
     id="clipPath69-0"><path
       d="m 409.441,126.252 v -43.63 h 147.796 v 43.63"
       id="path71-2"
       inkscape:connector-curvature="0" /></clipPath><clipPath
     id="clipPath101-1"><path
       d="m 409.441,126.252 v -43.63 h 147.796 v 43.63"
       id="path103-6"
       inkscape:connector-curvature="0" /></clipPath><clipPath
     id="clipPath69"><path
       d="m 409.441,126.252 v -43.63 h 147.796 v 43.63"
       id="path71"
       inkscape:connector-curvature="0" /></clipPath><clipPath
     id="clipPath101"><path
       d="m 409.441,126.252 v -43.63 h 147.796 v 43.63"
       id="path103"
       inkscape:connector-curvature="0" /></clipPath></defs><sodipodi:namedview
   inkscape:document-rotation="0"
   inkscape:current-layer="Layer_1"
   inkscape:window-maximized="1"
   inkscape:window-y="-8"
   inkscape:window-x="-8"
   inkscape:cy="389.85464"
   inkscape:cx="364.36183"
   inkscape:zoom="0.70870873"
   showgrid="false"
   id="namedview315"
   inkscape:window-height="987"
   inkscape:window-width="1680"
   inkscape:pageshadow="2"
   inkscape:pageopacity="0"
   guidetolerance="10"
   gridtolerance="10"
   objecttolerance="10"
   borderopacity="1"
   bordercolor="#666666"
   pagecolor="#ffffff" />
<style
   id="style2"
   type="text/css">
	.st0{fill:none;stroke:#000000;stroke-width:2;stroke-linecap:round;stroke-linejoin:round;stroke-miterlimit:10;}
</style>


<g
   id="g890"><path
     sodipodi:nodetypes="sssssssss"
     id="path879"
     d="M 511.37377,127.06747 410.83905,564.07742 c -2.92998,12.73618 -11.81262,40.68665 -22.51047,33.92315 L 169.7888,459.83336 c -8.56641,-5.41594 -12.76311,-38.72989 -10.37982,-48.93078 L 243.48484,51.04374 c 3.19827,-13.689144 26.20824,-19.215801 39.27677,-14.895187 L 491.37063,105.1172 c 10.06145,3.32643 22.42717,11.41336 20.00314,21.95027 z"
     style="fill:none;stroke:#000000;stroke-width:6;stroke-linecap:butt;stroke-linejoin:miter;stroke-miterlimit:4;stroke-dasharray:none;stroke-opacity:1" /><path
     sodipodi:nodetypes="cssssssssc"
     id="path883"
     d="m 415.12503,595.00369 25.51929,1.15095 c 12.06351,0.54408 21.64165,-5.89764 26.92149,-29.63136 l 95.89543,-431.06566 c 1.63301,-7.34066 -3.12746,-12.78397 -32.53052,-20.45974 l -32.59445,-8.5089 c -11.05292,-2.88541 29.38608,5.90643 23.33653,32.49619 L 421.19156,580.63345 c -1.99531,8.77006 -9.80247,19.02899 -18.51126,18.34322 l -13.43907,-1.05826"
     style="fill:none;stroke:#000000;stroke-width:6;stroke-linecap:butt;stroke-linejoin:miter;stroke-miterlimit:4;stroke-dasharray:none;stroke-opacity:1" /><path
     sodipodi:nodetypes="csc"
     id="path885"
     d="M 519.20352,125.22775 416.494,573.57837 c -1.9215,8.38779 -6.30235,19.07494 -16.99486,18.87235"
     style="fill:none;stroke:#000000;stroke-width:3;stroke-linecap:butt;stroke-linejoin:miter;stroke-miterlimit:4;stroke-dasharray:none;stroke-opacity:1" /><path
     sodipodi:nodetypes="sssss"
     id="path889"
     d="m 265.60123,428.16017 24.32047,15.17056 c 1.39901,0.87268 -1.80507,4.79832 -3.20807,3.93205 l -23.99125,-14.81307 c -1.40474,-0.86734 1.4781,-5.1633 2.87885,-4.28954 z"
     style="fill:#000000;fill-opacity:1;stroke:#000000;stroke-width:6;stroke-linecap:butt;stroke-linejoin:miter;stroke-miterlimit:4;stroke-dasharray:none;stroke-opacity:1" /><path
     style="fill:none;stroke:#000000;stroke-width:6;stroke-linecap:butt;stroke-linejoin:miter;stroke-opacity:1;stroke-miterlimit:4;stroke-dasharray:none"
     d="m 546.76131,220.50046 12.97062,37.41523 -6.98418,3.49209 5.48757,25.94123 7.48305,-1.99548 -6.48531,33.42428 -4.9887,-0.49887 -1.99548,7.48305 5.98644,2.49435 -2.49435,7.98191 h -5.48757 l -1.99548,8.48079 5.98644,2.49435 -1.99548,6.98418 -5.98644,-1.99548 -1.99548,10.47626 6.48531,0.99774 -21.95027,46.3949 -30.92993,26.4401"
     id="path874" /><path
     style="fill:none;stroke:#000000;stroke-width:5.4;stroke-linecap:round;stroke-linejoin:miter;stroke-opacity:1;stroke-miterlimit:4;stroke-dasharray:none"
     d="M 544.26696,321.27216 H 526.30765"
     id="path876" /><path
     id="path878"
     d="M 540.52544,339.23147 H 522.56613"
     style="fill:none;stroke:#000000;stroke-width:5.4;stroke-linecap:round;stroke-linejoin:miter;stroke-miterlimit:4;stroke-dasharray:none;stroke-opacity:1" /><path
     style="fill:none;stroke:#000000;stroke-width:5.4;stroke-linecap:round;stroke-linejoin:miter;stroke-miterlimit:4;stroke-dasharray:none;stroke-opacity:1"
     d="M 536.53448,357.56494 H 518.57517"
     id="path880" /></g></svg>
