<?xml version="1.0" encoding="UTF-8" standalone="no"?>
<svg
   xmlns:dc="http://purl.org/dc/elements/1.1/"
   xmlns:cc="http://creativecommons.org/ns#"
   xmlns:rdf="http://www.w3.org/1999/02/22-rdf-syntax-ns#"
   xmlns:svg="http://www.w3.org/2000/svg"
   xmlns="http://www.w3.org/2000/svg"
   xmlns:sodipodi="http://sodipodi.sourceforge.net/DTD/sodipodi-0.dtd"
   xmlns:inkscape="http://www.inkscape.org/namespaces/inkscape"
   inkscape:version="1.0 (4035a4fb49, 2020-05-01)"
   sodipodi:docname="icon.svg"
   xml:space="preserve"
   style="enable-background:new 0 0 667 666;"
   viewBox="0 0 667 666"
   y="0px"
   x="0px"
   id="Layer_1"
   version="1.1"><metadata
   id="metadata319"><rdf:RDF><cc:Work
       rdf:about=""><dc:format>image/svg+xml</dc:format><dc:type
         rdf:resource="http://purl.org/dc/dcmitype/StillImage" /></cc:Work></rdf:RDF></metadata><defs
   id="defs317"><marker
     inkscape:isstock="true"
     style="overflow:visible"
     id="Arrow1Send"
     refX="0"
     refY="0"
     orient="auto"
     inkscape:stockid="Arrow1Send"><path
       transform="matrix(-0.2,0,0,-0.2,-1.2,0)"
       style="fill:#000000;fill-opacity:1;fill-rule:evenodd;stroke:#000000;stroke-width:1.00000003pt;stroke-opacity:1"
       d="M 0,0 5,-5 -12.5,0 5,5 Z"
       id="path4714"
       inkscape:connector-curvature="0" /></marker><clipPath
     id="clipPath69-0"><path
       d="m 409.441,126.252 v -43.63 h 147.796 v 43.63"
       id="path71-2"
       inkscape:connector-curvature="0" /></clipPath><clipPath
     id="clipPath101-1"><path
       d="m 409.441,126.252 v -43.63 h 147.796 v 43.63"
       id="path103-6"
       inkscape:connector-curvature="0" /></clipPath><clipPath
     id="clipPath69"><path
       d="m 409.441,126.252 v -43.63 h 147.796 v 43.63"
       id="path71"
       inkscape:connector-curvature="0" /></clipPath><clipPath
     id="clipPath101"><path
       d="m 409.441,126.252 v -43.63 h 147.796 v 43.63"
       id="path103"
       inkscape:connector-curvature="0" /></clipPath></defs><sodipodi:namedview
   inkscape:document-rotation="0"
   inkscape:current-layer="Layer_1"
   inkscape:window-maximized="1"
   inkscape:window-y="-8"
   inkscape:window-x="-8"
   inkscape:cy="267.33966"
   inkscape:cx="232.82141"
   inkscape:zoom="1.0022655"
   showgrid="false"
   id="namedview315"
   inkscape:window-height="987"
   inkscape:window-width="1680"
   inkscape:pageshadow="2"
   inkscape:pageopacity="0"
   guidetolerance="10"
   gridtolerance="10"
   objecttolerance="10"
   borderopacity="1"
   bordercolor="#666666"
   pagecolor="#ffffff" />
<style
   id="style2"
   type="text/css">
	.st0{fill:none;stroke:#000000;stroke-width:2;stroke-linecap:round;stroke-linejoin:round;stroke-miterlimit:10;}
</style>


<path
   style="stroke-width:1.48028"
   id="path2"
   fill-rule="evenodd"
   fill="#1e100f"
   d="m 192.89998,236.56882 c -1.61499,1.69344 -1.87552,2.20118 -1.45956,2.85399 0.28125,0.44408 2.77109,3.22259 3.43278,3.83099 0.30494,0.27976 0.55511,0.60543 0.55511,0.72237 0,0.11694 0.44409,0.81415 0.98735,1.54838 0.54178,0.7357 0.98587,1.44623 0.98587,1.58094 0,0.13471 0.15395,0.33455 0.34195,0.44261 0.18947,0.10802 0.5699,0.64096 0.84672,1.18422 1.37518,2.69709 2.01911,4.07671 2.01911,4.32984 0,0.15396 0.20871,0.54623 0.4648,0.87041 0.25609,0.32566 0.54031,1.09097 0.63209,1.70085 0.0903,0.60988 0.31382,1.19459 0.49293,1.29821 0.1806,0.1036 0.46334,0.8556 0.62913,1.66976 0.16578,0.81416 0.40412,1.60611 0.52994,1.76155 0.12583,0.15542 0.33751,1.26563 0.47221,2.46763 0.1347,1.20198 0.37747,2.57273 0.5403,3.0479 0.40413,1.17684 0.39228,10.85198 -0.0148,12.25085 -0.16431,0.56251 -0.40263,1.84296 -0.52994,2.84511 -0.1273,1.00215 -0.40264,2.15086 -0.61136,2.55349 -0.21019,0.40264 -0.38339,1.06432 -0.38487,1.4714 -10e-4,0.40708 -0.21761,1.09245 -0.47962,1.5247 a 6.0454865,6.0454865 0 0 0 -0.65131,1.72601 c -0.0962,0.51958 -0.38044,1.20791 -0.63209,1.53209 -0.25165,0.32271 -0.45741,0.74608 -0.45741,0.93703 0,0.30049 -0.50922,1.41367 -1.27749,2.79181 -0.11249,0.2028 -0.39968,0.75496 -0.63652,1.22568 -0.23685,0.47073 -0.59655,1.03917 -0.79935,1.26416 -0.20428,0.22354 -0.70313,0.97404 -1.11021,1.66829 -0.40709,0.69278 -0.826,1.26268 -0.93111,1.26564 -0.10514,10e-4 -0.29754,0.28126 -0.42632,0.62024 -0.12879,0.34047 -0.34047,0.61728 -0.47072,0.61728 -0.13027,0 -0.30199,0.19392 -0.38192,0.43224 -0.0815,0.23685 -0.86597,1.19756 -1.74378,2.13458 -0.87929,0.93554 -1.59722,1.9066 -1.59722,2.15529 0,0.8186 3.25958,4.15961 4.05597,4.15961 0.41893,0 3.34545,-2.80663 3.34545,-3.20779 0,-0.12582 0.22204,-0.34786 0.49293,-0.49293 0.2709,-0.14507 0.49294,-0.38931 0.49294,-0.54326 0,-0.15395 0.17023,-0.45445 0.376,-0.66909 0.80971,-0.84377 1.84443,-2.32702 1.84443,-2.64527 0,-0.18504 0.15542,-0.33603 0.34639,-0.33603 0.19095,0 0.47221,-0.30641 0.62615,-0.67944 0.15395,-0.37305 0.55364,-1.12206 0.8867,-1.66533 0.33307,-0.54179 0.78307,-1.37518 1.00067,-1.85035 0.21908,-0.47518 0.53882,-1.03028 0.7135,-1.23308 a 3.2122198,3.2122198 0 0 0 0.49737,-0.98736 c 0.10063,-0.33898 0.32566,-0.78307 0.50035,-0.98586 0.17467,-0.20429 0.43668,-0.81861 0.58175,-1.36483 0.14654,-0.54771 0.43076,-1.21384 0.63208,-1.48029 0.2028,-0.26792 0.37154,-0.76382 0.37747,-1.10281 0.004,-0.33898 0.18356,-0.95034 0.3982,-1.35742 0.21463,-0.40708 0.4959,-1.38851 0.62467,-2.18045 0.12879,-0.79345 0.38784,-1.68161 0.57583,-1.97324 0.18653,-0.29309 0.41152,-1.31004 0.49738,-2.26039 0.0873,-0.95033 0.34639,-2.22634 0.57583,-2.83771 0.61432,-1.62979 0.61729,-12.85035 0.004,-14.6785 -0.22648,-0.67946 -0.48405,-1.96583 -0.56991,-2.8614 -0.0873,-0.89409 -0.31678,-1.93325 -0.51069,-2.30776 -0.19541,-0.37452 -0.45742,-1.32633 -0.58472,-2.11385 -0.12731,-0.78899 -0.4056,-1.77191 -0.61728,-2.18342 -0.21316,-0.41152 -0.38783,-0.92074 -0.38783,-1.13094 0,-0.21168 -0.22205,-0.79788 -0.49294,-1.30413 -0.27237,-0.50626 -0.49441,-1.15462 -0.49441,-1.44181 0,-0.28569 -0.22204,-0.72089 -0.49294,-0.96661 -0.27089,-0.24573 -0.49293,-0.63653 -0.49293,-0.86746 0,-0.23092 -0.2783,-0.82895 -0.61728,-1.32929 -0.33899,-0.50034 -0.61729,-1.06433 -0.61729,-1.2538 0,-0.18948 -0.0977,-0.4056 -0.2176,-0.47961 -0.11989,-0.0741 -0.44408,-0.61581 -0.7209,-1.20348 -0.27533,-0.58768 -0.89852,-1.58835 -1.38554,-2.22487 -0.48554,-0.63652 -0.88226,-1.26712 -0.88226,-1.40183 a 0.24424713,0.24424713 0 0 0 -0.24276,-0.24425 c -0.13174,0 -0.45445,-0.41891 -0.71498,-0.92962 -0.26052,-0.51069 -0.87336,-1.36482 -1.36186,-1.89921 -0.48849,-0.5329 -0.88817,-1.05839 -0.88817,-1.16794 0,-0.10801 -0.17023,-0.19835 -0.37747,-0.19835 a 0.60839739,0.60839739 0 0 1 -0.52063,-0.37303 c -0.88521,-2.30481 -2.43802,-2.3285 -4.59036,-0.0711 m -9.06675,9.45014 c -0.16875,0.2028 -0.45297,0.37007 -0.6306,0.37007 -0.17763,0 -0.39376,0.22205 -0.47962,0.49294 -0.0873,0.27089 -0.29901,0.49293 -0.47072,0.49293 -0.1732,0 -0.44113,0.27829 -0.59508,0.61728 -0.15395,0.33898 -0.45001,0.61728 -0.65577,0.61728 -0.20723,0 -0.37598,0.13027 -0.37598,0.28866 0,0.15838 -0.19244,0.50181 -0.42781,0.76234 -0.40708,0.45 -0.40708,0.48849 0,0.78604 0.23537,0.17319 0.42781,0.39968 0.42781,0.50477 0,0.10515 0.25016,0.43817 0.55511,0.73866 0.84079,0.82748 2.2367,2.56238 2.65266,3.2966 0.2028,0.35971 0.50774,0.7431 0.67797,0.85117 0.17023,0.10801 0.3079,0.38931 0.3079,0.6232 0,0.23536 0.18208,0.68536 0.40413,1.00215 0.63799,0.91185 1.8163,3.19446 1.82518,3.53936 0.004,0.17171 0.22352,0.75642 0.48553,1.2997 0.26202,0.54178 0.47962,1.34261 0.48405,1.7793 0.004,0.43668 0.2028,1.32486 0.43965,1.9747 0.6232,1.7038 0.61581,10.03485 -0.009,11.63504 -0.23241,0.5936 -0.42189,1.40479 -0.42189,1.80151 0,0.3982 -0.21167,1.18866 -0.47072,1.7571 a 10.332394,10.332394 0 0 0 -0.64097,1.94361 c -0.0933,0.50034 -0.3153,0.96367 -0.49294,1.03176 -0.17763,0.0681 -0.39523,0.45741 -0.48553,0.86449 -0.0888,0.4056 -0.32715,0.87633 -0.52994,1.04508 -0.20279,0.16875 -0.53142,0.64689 -0.73126,1.0658 -0.66761,1.39888 -1.04953,1.98655 -1.93621,2.97982 -2.23079,2.49872 -2.60678,2.99018 -2.60678,3.41206 0,0.44705 3.62373,4.35648 4.03969,4.35796 0.64392,0.004 4.5652,-4.6629 4.95747,-5.89598 0.0903,-0.28422 0.3005,-0.51662 0.46778,-0.51662 0.16727,0 0.44112,-0.37895 0.6084,-0.84079 0.16579,-0.46186 0.46628,-0.90298 0.66613,-0.97848 0.19836,-0.0769 0.36267,-0.33751 0.36267,-0.5788 10e-4,-0.24127 0.20428,-0.7727 0.45148,-1.17978 0.24869,-0.40708 0.53439,-1.0732 0.63504,-1.48029 0.10217,-0.40707 0.32862,-0.90741 0.5033,-1.11021 0.17468,-0.20427 0.39376,-0.86745 0.48554,-1.47436 0.0918,-0.60692 0.33602,-1.28933 0.54178,-1.51582 0.20575,-0.22647 0.43668,-1.06284 0.51513,-1.85627 0.0785,-0.79492 0.32123,-1.77782 0.54031,-2.1849 0.51218,-0.9533 0.59952,-12.13983 0.0992,-12.7423 -0.16284,-0.19688 -0.42929,-1.18571 -0.59065,-2.19675 -0.16134,-1.01104 -0.43371,-2.0043 -0.60691,-2.2071 -0.17172,-0.20428 -0.39227,-0.81416 -0.48849,-1.35743 -0.0962,-0.54326 -0.32122,-1.26416 -0.49738,-1.60314 -0.5033,-0.96515 -1.51285,-3.27291 -1.69936,-3.88576 -0.0933,-0.30641 -0.27386,-0.55511 -0.40116,-0.55511 -0.12731,0 -0.40708,-0.43668 -0.62025,-0.9681 -0.21316,-0.5329 -0.54474,-1.0288 -0.73718,-1.10281 a 0.58027196,0.58027196 0 0 1 -0.35083,-0.50033 0.74458367,0.74458367 0 0 0 -0.30938,-0.56252 c -0.16874,-0.10801 -0.69128,-0.75198 -1.16054,-1.43144 -0.74606,-1.07912 -3.05827,-3.57636 -3.31288,-3.57636 -0.0504,0 -0.22944,0.16579 -0.39819,0.37007 m -12.49362,12.58242 c -0.0785,0.2028 -0.24424,0.37008 -0.37006,0.37008 -0.2783,0 -1.93918,1.63127 -1.93918,1.90513 0,0.10801 -0.22204,0.33454 -0.49441,0.50477 -0.59507,0.37156 -0.68093,1.72749 -0.12287,1.94066 0.2028,0.0785 0.37008,0.25905 0.37008,0.40115 0,0.14212 0.30493,0.65577 0.67796,1.1413 2.06944,2.69264 2.86584,5.83677 2.21599,8.73517 -0.22056,0.97699 -0.46776,2.12865 -0.55215,2.55941 -0.0829,0.42929 -0.29753,0.83637 -0.47516,0.90446 -0.17764,0.0681 -0.40116,0.43373 -0.4959,0.8112 -0.0948,0.37895 -0.38636,0.83784 -0.64837,1.02139 -0.26201,0.18356 -0.47517,0.4663 -0.47517,0.63061 0,0.16282 -0.22204,0.4352 -0.49441,0.60395 -1.04508,0.6528 0.83636,4.25139 2.2219,4.25139 0.11694,0 0.28274,0.22204 0.36859,0.49441 0.34047,1.06877 2.71336,-0.17172 3.18854,-1.66681 0.0962,-0.30493 0.3908,-0.66908 0.65281,-0.80971 0.26201,-0.14062 0.47665,-0.42781 0.47665,-0.63949 0,-0.21167 0.22204,-0.66612 0.49293,-1.01103 0.27238,-0.34491 0.49441,-0.87485 0.49441,-1.1783 0,-0.30199 0.22205,-0.83192 0.49294,-1.17684 0.27089,-0.3449 0.49294,-0.92961 0.49294,-1.2982 0,-0.36859 0.23833,-1.68309 0.52994,-2.92208 0.45742,-1.94511 0.4885,-2.41731 0.23833,-3.4846 a 56.930305,56.930305 0 0 1 -0.60396,-3.16337 c -0.17319,-1.06137 -0.43372,-2.00431 -0.57879,-2.09609 -0.14506,-0.0918 -0.34639,-0.55659 -0.44705,-1.03175 -0.22204,-1.03917 -1.29969,-2.95318 -1.7645,-3.1308 a 0.57583111,0.57583111 0 0 1 -0.33454,-0.50035 c 0,-1.051 -2.79922,-2.99609 -3.11749,-2.16566 m -87.311675,3.88576 c -0.06514,0.16875 -0.08884,18.12758 -0.05478,39.90554 l 0.0636,39.59764 25.699225,0.12286 c 14.13525,0.0681 25.74957,0.17911 25.81027,0.24721 0.62319,0.69573 0.67056,1.89773 0.67056,16.99367 v 15.79169 l -0.5477,0.38339 c -0.4885,0.34195 -3.36469,0.38488 -26.0027,0.38488 -22.982908,0 -25.468308,0.037 -25.603015,0.38931 -0.08288,0.21465 -0.14951,4.42458 -0.14951,9.35541 0,4.93084 0.06657,9.14076 0.14951,9.35541 0.257567,0.67056 71.154375,0.58767 71.574765,-0.0844 0.56104,-0.89852 0.4885,-73.29781 -0.074,-73.70785 -0.36119,-0.26498 -5.21653,-0.32566 -25.81617,-0.32566 -23.93327,0 -25.38246,-0.0251 -25.54974,-0.43225 -0.25017,-0.6084 -0.22204,-37.96933 0.0281,-38.21949 0.1125,-0.11399 11.65132,-0.23537 25.64299,-0.27089 23.17978,-0.0592 25.47571,-0.10063 25.88426,-0.46925 0.64245,-0.58324 0.69723,-18.9299 0.0562,-19.17711 -0.8408,-0.3227 -71.65914,-0.16578 -71.781999,0.15987 m 92.517839,59.95009 c -0.0651,0.17023 -0.0888,16.68578 -0.0548,36.69924 l 0.0636,36.39134 h 72.28678 v -73.27406 l -36.08936,-0.0636 c -28.74122,-0.0488 -36.11305,10e-4 -36.2063,0.24721 m 88.32272,0 c -0.2102,0.54919 0.003,72.67166 0.21464,72.88482 0.28866,0.28718 17.96179,0.36564 18.42216,0.0814 0.32418,-0.19983 0.37747,-3.42982 0.4352,-26.20402 l 0.0651,-25.97604 0.55215,-0.42632 c 0.50922,-0.39376 1.76599,-0.42633 16.41192,-0.43077 l 15.86126,-0.006 0.73127,0.5403 0.72977,0.53882 v 25.5749 c 0,24.46172 0.0193,25.59118 0.4515,25.98197 0.66761,0.60396 17.55618,0.62173 18.15866,0.0193 0.35082,-0.35082 0.38191,-3.92128 0.32566,-36.57489 l -0.0622,-36.18707 -36.08937,-0.0636 c -28.74121,-0.0488 -36.11304,0.001 -36.20777,0.24721 m 88.11399,0.0815 c -0.38783,1.01104 -0.15987,71.77609 0.23389,72.33712 l 0.38339,0.5477 h 70.69548 l 0.2931,-0.55511 c 0.22352,-0.42188 0.27681,-9.15851 0.22649,-36.57489 l -0.0651,-36.01979 -35.80959,-0.0636 c -32.49227,-0.0562 -35.82143,-0.0251 -35.95762,0.32863 m 87.54706,-0.0799 c -0.0651,0.16874 -0.0888,16.6843 -0.0532,36.69775 l 0.0622,36.39135 9.30656,0.0636 9.30507,0.0651 0.35972,-0.55807 c 0.29605,-0.46185 0.37154,-2.43951 0.43816,-11.39673 0.0739,-10.04669 0.11249,-10.87861 0.52994,-11.41003 l 0.45149,-0.57288 h 25.4091 c 17.04401,0 25.5675,-0.0829 25.88724,-0.2546 0.45889,-0.24573 0.47665,-0.61876 0.47665,-10.06298 v -9.80542 l -0.77123,-0.45592 c -0.74311,-0.43965 -1.72454,-0.45001 -25.97606,-0.27386 -21.11479,0.15395 -25.24775,0.12879 -25.47719,-0.15246 -0.46629,-0.56991 -0.58471,-7.57611 -0.14507,-8.53533 l 0.36712,-0.79787 25.88723,-0.0651 c 22.69129,-0.0577 25.91683,-0.11102 26.12704,-0.4352 0.43224,-0.66614 0.188,-18.22824 -0.25757,-18.5095 -0.60987,-0.38339 -71.78053,-0.31825 -71.92707,0.0681 m 87.93191,0.0992 c -0.28273,0.34046 -0.35082,6.10174 -0.41447,34.84889 -0.0755,35.0576 -0.04,37.24991 0.60691,37.89678 0.43817,0.43817 17.3223,0.55511 18.4488,0.12583 l 0.63356,-0.2398 v -11.2142 c 0,-9.86462 0.0458,-11.26053 0.38785,-11.60099 a 12.079131,12.079131 0 0 0 0.43224,-0.44706 c 0.0237,-0.0325 11.6454,-0.11546 25.82505,-0.18503 l 25.78214,-0.12582 0.0592,-9.99193 c 0.0355,-6.04992 -0.0341,-10.13848 -0.17615,-10.362 -0.20872,-0.32566 -3.35433,-0.37008 -25.86503,-0.37008 -21.35905,0 -25.69628,-0.0562 -26.03674,-0.33898 -0.34935,-0.29014 -0.40857,-0.91777 -0.40857,-4.37276 v -4.03378 l 0.72831,-0.37599 c 0.638,-0.3301 3.8443,-0.37748 26.14332,-0.37748 24.87472,0 25.41947,-0.01 25.66964,-0.47665 0.33454,-0.62468 0.34786,-17.25865 0.0148,-18.13349 l -0.23981,-0.63356 h -35.62604 c -32.83718,0 -35.65268,0.0325 -35.96502,0.40855 m -299.72083,20.06971 c 0.53587,0.84969 0.29606,31.77877 -0.25017,32.07039 -0.54326,0.29162 -31.41314,0.25313 -31.70624,-0.04 -0.22204,-0.22205 -0.15246,-31.85426 0.0711,-32.07335 0.56103,-0.55363 31.53453,-0.51217 31.88536,0.0429 m 175.16071,0.22057 0.61728,0.1717 v 31.80394 l -15.51488,0.0637 c -11.25608,0.0458 -15.60812,-0.0133 -15.85237,-0.21613 -0.27681,-0.22945 -0.33602,-2.99905 -0.33602,-15.7606 0,-16.33644 -0.0355,-15.82426 1.11021,-16.10551 0.77418,-0.18947 29.28596,-0.14951 29.97578,0.0429" /></svg>
