<?xml version="1.0" encoding="UTF-8" standalone="no"?>
<svg
   inkscape:version="1.3.2 (091e20e, 2023-11-25, custom)"
   sodipodi:docname="icon.svg"
   xml:space="preserve"
   style="enable-background:new 0 0 1999.35 1999.35;"
   viewBox="0 0 1999.35 1999.35"
   y="0px"
   x="0px"
   id="Layer_1"
   version="1.1"
   xmlns:inkscape="http://www.inkscape.org/namespaces/inkscape"
   xmlns:sodipodi="http://sodipodi.sourceforge.net/DTD/sodipodi-0.dtd"
   xmlns="http://www.w3.org/2000/svg"
   xmlns:svg="http://www.w3.org/2000/svg"
   xmlns:rdf="http://www.w3.org/1999/02/22-rdf-syntax-ns#"
   xmlns:cc="http://creativecommons.org/ns#"
   xmlns:dc="http://purl.org/dc/elements/1.1/"><metadata
   id="metadata41"><rdf:RDF><cc:Work
       rdf:about=""><dc:format>image/svg+xml</dc:format><dc:type
         rdf:resource="http://purl.org/dc/dcmitype/StillImage" /></cc:Work></rdf:RDF></metadata><defs
   id="defs39" /><sodipodi:namedview
   inkscape:current-layer="Layer_1"
   inkscape:window-maximized="1"
   inkscape:window-y="-8"
   inkscape:window-x="-8"
   inkscape:cy="1826.2355"
   inkscape:cx="2313.8818"
   inkscape:zoom="0.20506665"
   showgrid="false"
   id="namedview37"
   inkscape:window-height="987"
   inkscape:window-width="1625"
   inkscape:pageshadow="2"
   inkscape:pageopacity="0"
   guidetolerance="10"
   gridtolerance="10"
   objecttolerance="10"
   borderopacity="1"
   bordercolor="#666666"
   pagecolor="#ffffff"
   inkscape:showpageshadow="2"
   inkscape:pagecheckerboard="0"
   inkscape:deskcolor="#d1d1d1" />





<path
   style="fill:none;stroke:#000000;stroke-width:6.66666667;stroke-linecap:butt;stroke-linejoin:miter;stroke-opacity:1;stroke-dasharray:none"
   d="M 963.76638,1363.7553 C 721.79349,1361.089 374.44729,1211.7366 353.43848,970.66274 327.42282,672.13586 690.96801,499.80669 970.66274,498.26205 1294.1781,496.47541 1648.128,691.11447 1599.9556,999.97228 1562.3098,1241.3387 1235.5515,1366.7501 963.76638,1363.7553 Z"
   id="path1"
   sodipodi:nodetypes="sssss" /><path
   style="fill:none;stroke:#000000;stroke-width:6.66666667;stroke-linecap:butt;stroke-linejoin:miter;stroke-dasharray:none;stroke-opacity:1"
   d="M 972.71789,1125.3106 C 837.12128,1123.8055 642.47563,1039.4938 630.70273,903.40413 616.12409,734.88134 819.84731,637.59901 976.58247,636.72703 1157.8738,635.71846 1356.22,745.59504 1329.2253,919.94979 1308.1293,1056.2047 1125.0207,1127.0013 972.71789,1125.3106 Z"
   id="path2"
   sodipodi:nodetypes="sssss" /><path
   style="fill:none;stroke:#000000;stroke-width:6.66667;stroke-linecap:butt;stroke-linejoin:miter;stroke-dasharray:none;stroke-opacity:1"
   d="m 353.43848,968.93865 c 0,0 4.68203,169.81585 27.58544,251.71715 76.6646,274.1484 399.99612,369.879 646.53378,360.3349 221.2306,-8.5644 484.1216,-133.3948 553.433,-367.2312 18.351,-61.9111 20.6891,-232.75217 20.6891,-232.75217"
   id="path3"
   sodipodi:nodetypes="csasc" /><path
   style="fill:none;stroke:#000000;stroke-width:6.96265;stroke-linecap:butt;stroke-linejoin:miter;stroke-dasharray:none;stroke-opacity:1"
   d="m 676.54323,1453.7293 c -28.1858,-14.2932 -59.40328,-46.073 -46.55426,-65.9526 15.91125,-24.6171 69.45745,-16.7892 102.33105,-0.6257 38.02402,18.6957 67.13914,54.3646 41.8782,75.4624 -19.74099,16.4875 -65.99658,7.1701 -97.65499,-8.8841 z"
   id="path4"
   sodipodi:nodetypes="sssss" /></svg>
