<?xml version="1.0" encoding="UTF-8" standalone="no"?>
<svg
   xmlns:dc="http://purl.org/dc/elements/1.1/"
   xmlns:cc="http://creativecommons.org/ns#"
   xmlns:rdf="http://www.w3.org/1999/02/22-rdf-syntax-ns#"
   xmlns:svg="http://www.w3.org/2000/svg"
   xmlns="http://www.w3.org/2000/svg"
   xmlns:sodipodi="http://sodipodi.sourceforge.net/DTD/sodipodi-0.dtd"
   xmlns:inkscape="http://www.inkscape.org/namespaces/inkscape"
   inkscape:version="1.0 (4035a4fb49, 2020-05-01)"
   sodipodi:docname="icon.svg"
   xml:space="preserve"
   style="enable-background:new 0 0 1999.35 1999.35;"
   viewBox="0 0 1999.35 1999.35"
   y="0px"
   x="0px"
   id="Layer_1"
   version="1.1"><metadata
   id="metadata41"><rdf:RDF><cc:Work
       rdf:about=""><dc:format>image/svg+xml</dc:format><dc:type
         rdf:resource="http://purl.org/dc/dcmitype/StillImage" /></cc:Work></rdf:RDF></metadata><defs
   id="defs39" /><sodipodi:namedview
   inkscape:current-layer="Layer_1"
   inkscape:window-maximized="1"
   inkscape:window-y="-8"
   inkscape:window-x="-8"
   inkscape:cy="626.16811"
   inkscape:cx="1402.6972"
   inkscape:zoom="0.29000804"
   showgrid="false"
   id="namedview37"
   inkscape:window-height="987"
   inkscape:window-width="1680"
   inkscape:pageshadow="2"
   inkscape:pageopacity="0"
   guidetolerance="10"
   gridtolerance="10"
   objecttolerance="10"
   borderopacity="1"
   bordercolor="#666666"
   pagecolor="#ffffff" />





<path
   sodipodi:nodetypes="ccsccccccc"
   id="path880"
   d="m 1139.6236,1477.5453 615.5002,-325.8531 c 0,0 28.2628,-10.784 38.3609,-30.1715 6.8914,-13.2308 -3.8791,-33.6198 -3.8791,-33.6198 l -587.9148,-744.80696 -94.8249,-37.92998 -725.84198,205.16673 -15.51681,32.75771 36.2059,51.7227 629.29289,844.8042"
   style="fill:none;stroke:#000000;stroke-width:9;stroke-linecap:butt;stroke-linejoin:miter;stroke-opacity:1;stroke-miterlimit:4;stroke-dasharray:none" /><path
   sodipodi:nodetypes="csacc"
   id="path882"
   d="M 365.07609,566.36362 237.49342,768.94421 c -2.58287,4.10118 -3.79069,9.43912 -3.01716,14.22374 1.08936,6.73817 10.34454,17.67193 10.34454,17.67193 l 612.21764,833.99442"
   style="fill:none;stroke:#000000;stroke-width:9;stroke-linecap:butt;stroke-linejoin:miter;stroke-opacity:1;stroke-miterlimit:4;stroke-dasharray:none" /><path
   sodipodi:nodetypes="cccc"
   id="path884"
   d="m 857.03844,1634.8343 148.73216,-157.2659 -1.2191,-45.1073 -639.47541,-866.09748"
   style="fill:none;stroke:#000000;stroke-width:9;stroke-linecap:butt;stroke-linejoin:miter;stroke-opacity:1;stroke-miterlimit:4;stroke-dasharray:none" /><path
   sodipodi:nodetypes="cacccc"
   id="path886"
   d="m 246.87096,749.75624 c 0,0 -22.73608,16.78349 -24.38232,29.41117 -1.81572,13.92781 17.67718,38.24976 17.67718,38.24976 l 622.9682,855.51453 49.37419,20.1154 22.55364,-4.8764"
   style="fill:none;stroke:#000000;stroke-width:9;stroke-linecap:butt;stroke-linejoin:miter;stroke-opacity:1;stroke-miterlimit:4;stroke-dasharray:none" /><path
   id="path888"
   d="m 1031.0059,1439.6153 9.5095,30.0288 -14.0199,29.2588 -163.36148,174.0288"
   style="fill:none;stroke:#000000;stroke-width:9;stroke-linecap:butt;stroke-linejoin:miter;stroke-opacity:1;stroke-miterlimit:4;stroke-dasharray:none" /><path
   id="path890"
   d="m 1139.6236,1477.5453 -23.523,16.4812 -25.6015,25.6014 -155.43725,168.5428 -27.43011,26.5157 -63.39402,-21.9441 18.8963,-19.8106 v 0"
   style="fill:none;stroke:#000000;stroke-width:9;stroke-linecap:butt;stroke-linejoin:miter;stroke-opacity:1;stroke-miterlimit:4;stroke-dasharray:none" /><path
   sodipodi:nodetypes="ccassc"
   id="path892"
   d="M 844.23772,1692.7423 208.3994,817.43425 c 0,0 -3.14274,-9.36998 -3.22819,-14.23457 -0.11831,-6.73524 1.00869,-13.71815 3.77463,-19.85319 2.84554,-6.3116 10.03728,-16.98345 18.85406,-22.17151 l 23.05522,-13.56639"
   style="fill:none;stroke:#000000;stroke-width:9;stroke-linecap:butt;stroke-linejoin:miter;stroke-opacity:1;stroke-miterlimit:4;stroke-dasharray:none" /><path
   id="path894"
   d="m 365.07609,566.36362 -6.80842,-21.57123 8.6862,-24.38232 14.07005,-10.07938"
   style="fill:none;stroke:#000000;stroke-width:9;stroke-linecap:butt;stroke-linejoin:miter;stroke-opacity:1;stroke-miterlimit:4;stroke-dasharray:none" /><path
   id="path896"
   d="m 1734.8018,1161.8174 -137.1505,135.9314 -1.8287,25.6014 -37.183,27.4302 -651.00786,363.906"
   style="fill:none;stroke:#000000;stroke-width:9;stroke-linecap:butt;stroke-linejoin:miter;stroke-opacity:1;stroke-miterlimit:4;stroke-dasharray:none" /><path
   id="path898"
   d="M 935.06185,1688.1707 1595.8226,1323.3502"
   style="fill:none;stroke:#000000;stroke-width:9;stroke-linecap:butt;stroke-linejoin:miter;stroke-opacity:1;stroke-miterlimit:4;stroke-dasharray:none" /><path
   id="path900"
   d="m 1597.6513,1297.7488 -26.211,3.0478 -576.03222,320.6275"
   style="fill:none;stroke:#000000;stroke-width:9;stroke-linecap:butt;stroke-linejoin:miter;stroke-opacity:1;stroke-miterlimit:4;stroke-dasharray:none" /><path
   sodipodi:nodetypes="cc"
   id="path902"
   d="m 1571.4403,1300.7966 108.5013,-109.7205"
   style="fill:none;stroke:#000000;stroke-width:9;stroke-linecap:butt;stroke-linejoin:miter;stroke-opacity:1;stroke-miterlimit:4;stroke-dasharray:none" /><path
   sodipodi:nodetypes="csc"
   id="path904"
   d="m 1247.7651,890.56412 c 0,0 -44.0143,-121.60903 -102.652,-151.74295 -115.6122,-59.41318 -135.9314,42.0595 -135.9314,42.0595"
   style="fill:none;stroke:#000000;stroke-width:9;stroke-linecap:butt;stroke-linejoin:miter;stroke-opacity:1;stroke-miterlimit:4;stroke-dasharray:none" /><path
   id="path906"
   d="m 1116.7101,930.79494 5.486,-18.89629"
   style="fill:none;stroke:#000000;stroke-width:9;stroke-linecap:butt;stroke-linejoin:miter;stroke-opacity:1;stroke-miterlimit:4;stroke-dasharray:none" /><path
   sodipodi:nodetypes="cac"
   id="path908"
   d="m 1147.4928,931.4045 c 0,0 7.3533,-41.10654 2.1334,-60.65102 -5.6518,-21.16211 -34.7448,-55.77454 -34.7448,-55.77454"
   style="fill:none;stroke:#000000;stroke-width:9;stroke-linecap:butt;stroke-linejoin:miter;stroke-opacity:1;stroke-miterlimit:4;stroke-dasharray:none" /><path
   sodipodi:nodetypes="csasc"
   id="path910"
   d="m 1178.2755,929.57583 c 0,0 1.3277,-54.02676 -18.2868,-87.77634 -13.5279,-23.27676 -36.2157,-64.63806 -60.651,-53.33632 -10.8821,5.03316 -9.0199,15.79998 0.6096,35.96392 7.6676,16.05578 26.5157,46.3264 26.5157,46.3264"
   style="fill:none;stroke:#000000;stroke-width:9;stroke-linecap:butt;stroke-linejoin:miter;stroke-opacity:1;stroke-miterlimit:4;stroke-dasharray:none" /><path
   sodipodi:nodetypes="cc"
   id="path912"
   d="m 1206.6199,937.19531 c 2.9099,-38.40764 -1.9791,-62.65052 -21.9441,-86.55724"
   style="fill:none;stroke:#000000;stroke-width:9;stroke-linecap:butt;stroke-linejoin:miter;stroke-opacity:1;stroke-miterlimit:4;stroke-dasharray:none" /><path
   sodipodi:nodetypes="csssaac"
   id="path916"
   d="m 1170.9608,824.12231 c 0,0 -23.6788,-31.94825 -39.6213,-43.27861 -14.7442,-10.47869 -20.0215,-19.39007 -46.3264,-12.19116 -12.9079,3.53254 -19.4188,17.22092 -19.5059,32.61134 -0.141,24.91227 28.1649,43.96046 34.1353,68.88005 2.3198,9.68261 2.9135,20.25955 0.3048,29.86833 -2.0178,7.43195 -11.8864,19.81064 -11.8864,19.81064"
   style="fill:none;stroke:#000000;stroke-width:9;stroke-linecap:butt;stroke-linejoin:miter;stroke-opacity:1;stroke-miterlimit:4;stroke-dasharray:none" /><path
   sodipodi:nodetypes="cac"
   id="path918"
   d="m 1061.5451,843.93294 c 0,0 10.8033,19.63773 11.5816,30.4779 0.7008,9.76002 -6.4003,28.64922 -6.4003,28.64922"
   style="fill:none;stroke:#000000;stroke-width:9;stroke-linecap:butt;stroke-linejoin:miter;stroke-opacity:1;stroke-miterlimit:4;stroke-dasharray:none" /><path
   sodipodi:nodetypes="csc"
   id="path920"
   d="m 1048.1348,875.93473 c 0,0 -9.0051,-30.2953 -18.8962,-42.0595 -10.6413,-12.65651 -20.4202,-37.18303 -20.4202,-37.18303"
   style="fill:none;stroke:#000000;stroke-width:9;stroke-linecap:butt;stroke-linejoin:miter;stroke-opacity:1;stroke-miterlimit:4;stroke-dasharray:none" /><path
   sodipodi:nodetypes="caaac"
   id="path922"
   d="m 1042.9536,814.36938 c 0,0 -5.0485,-25.48848 -1.5239,-37.48781 3.638,-12.38549 11.1987,-25.02411 22.2489,-31.69701 9.5572,-5.7713 22.1602,-5.78644 33.2209,-4.26691 6.4493,0.88601 17.9819,7.61948 17.9819,7.61948"
   style="fill:none;stroke:#000000;stroke-width:9;stroke-linecap:butt;stroke-linejoin:miter;stroke-opacity:1;stroke-miterlimit:4;stroke-dasharray:none" /><path
   sodipodi:nodetypes="csc"
   id="path924"
   d="m 1234.3547,922.26114 c 0,0 -14.3807,-57.17952 -31.7794,-89.11626 -33.7318,-61.91765 -61.4829,-71.19748 -61.4829,-71.19748"
   style="fill:none;stroke:#000000;stroke-width:9;stroke-linecap:butt;stroke-linejoin:miter;stroke-opacity:1;stroke-miterlimit:4;stroke-dasharray:none" /></svg>
