<?xml version="1.0" encoding="UTF-8" standalone="no"?>
<svg
   inkscape:version="1.3.2 (091e20e, 2023-11-25, custom)"
   sodipodi:docname="icon.svg"
   xml:space="preserve"
   style="enable-background:new 0 0 1999.35 1999.35;"
   viewBox="0 0 1999.35 1999.35"
   y="0px"
   x="0px"
   id="Layer_1"
   version="1.1"
   xmlns:inkscape="http://www.inkscape.org/namespaces/inkscape"
   xmlns:sodipodi="http://sodipodi.sourceforge.net/DTD/sodipodi-0.dtd"
   xmlns="http://www.w3.org/2000/svg"
   xmlns:svg="http://www.w3.org/2000/svg"
   xmlns:rdf="http://www.w3.org/1999/02/22-rdf-syntax-ns#"
   xmlns:cc="http://creativecommons.org/ns#"
   xmlns:dc="http://purl.org/dc/elements/1.1/"><metadata
   id="metadata41"><rdf:RDF><cc:Work
       rdf:about=""><dc:format>image/svg+xml</dc:format><dc:type
         rdf:resource="http://purl.org/dc/dcmitype/StillImage" /></cc:Work></rdf:RDF></metadata><defs
   id="defs39" /><sodipodi:namedview
   inkscape:current-layer="Layer_1"
   inkscape:window-maximized="1"
   inkscape:window-y="-8"
   inkscape:window-x="-8"
   inkscape:cy="1249.5937"
   inkscape:cx="804.61645"
   inkscape:zoom="0.4101333"
   showgrid="false"
   id="namedview37"
   inkscape:window-height="987"
   inkscape:window-width="1680"
   inkscape:pageshadow="2"
   inkscape:pageopacity="0"
   guidetolerance="10"
   gridtolerance="10"
   objecttolerance="10"
   borderopacity="1"
   bordercolor="#666666"
   pagecolor="#ffffff"
   inkscape:showpageshadow="2"
   inkscape:pagecheckerboard="0"
   inkscape:deskcolor="#d1d1d1" />





<path
   sodipodi:nodetypes="ssscsssscsssssassccssscss"
   id="path880"
   d="M 1664.178,1360.3071 H 318.95668 c -113.78935,0 -105.40432,-114.9679 -103.8458,-135.7848 l 15.48618,-144.1643 62.49827,-40.7316 c 15.77141,-10.2786 26.44703,-29.6683 29.30953,-48.27456 l 10.34454,-67.23952 c 5.12781,-33.33075 -13.02575,-40.53577 -24.13726,-32.75771 l -51.72271,36.20589 c 0,0 0,0 13.79272,-108.61768 3.67797,-28.96404 26.16861,-56.56569 51.72271,-70.68769 262.0617,-144.82358 0,0 262.0617,-144.82358 26.60259,-14.70143 55.60098,-30.2055 85.99534,-30.31948 l 650.1912,-2.43823 c 27.1082,-0.10166 51.2674,17.90456 75.8599,29.30953 96.8243,44.90308 0,0 281.0267,153.44403 19.4703,10.63103 36.7949,28.10295 39.6541,52.58474 l 13.7927,118.10018 -55.1709,-32.75771 c 0,0 -22.0226,-16.76917 -20.6891,10.34454 l 5.1723,105.16945 c 0.5874,11.9442 10.6986,22.7369 20.6891,29.3096 l 65.5154,43.1022 8.6205,151.72 c 3.4886,61.3996 -10.5116,129.3067 -90.9458,129.3067 z"
   style="fill:none;stroke:#000000;stroke-width:20;stroke-linecap:butt;stroke-linejoin:miter;stroke-opacity:1;stroke-miterlimit:4;stroke-dasharray:none" /><path
   sodipodi:nodetypes="ccc"
   id="path882"
   d="m 256.88943,927.5605 5.17227,36.2059 -17.67192,107.3246"
   style="fill:none;stroke:#000000;stroke-width:20;stroke-linecap:butt;stroke-linejoin:miter;stroke-opacity:1;stroke-miterlimit:4;stroke-dasharray:none" /><path
   sodipodi:nodetypes="ccc"
   id="path884"
   d="m 1730.9865,924.11232 0.431,36.2059 5.917,112.70598"
   style="fill:none;stroke:#000000;stroke-width:20;stroke-linecap:butt;stroke-linejoin:miter;stroke-opacity:1;stroke-miterlimit:4;stroke-dasharray:none" /><path
   sodipodi:nodetypes="cc"
   id="path886"
   d="m 1731.4175,960.31822 -71.1187,5.17227"
   style="fill:none;stroke:#000000;stroke-width:20;stroke-linecap:butt;stroke-linejoin:miter;stroke-opacity:1;stroke-miterlimit:4;stroke-dasharray:none" /><path
   sodipodi:nodetypes="ccc"
   id="path888"
   d="m 1703.4011,962.47333 v -33.18874 l -48.2746,-27.58544"
   style="fill:none;stroke:#000000;stroke-width:20;stroke-linecap:butt;stroke-linejoin:miter;stroke-opacity:1;stroke-miterlimit:4;stroke-dasharray:none" /><path
   sodipodi:nodetypes="ccccc"
   id="path890"
   d="m 301.92495,918.94005 -19.17416,15.51681 1.72409,25.86136 h 20.68908 z"
   style="fill:none;stroke:#000000;stroke-width:20;stroke-linecap:butt;stroke-linejoin:miter;stroke-opacity:1;stroke-miterlimit:4;stroke-dasharray:none" /><path
   sodipodi:nodetypes="ccc"
   id="path892"
   d="m 324.12895,974.11094 -48.27453,1.72409 -12.49965,82.75637"
   style="fill:none;stroke:#000000;stroke-width:20;stroke-linecap:butt;stroke-linejoin:miter;stroke-opacity:1;stroke-miterlimit:4;stroke-dasharray:none" /><path
   sodipodi:nodetypes="sssssssss"
   id="path896"
   d="m 1317.2049,1020.6614 c -663.77473,1.7241 0,0 -663.77473,1.7241 -22.75676,0.059 -50.21455,-25.60057 -48.27453,-48.27456 27.58545,-322.40486 0,0 27.58545,-322.40486 2.11579,-24.7283 30.35264,-49.8568 55.17088,-49.99862 603.43153,-3.44818 0,0 603.43153,-3.44818 30.6099,-0.17491 57.9196,40.08533 58.6191,70.6877 6.8964,301.71578 0,0 6.8964,301.71578 0.4861,21.266 -18.3826,49.94334 -39.6541,49.99864 z"
   style="fill:none;stroke:#000000;stroke-width:20;stroke-linecap:butt;stroke-linejoin:miter;stroke-opacity:1;stroke-miterlimit:4;stroke-dasharray:none" /><path
   style="fill:none;stroke:#000000;stroke-width:20;stroke-linecap:butt;stroke-linejoin:miter;stroke-opacity:1;stroke-miterlimit:4;stroke-dasharray:none"
   d="m 1355.9838,1032.2227 c -743.71889,1.8188 0,0 -743.71889,1.8188 -25.49756,0.062 -56.26233,-27.0077 -54.08866,-50.92792 30.9078,-340.12582 0,0 30.9078,-340.12582 2.37062,-26.08749 34.00828,-52.59718 61.8156,-52.74679 676.10795,-3.63771 0,0 676.10795,-3.63771 34.2966,-0.18452 64.8955,42.28862 65.6792,74.57304 7.727,318.29957 0,0 7.727,318.29957 0.5446,22.43493 -20.5966,52.68843 -44.43,52.74683 z"
   id="path898"
   sodipodi:nodetypes="sssssssss" /><path
   sodipodi:nodetypes="sssssssss"
   id="path900"
   d="m 1381.8097,1054.9663 -788.29627,1.9819 c -27.02584,0.067 -59.63461,-29.4298 -57.33065,-55.4952 l 32.76037,-370.62851 c 2.51271,-28.42703 71.24597,-57.35117 98.27844,-57.47716 l 654.31151,-3.0496 c 36.3525,-0.16943 98.3489,45.16675 99.1796,80.34647 l 8.1901,346.84487 c 0.5773,24.44683 -21.8312,57.41363 -47.0931,57.47723 z"
   style="fill:none;stroke:#000000;stroke-width:20;stroke-linecap:butt;stroke-linejoin:miter;stroke-opacity:1;stroke-miterlimit:4;stroke-dasharray:none" /><path
   d="m 1066.9768,981.68659 a 28.398653,26.723398 0 0 1 2.02,-37.74162 28.398653,26.723398 0 0 1 40.108,1.89458 28.398653,26.723398 0 0 1 -2.0068,37.74225 28.398653,26.723398 0 0 1 -40.1085,-1.88207 l 21.0544,-17.93337 z"
   sodipodi:arc-type="slice"
   sodipodi:end="2.4059364"
   sodipodi:start="2.4065996"
   sodipodi:ry="26.723398"
   sodipodi:rx="28.398653"
   sodipodi:cy="963.76636"
   sodipodi:cx="1088.0439"
   sodipodi:type="arc"
   id="path902"
   style="fill:#000000;fill-rule:evenodd;stroke-width:1.42032;fill-opacity:1" /><path
   style="fill:#000000;fill-opacity:1;fill-rule:evenodd;stroke-width:0.733068"
   id="path904"
   sodipodi:type="arc"
   sodipodi:cx="1210.4543"
   sodipodi:cy="968.0766"
   sodipodi:rx="14.65737"
   sodipodi:ry="13.792722"
   sodipodi:start="2.4065996"
   sodipodi:end="2.4059364"
   sodipodi:arc-type="slice"
   d="m 1199.581,977.32575 a 14.65737,13.792722 0 0 1 1.0426,-19.47955 14.65737,13.792722 0 0 1 20.7008,0.97786 14.65737,13.792722 0 0 1 -1.0357,19.47987 14.65737,13.792722 0 0 1 -20.7012,-0.9714 l 10.8668,-9.25593 z" /><path
   d="m 1271.581,977.32575 a 14.65737,13.792722 0 0 1 1.0426,-19.47955 14.65737,13.792722 0 0 1 20.7008,0.97786 14.65737,13.792722 0 0 1 -1.0357,19.47987 14.65737,13.792722 0 0 1 -20.7012,-0.9714 l 10.8668,-9.25593 z"
   sodipodi:arc-type="slice"
   sodipodi:end="2.4059364"
   sodipodi:start="2.4065996"
   sodipodi:ry="13.792722"
   sodipodi:rx="14.65737"
   sodipodi:cy="968.0766"
   sodipodi:cx="1282.4543"
   sodipodi:type="arc"
   id="path906"
   style="fill:#000000;fill-opacity:1;fill-rule:evenodd;stroke-width:0.733068" /><path
   d="m 878.40757,720.93966 c -1.091,1.144 -1.267,1.487 -0.986,1.928 0.19,0.3 1.872,2.177 2.319,2.588 0.206,0.189 0.375,0.409 0.375,0.488 0,0.079 0.3,0.55 0.667,1.046 0.366,0.497 0.666,0.977 0.666,1.068 0,0.091 0.104,0.226 0.231,0.299 0.128,0.073 0.385,0.433 0.572,0.8 0.929,1.822 1.364,2.754 1.364,2.925 0,0.104 0.141,0.369 0.314,0.588 0.173,0.22 0.365,0.737 0.427,1.149 0.061,0.412 0.212,0.807 0.333,0.877 0.122,0.07 0.313,0.578 0.425,1.128 0.112,0.55 0.273,1.085 0.358,1.19 0.085,0.105 0.228,0.855 0.319,1.667 0.091,0.812 0.255,1.738 0.365,2.059 0.273,0.795 0.265,7.331 -0.01,8.276 -0.111,0.38 -0.272,1.245 -0.358,1.922 -0.086,0.677 -0.272,1.453 -0.413,1.725 -0.142,0.272 -0.259,0.719 -0.26,0.994 -0.001,0.275 -0.147,0.738 -0.324,1.03 a 4.084,4.084 0 0 0 -0.44,1.166 c -0.065,0.351 -0.257,0.816 -0.427,1.035 -0.17,0.218 -0.309,0.504 -0.309,0.633 0,0.203 -0.344,0.955 -0.863,1.886 -0.076,0.137 -0.27,0.51 -0.43,0.828 -0.16,0.318 -0.403,0.702 -0.54,0.854 -0.138,0.151 -0.475,0.658 -0.75,1.127 -0.275,0.468 -0.558,0.853 -0.629,0.855 -0.071,10e-4 -0.201,0.19 -0.288,0.419 -0.087,0.23 -0.23,0.417 -0.318,0.417 -0.088,0 -0.204,0.131 -0.258,0.292 -0.055,0.16 -0.585,0.809 -1.178,1.442 -0.594,0.632 -1.079,1.288 -1.079,1.456 0,0.553 2.202,2.81 2.74,2.81 0.283,0 2.26,-1.896 2.26,-2.167 0,-0.085 0.15,-0.235 0.333,-0.333 0.183,-0.098 0.333,-0.263 0.333,-0.367 0,-0.104 0.115,-0.307 0.254,-0.452 0.547,-0.57 1.246,-1.572 1.246,-1.787 0,-0.125 0.105,-0.227 0.234,-0.227 0.129,0 0.319,-0.207 0.423,-0.459 0.104,-0.252 0.374,-0.758 0.599,-1.125 0.225,-0.366 0.529,-0.929 0.676,-1.25 0.148,-0.321 0.364,-0.696 0.482,-0.833 a 2.17,2.17 0 0 0 0.336,-0.667 c 0.068,-0.229 0.22,-0.529 0.338,-0.666 0.118,-0.138 0.295,-0.553 0.393,-0.922 0.099,-0.37 0.291,-0.82 0.427,-1 0.137,-0.181 0.251,-0.516 0.255,-0.745 0,-0.229 0.124,-0.642 0.269,-0.917 0.145,-0.275 0.335,-0.938 0.422,-1.473 0.087,-0.536 0.262,-1.136 0.389,-1.333 0.126,-0.198 0.278,-0.885 0.336,-1.527 0.059,-0.642 0.234,-1.504 0.389,-1.917 0.415,-1.101 0.417,-8.681 0,-9.916 -0.153,-0.459 -0.327,-1.328 -0.385,-1.933 -0.059,-0.604 -0.214,-1.306 -0.345,-1.559 -0.132,-0.253 -0.309,-0.896 -0.395,-1.428 -0.086,-0.533 -0.274,-1.197 -0.417,-1.475 -0.144,-0.278 -0.262,-0.622 -0.262,-0.764 0,-0.143 -0.15,-0.539 -0.333,-0.881 -0.184,-0.342 -0.334,-0.78 -0.334,-0.974 0,-0.193 -0.15,-0.487 -0.333,-0.653 -0.183,-0.166 -0.333,-0.43 -0.333,-0.586 0,-0.156 -0.188,-0.56 -0.417,-0.898 -0.229,-0.338 -0.417,-0.719 -0.417,-0.847 0,-0.128 -0.066,-0.274 -0.147,-0.324 -0.081,-0.05 -0.3,-0.416 -0.487,-0.813 -0.186,-0.397 -0.607,-1.073 -0.936,-1.503 -0.328,-0.43 -0.596,-0.856 -0.596,-0.947 a 0.165,0.165 0 0 0 -0.164,-0.165 c -0.089,0 -0.307,-0.283 -0.483,-0.628 -0.176,-0.345 -0.59,-0.922 -0.92,-1.283 -0.33,-0.36 -0.6,-0.715 -0.6,-0.789 0,-0.073 -0.115,-0.134 -0.255,-0.134 a 0.411,0.411 0 0 1 -0.352,-0.252 c -0.598,-1.557 -1.647,-1.573 -3.101,-0.048 m -6.125,6.384 c -0.114,0.137 -0.306,0.25 -0.426,0.25 -0.12,0 -0.266,0.15 -0.324,0.333 -0.059,0.183 -0.202,0.333 -0.318,0.333 -0.117,0 -0.298,0.188 -0.402,0.417 -0.104,0.229 -0.304,0.417 -0.443,0.417 -0.14,0 -0.254,0.088 -0.254,0.195 0,0.107 -0.13,0.339 -0.289,0.515 -0.275,0.304 -0.275,0.33 0,0.531 0.159,0.117 0.289,0.27 0.289,0.341 0,0.071 0.169,0.296 0.375,0.499 0.568,0.559 1.511,1.731 1.792,2.227 0.137,0.243 0.343,0.502 0.458,0.575 0.115,0.073 0.208,0.263 0.208,0.421 0,0.159 0.123,0.463 0.273,0.677 0.431,0.616 1.227,2.158 1.233,2.391 0,0.116 0.151,0.511 0.328,0.878 0.177,0.366 0.324,0.907 0.327,1.202 0,0.295 0.137,0.895 0.297,1.334 0.421,1.151 0.416,6.779 -0.01,7.86 -0.157,0.401 -0.285,0.949 -0.285,1.217 0,0.269 -0.143,0.803 -0.318,1.187 a 6.98,6.98 0 0 0 -0.433,1.313 c -0.063,0.338 -0.213,0.651 -0.333,0.697 -0.12,0.046 -0.267,0.309 -0.328,0.584 -0.06,0.274 -0.221,0.592 -0.358,0.706 -0.137,0.114 -0.359,0.437 -0.494,0.72 -0.451,0.945 -0.709,1.342 -1.308,2.013 -1.507,1.688 -1.761,2.02 -1.761,2.305 0,0.302 2.448,2.943 2.729,2.944 0.435,0.003 3.084,-3.15 3.349,-3.983 0.061,-0.192 0.203,-0.349 0.316,-0.349 0.113,0 0.298,-0.256 0.411,-0.568 0.112,-0.312 0.315,-0.61 0.45,-0.661 0.134,-0.052 0.245,-0.228 0.245,-0.391 10e-4,-0.163 0.138,-0.522 0.305,-0.797 0.168,-0.275 0.361,-0.725 0.429,-1 0.069,-0.275 0.222,-0.613 0.34,-0.75 0.118,-0.138 0.266,-0.586 0.328,-0.996 0.062,-0.41 0.227,-0.871 0.366,-1.024 0.139,-0.153 0.295,-0.718 0.348,-1.254 0.053,-0.537 0.217,-1.201 0.365,-1.476 0.346,-0.644 0.405,-8.201 0.067,-8.608 -0.11,-0.133 -0.29,-0.801 -0.399,-1.484 -0.109,-0.683 -0.293,-1.354 -0.41,-1.491 -0.116,-0.138 -0.265,-0.55 -0.33,-0.917 -0.065,-0.367 -0.217,-0.854 -0.336,-1.083 -0.34,-0.652 -1.022,-2.211 -1.148,-2.625 -0.063,-0.207 -0.185,-0.375 -0.271,-0.375 -0.086,0 -0.275,-0.295 -0.419,-0.654 -0.144,-0.36 -0.368,-0.695 -0.498,-0.745 a 0.392,0.392 0 0 1 -0.237,-0.338 0.503,0.503 0 0 0 -0.209,-0.38 c -0.114,-0.073 -0.467,-0.508 -0.784,-0.967 -0.504,-0.729 -2.066,-2.416 -2.238,-2.416 -0.034,0 -0.155,0.112 -0.269,0.25 m -8.44,8.5 c -0.053,0.137 -0.165,0.25 -0.25,0.25 -0.188,0 -1.31,1.102 -1.31,1.287 0,0.073 -0.15,0.226 -0.334,0.341 -0.402,0.251 -0.46,1.167 -0.083,1.311 0.137,0.053 0.25,0.175 0.25,0.271 0,0.096 0.206,0.443 0.458,0.771 1.398,1.819 1.936,3.943 1.497,5.901 -0.149,0.66 -0.316,1.438 -0.373,1.729 -0.056,0.29 -0.201,0.565 -0.321,0.611 -0.12,0.046 -0.271,0.293 -0.335,0.548 -0.064,0.256 -0.261,0.566 -0.438,0.69 -0.177,0.124 -0.321,0.315 -0.321,0.426 0,0.11 -0.15,0.294 -0.334,0.408 -0.706,0.441 0.565,2.872 1.501,2.872 0.079,0 0.191,0.15 0.249,0.334 0.23,0.722 1.833,-0.116 2.154,-1.126 0.065,-0.206 0.264,-0.452 0.441,-0.547 0.177,-0.095 0.322,-0.289 0.322,-0.432 0,-0.143 0.15,-0.45 0.333,-0.683 0.184,-0.233 0.334,-0.591 0.334,-0.796 0,-0.204 0.15,-0.562 0.333,-0.795 0.183,-0.233 0.333,-0.628 0.333,-0.877 0,-0.249 0.161,-1.137 0.358,-1.974 0.309,-1.314 0.33,-1.633 0.161,-2.354 a 38.459,38.459 0 0 1 -0.408,-2.137 c -0.117,-0.717 -0.293,-1.354 -0.391,-1.416 -0.098,-0.062 -0.234,-0.376 -0.302,-0.697 -0.15,-0.702 -0.878,-1.995 -1.192,-2.115 a 0.389,0.389 0 0 1 -0.226,-0.338 c 0,-0.71 -1.891,-2.024 -2.106,-1.463 m -58.983,2.625 c -0.044,0.114 -0.06,12.246 -0.037,26.958 l 0.043,26.75 17.361,0.083 c 9.549,0.046 17.395,0.121 17.436,0.167 0.421,0.47 0.453,1.282 0.453,11.48 v 10.668 l -0.37,0.259 c -0.33,0.231 -2.273,0.26 -17.566,0.26 -15.526,0 -17.205,0.025 -17.296,0.263 -0.056,0.145 -0.101,2.989 -0.101,6.32 0,3.331 0.045,6.175 0.101,6.32 0.174,0.453 48.068,0.397 48.352,-0.057 0.379,-0.607 0.33,-49.516 -0.05,-49.793 -0.244,-0.179 -3.524,-0.22 -17.44,-0.22 -16.168,0 -17.147,-0.017 -17.26,-0.292 -0.169,-0.411 -0.15,-25.65 0.019,-25.819 0.076,-0.077 7.871,-0.159 17.323,-0.183 15.659,-0.04 17.21,-0.068 17.486,-0.317 0.434,-0.394 0.471,-12.788 0.038,-12.955 -0.568,-0.218 -48.409,-0.112 -48.492,0.108 m 62.5,40.499 c -0.044,0.115 -0.06,11.272 -0.037,24.792 l 0.043,24.584 h 48.833 v -49.5 l -24.38,-0.043 c -19.416,-0.033 -24.396,10e-4 -24.459,0.167 m 59.666,0 c -0.142,0.371 0,49.093 0.145,49.237 0.195,0.194 12.134,0.247 12.445,0.055 0.219,-0.135 0.255,-2.317 0.294,-17.702 l 0.044,-17.548 0.373,-0.288 c 0.344,-0.266 1.193,-0.288 11.087,-0.291 l 10.715,-0.004 0.494,0.365 0.493,0.364 v 17.277 c 0,16.525 0.013,17.288 0.305,17.552 0.451,0.408 11.86,0.42 12.267,0.013 0.237,-0.237 0.258,-2.649 0.22,-24.708 l -0.042,-24.446 -24.38,-0.043 c -19.416,-0.033 -24.396,10e-4 -24.46,0.167 m 59.525,0.055 c -0.262,0.683 -0.108,48.488 0.158,48.867 l 0.259,0.37 h 47.75803 l 0.198,-0.375 c 0.151,-0.285 0.187,-6.187 0.153,-24.708 l -0.044,-24.333 -24.191,-0.043 c -21.95003,-0.038 -24.19903,-0.017 -24.29103,0.222 m 59.14203,-0.054 c -0.044,0.114 -0.06,11.271 -0.036,24.791 l 0.042,24.584 6.287,0.043 6.286,0.044 0.243,-0.377 c 0.2,-0.312 0.251,-1.648 0.296,-7.699 0.05,-6.787 0.076,-7.349 0.358,-7.708 l 0.305,-0.387 h 17.165 c 11.514,0 17.272,-0.056 17.488,-0.172 0.31,-0.166 0.322,-0.418 0.322,-6.798 v -6.624 l -0.521,-0.308 c -0.502,-0.297 -1.165,-0.304 -17.548,-0.185 -14.264,0.104 -17.056,0.087 -17.211,-0.103 -0.315,-0.385 -0.395,-5.118 -0.098,-5.766 l 0.248,-0.539 17.488,-0.044 c 15.329,-0.039 17.508,-0.075 17.65,-0.294 0.292,-0.45 0.127,-12.314 -0.174,-12.504 -0.412,-0.259 -48.491,-0.215 -48.59,0.046 m 59.402,0.067 c -0.191,0.23 -0.237,4.122 -0.28,23.542 -0.051,23.683 -0.027,25.164 0.41,25.601 0.296,0.296 11.702,0.375 12.463,0.085 l 0.428,-0.162 v -7.576 c 0,-6.664 0.031,-7.607 0.262,-7.837 a 8.16,8.16 0 0 0 0.292,-0.302 c 0.016,-0.022 7.867,-0.078 17.446,-0.125 l 17.417,-0.085 0.04,-6.75 c 0.024,-4.087 -0.023,-6.849 -0.119,-7 -0.141,-0.22 -2.266,-0.25 -17.473,-0.25 -14.429,0 -17.359,-0.038 -17.589,-0.229 -0.236,-0.196 -0.276,-0.62 -0.276,-2.954 v -2.725 l 0.492,-0.254 c 0.431,-0.223 2.597,-0.255 17.661,-0.255 16.804,0 17.172,-0.007 17.341,-0.322 0.226,-0.422 0.235,-11.659 0.01,-12.25 l -0.162,-0.428 h -24.067 c -22.183,0 -24.085,0.022 -24.296,0.276 m -202.47503,13.558 c 0.362,0.574 0.2,21.468 -0.169,21.665 -0.367,0.197 -21.221,0.171 -21.419,-0.027 -0.15,-0.15 -0.103,-21.519 0.048,-21.667 0.379,-0.374 21.303,-0.346 21.54,0.029 m 118.32903,0.149 0.417,0.116 v 21.485 l -10.481,0.043 c -7.604,0.031 -10.544,-0.009 -10.709,-0.146 -0.18703,-0.155 -0.22703,-2.026 -0.22703,-10.647 0,-11.036 -0.024,-10.69 0.75003,-10.88 0.523,-0.128 19.784,-0.101 20.25,0.029"
   fill="#1e100f"
   fill-rule="evenodd"
   id="path2" /></svg>
