<?xml version="1.0" encoding="UTF-8" standalone="no"?>
<svg
   inkscape:version="1.2 (dc2aedaf03, 2022-05-15)"
   sodipodi:docname="icon.svg"
   xml:space="preserve"
   style="enable-background:new 0 0 1999.35 1999.35;"
   viewBox="0 0 1999.35 1999.35"
   y="0px"
   x="0px"
   id="Layer_1"
   version="1.1"
   xmlns:inkscape="http://www.inkscape.org/namespaces/inkscape"
   xmlns:sodipodi="http://sodipodi.sourceforge.net/DTD/sodipodi-0.dtd"
   xmlns="http://www.w3.org/2000/svg"
   xmlns:svg="http://www.w3.org/2000/svg"
   xmlns:rdf="http://www.w3.org/1999/02/22-rdf-syntax-ns#"
   xmlns:cc="http://creativecommons.org/ns#"
   xmlns:dc="http://purl.org/dc/elements/1.1/"><metadata
   id="metadata41"><rdf:RDF><cc:Work
       rdf:about=""><dc:format>image/svg+xml</dc:format><dc:type
         rdf:resource="http://purl.org/dc/dcmitype/StillImage" /></cc:Work></rdf:RDF></metadata><defs
   id="defs39"><marker
     inkscape:stockid="Arrow1Send"
     orient="auto"
     refY="0"
     refX="0"
     id="Arrow1Send"
     style="overflow:visible"
     inkscape:isstock="true"><path
       inkscape:connector-curvature="0"
       id="path4714"
       d="M 0,0 5,-5 -12.5,0 5,5 Z"
       style="fill:#000000;fill-opacity:1;fill-rule:evenodd;stroke:#000000;stroke-width:1.00000003pt;stroke-opacity:1"
       transform="matrix(-0.2,0,0,-0.2,-1.2,0)" /></marker><clipPath
     id="clipPath69-0"><path
       inkscape:connector-curvature="0"
       id="path71-2"
       d="m 409.441,126.252 v -43.63 h 147.796 v 43.63" /></clipPath><clipPath
     id="clipPath101-1"><path
       inkscape:connector-curvature="0"
       id="path103-6"
       d="m 409.441,126.252 v -43.63 h 147.796 v 43.63" /></clipPath><clipPath
     id="clipPath69"><path
       inkscape:connector-curvature="0"
       id="path71"
       d="m 409.441,126.252 v -43.63 h 147.796 v 43.63" /></clipPath><clipPath
     id="clipPath101"><path
       inkscape:connector-curvature="0"
       id="path103"
       d="m 409.441,126.252 v -43.63 h 147.796 v 43.63" /></clipPath><marker
     inkscape:isstock="true"
     style="overflow:visible"
     id="Arrow1Send-4"
     refX="0"
     refY="0"
     orient="auto"
     inkscape:stockid="Arrow1Send"><path
       transform="matrix(-0.2,0,0,-0.2,-1.2,0)"
       style="fill:#000000;fill-opacity:1;fill-rule:evenodd;stroke:#000000;stroke-width:1.00000003pt;stroke-opacity:1"
       d="M 0,0 5,-5 -12.5,0 5,5 Z"
       id="path4714-7"
       inkscape:connector-curvature="0" /></marker><clipPath
     id="clipPath69-0-2"><path
       d="m 409.441,126.252 v -43.63 h 147.796 v 43.63"
       id="path71-2-4"
       inkscape:connector-curvature="0" /></clipPath><clipPath
     id="clipPath101-1-9"><path
       d="m 409.441,126.252 v -43.63 h 147.796 v 43.63"
       id="path103-6-8"
       inkscape:connector-curvature="0" /></clipPath><clipPath
     id="clipPath69-9"><path
       d="m 409.441,126.252 v -43.63 h 147.796 v 43.63"
       id="path71-3"
       inkscape:connector-curvature="0" /></clipPath><clipPath
     id="clipPath101-6"><path
       d="m 409.441,126.252 v -43.63 h 147.796 v 43.63"
       id="path103-3"
       inkscape:connector-curvature="0" /></clipPath><marker
     inkscape:stockid="Arrow1Send"
     orient="auto"
     refY="0"
     refX="0"
     id="Arrow1Send-5"
     style="overflow:visible"
     inkscape:isstock="true"><path
       inkscape:connector-curvature="0"
       id="path4714-0"
       d="M 0,0 5,-5 -12.5,0 5,5 Z"
       style="fill:#000000;fill-opacity:1;fill-rule:evenodd;stroke:#000000;stroke-width:1.00000003pt;stroke-opacity:1"
       transform="matrix(-0.2,0,0,-0.2,-1.2,0)" /></marker><clipPath
     id="clipPath69-0-7"><path
       inkscape:connector-curvature="0"
       id="path71-2-8"
       d="m 409.441,126.252 v -43.63 h 147.796 v 43.63" /></clipPath><clipPath
     id="clipPath101-1-0"><path
       inkscape:connector-curvature="0"
       id="path103-6-9"
       d="m 409.441,126.252 v -43.63 h 147.796 v 43.63" /></clipPath><clipPath
     id="clipPath69-2"><path
       inkscape:connector-curvature="0"
       id="path71-4"
       d="m 409.441,126.252 v -43.63 h 147.796 v 43.63" /></clipPath><clipPath
     id="clipPath101-0"><path
       inkscape:connector-curvature="0"
       id="path103-0"
       d="m 409.441,126.252 v -43.63 h 147.796 v 43.63" /></clipPath><marker
     inkscape:isstock="true"
     style="overflow:visible"
     id="Arrow1Send-4-9"
     refX="0"
     refY="0"
     orient="auto"
     inkscape:stockid="Arrow1Send"><path
       transform="matrix(-0.2,0,0,-0.2,-1.2,0)"
       style="fill:#000000;fill-opacity:1;fill-rule:evenodd;stroke:#000000;stroke-width:1.00000003pt;stroke-opacity:1"
       d="M 0,0 5,-5 -12.5,0 5,5 Z"
       id="path4714-7-2"
       inkscape:connector-curvature="0" /></marker><clipPath
     id="clipPath69-0-2-4"><path
       d="m 409.441,126.252 v -43.63 h 147.796 v 43.63"
       id="path71-2-4-2"
       inkscape:connector-curvature="0" /></clipPath><clipPath
     id="clipPath101-1-9-1"><path
       d="m 409.441,126.252 v -43.63 h 147.796 v 43.63"
       id="path103-6-8-6"
       inkscape:connector-curvature="0" /></clipPath><clipPath
     id="clipPath69-9-0"><path
       d="m 409.441,126.252 v -43.63 h 147.796 v 43.63"
       id="path71-3-8"
       inkscape:connector-curvature="0" /></clipPath><clipPath
     id="clipPath101-6-4"><path
       d="m 409.441,126.252 v -43.63 h 147.796 v 43.63"
       id="path103-3-8"
       inkscape:connector-curvature="0" /></clipPath></defs><sodipodi:namedview
   inkscape:current-layer="Layer_1"
   inkscape:window-maximized="1"
   inkscape:window-y="-8"
   inkscape:window-x="-8"
   inkscape:cy="1072.8219"
   inkscape:cx="229.19377"
   inkscape:zoom="0.20506665"
   showgrid="false"
   id="namedview37"
   inkscape:window-height="987"
   inkscape:window-width="1680"
   inkscape:pageshadow="2"
   inkscape:pageopacity="0"
   guidetolerance="10"
   gridtolerance="10"
   objecttolerance="10"
   borderopacity="1"
   bordercolor="#666666"
   pagecolor="#ffffff"
   inkscape:showpageshadow="2"
   inkscape:pagecheckerboard="0"
   inkscape:deskcolor="#d1d1d1" />





<style
   type="text/css"
   id="style2">
	.st0{fill:none;stroke:#000000;stroke-width:2;stroke-linecap:round;stroke-linejoin:round;stroke-miterlimit:10;}
</style><style
   id="style2-5"
   type="text/css">
	.st0{fill:none;stroke:#000000;stroke-width:2;stroke-linecap:round;stroke-linejoin:round;stroke-miterlimit:10;}
</style><style
   type="text/css"
   id="style2-6">
	.st0{fill:none;stroke:#000000;stroke-width:2;stroke-linecap:round;stroke-linejoin:round;stroke-miterlimit:10;}
</style><style
   id="style2-5-8"
   type="text/css">
	.st0{fill:none;stroke:#000000;stroke-width:2;stroke-linecap:round;stroke-linejoin:round;stroke-miterlimit:10;}
</style><path
   inkscape:connector-curvature="0"
   id="path710"
   d="m 1123.0298,1152.3008 19.1394,15.04 140.8114,-1.1568 18.7976,-14.1724 -18.4561,-14.4617 -141.8365,0.5785 z"
   style="fill:#000000;fill-opacity:1;fill-rule:evenodd;stroke:none;stroke-width:5.04193px;stroke-linecap:butt;stroke-linejoin:miter;stroke-opacity:1" /><path
   inkscape:connector-curvature="0"
   id="path712"
   d="m 1123.0298,1539.0153 19.1394,15.0402 140.8114,-1.157 18.7976,-14.1722 -18.4561,-14.4615 -141.8365,0.5784 z"
   style="fill:#000000;fill-opacity:1;fill-rule:evenodd;stroke:none;stroke-width:5.04193px;stroke-linecap:butt;stroke-linejoin:miter;stroke-opacity:1" /><path
   style="fill:#000000;fill-opacity:1;fill-rule:evenodd;stroke:none;stroke-width:5.5029px;stroke-linecap:butt;stroke-linejoin:miter;stroke-opacity:1"
   d="m 1117.1078,1532.0697 17.942,-19.1338 -0.1146,-141.9547 -16.5791,-19.0989 -17.2523,18.4507 -0.5785,142.9823 z"
   id="path714"
   inkscape:connector-curvature="0" /><path
   inkscape:connector-curvature="0"
   id="path716"
   d="m 1306.8726,1532.0697 17.9417,-19.1338 -0.1123,-141.9547 -16.5791,-19.0989 -17.2521,18.4507 -0.5786,142.9823 z"
   style="fill:#000000;fill-opacity:1;fill-rule:evenodd;stroke:none;stroke-width:5.5029px;stroke-linecap:butt;stroke-linejoin:miter;stroke-opacity:1" /><path
   inkscape:connector-curvature="0"
   id="path718"
   d="m 1117.1078,1337.2661 17.942,-19.1336 -0.1146,-141.9549 -16.5791,-19.0989 -17.2523,18.4508 -0.5785,142.9823 z"
   style="fill:#000000;fill-opacity:1;fill-rule:evenodd;stroke:none;stroke-width:5.5029px;stroke-linecap:butt;stroke-linejoin:miter;stroke-opacity:1" /><path
   style="fill:#000000;fill-opacity:1;fill-rule:evenodd;stroke:none;stroke-width:5.5029px;stroke-linecap:butt;stroke-linejoin:miter;stroke-opacity:1"
   d="m 1306.8726,1337.2661 17.9417,-19.1336 -0.1123,-141.9549 -16.5791,-19.0989 -17.2521,18.4508 -0.5786,142.9823 z"
   id="path720"
   inkscape:connector-curvature="0" /><path
   inkscape:connector-curvature="0"
   id="path746"
   d="m 1126.478,1345.3989 19.1394,15.04 140.8114,-1.1568 18.7976,-14.1724 -18.4561,-14.4617 -141.8365,0.5785 z"
   style="fill:#000000;fill-opacity:1;fill-rule:evenodd;stroke:none;stroke-width:5.04193px;stroke-linecap:butt;stroke-linejoin:miter;stroke-opacity:1" /><path
   inkscape:connector-curvature="0"
   id="path772"
   d="m 809.2454,1152.3008 19.1394,15.04 140.8114,-1.1568 18.7976,-14.1724 -18.4561,-14.4617 -141.8365,0.5785 z"
   style="fill:#000000;fill-opacity:1;fill-rule:evenodd;stroke:none;stroke-width:5.04193px;stroke-linecap:butt;stroke-linejoin:miter;stroke-opacity:1" /><path
   inkscape:connector-curvature="0"
   id="path774"
   d="m 809.2454,1539.0153 19.1394,15.0402 140.8114,-1.157 18.7976,-14.1722 -18.4561,-14.4615 -141.8365,0.5784 z"
   style="fill:#000000;fill-opacity:1;fill-rule:evenodd;stroke:none;stroke-width:5.04193px;stroke-linecap:butt;stroke-linejoin:miter;stroke-opacity:1" /><path
   style="fill:#000000;fill-opacity:1;fill-rule:evenodd;stroke:none;stroke-width:5.5029px;stroke-linecap:butt;stroke-linejoin:miter;stroke-opacity:1"
   d="m 803.3234,1532.0697 17.942,-19.1338 -0.1146,-141.9547 -16.5791,-19.0989 -17.2523,18.4507 -0.5785,142.9823 z"
   id="path776"
   inkscape:connector-curvature="0" /><path
   style="fill:#000000;fill-opacity:1;fill-rule:evenodd;stroke:none;stroke-width:5.5029px;stroke-linecap:butt;stroke-linejoin:miter;stroke-opacity:1"
   d="m 993.0882,1337.2661 17.9417,-19.1336 -0.1123,-141.9549 -16.5791,-19.0989 -17.2521,18.4508 -0.5786,142.9823 z"
   id="path778"
   inkscape:connector-curvature="0" /><path
   inkscape:connector-curvature="0"
   id="path780"
   d="m 812.6936,1345.3989 19.1394,15.04 140.8114,-1.1568 18.7976,-14.1724 -18.4561,-14.4617 -141.8365,0.5785 z"
   style="fill:#000000;fill-opacity:1;fill-rule:evenodd;stroke:none;stroke-width:5.04193px;stroke-linecap:butt;stroke-linejoin:miter;stroke-opacity:1" /><path
   inkscape:connector-curvature="0"
   id="path806"
   d="m 907.51272,574.86713 17.66817,13.42132 129.98731,-1.0323 17.3527,-12.64709 -17.0374,-12.90527 -130.93366,0.51624 z"
   style="fill:#000000;fill-opacity:1;fill-rule:evenodd;stroke:none;stroke-width:4.57617px;stroke-linecap:butt;stroke-linejoin:miter;stroke-opacity:1" /><path
   inkscape:connector-curvature="0"
   id="path808"
   d="m 907.51272,919.96155 17.66817,13.4215 129.98731,-1.03248 17.3527,-12.64692 -17.0374,-12.90508 -130.93366,0.51615 z"
   style="fill:#000000;fill-opacity:1;fill-rule:evenodd;stroke:none;stroke-width:4.57617px;stroke-linecap:butt;stroke-linejoin:miter;stroke-opacity:1" /><path
   style="fill:#000000;fill-opacity:1;fill-rule:evenodd;stroke:none;stroke-width:4.99456px;stroke-linecap:butt;stroke-linejoin:miter;stroke-opacity:1"
   d="m 902.04594,913.76347 16.56281,-17.07453 -0.10579,-126.67685 -15.30468,-17.04338 -15.92613,16.46494 -0.53403,127.59386 z"
   id="path810"
   inkscape:connector-curvature="0" /><path
   inkscape:connector-curvature="0"
   id="path812"
   d="m 1077.2237,913.76347 16.5625,-17.07453 -0.1037,-126.67685 -15.3046,-17.04338 -15.926,16.46494 -0.5341,127.59386 z"
   style="fill:#000000;fill-opacity:1;fill-rule:evenodd;stroke:none;stroke-width:4.99456px;stroke-linecap:butt;stroke-linejoin:miter;stroke-opacity:1" /><path
   inkscape:connector-curvature="0"
   id="path814"
   d="m 902.04594,739.92557 16.56281,-17.07435 -0.10579,-126.67703 -15.30468,-17.04338 -15.92613,16.46504 -0.53403,127.59385 z"
   style="fill:#000000;fill-opacity:1;fill-rule:evenodd;stroke:none;stroke-width:4.99456px;stroke-linecap:butt;stroke-linejoin:miter;stroke-opacity:1" /><path
   style="fill:#000000;fill-opacity:1;fill-rule:evenodd;stroke:none;stroke-width:4.99456px;stroke-linecap:butt;stroke-linejoin:miter;stroke-opacity:1"
   d="m 1077.2237,739.92557 16.5625,-17.07435 -0.1037,-126.67703 -15.3046,-17.04338 -15.926,16.46504 -0.5341,127.59385 z"
   id="path816"
   inkscape:connector-curvature="0" /><path
   inkscape:connector-curvature="0"
   id="path842"
   d="m 621.31376,571.41895 17.66817,13.42132 129.98731,-1.0323 17.3527,-12.64709 -17.0374,-12.90527 -130.93366,0.51624 z"
   style="fill:#000000;fill-opacity:1;fill-rule:evenodd;stroke:none;stroke-width:4.57617px;stroke-linecap:butt;stroke-linejoin:miter;stroke-opacity:1" /><path
   inkscape:connector-curvature="0"
   id="path844"
   d="m 621.31376,916.51337 17.66817,13.4215 129.98731,-1.03248 17.3527,-12.64692 -17.0374,-12.90508 -130.93366,0.51615 z"
   style="fill:#000000;fill-opacity:1;fill-rule:evenodd;stroke:none;stroke-width:4.57617px;stroke-linecap:butt;stroke-linejoin:miter;stroke-opacity:1" /><path
   inkscape:connector-curvature="0"
   id="path846"
   d="m 791.02474,910.31529 16.5625,-17.07453 -0.1037,-126.67685 -15.3046,-17.04338 -15.926,16.46494 -0.5341,127.59386 z"
   style="fill:#000000;fill-opacity:1;fill-rule:evenodd;stroke:none;stroke-width:4.99456px;stroke-linecap:butt;stroke-linejoin:miter;stroke-opacity:1" /><path
   style="fill:#000000;fill-opacity:1;fill-rule:evenodd;stroke:none;stroke-width:4.99456px;stroke-linecap:butt;stroke-linejoin:miter;stroke-opacity:1"
   d="m 791.02474,736.47739 16.5625,-17.07435 -0.1037,-126.67703 -15.3046,-17.04338 -15.926,16.46504 -0.5341,127.59385 z"
   id="path848"
   inkscape:connector-curvature="0" /><path
   inkscape:connector-curvature="0"
   id="path874"
   d="m 624.76194,747.27614 17.66817,13.42132 129.98731,-1.0323 17.3527,-12.64709 -17.0374,-12.90527 -130.93366,0.51624 z"
   style="fill:#000000;fill-opacity:1;fill-rule:evenodd;stroke:none;stroke-width:4.57617px;stroke-linecap:butt;stroke-linejoin:miter;stroke-opacity:1" /><path
   inkscape:connector-curvature="0"
   id="path900"
   d="m 1480.1906,1361.6636 9.4908,7.2096 69.8256,-0.5546 9.3213,-6.7937 -9.1519,-6.9323 -70.334,0.2773 z"
   style="fill:#000000;fill-opacity:1;fill-rule:evenodd;stroke:none;stroke-width:2.45819px;stroke-linecap:butt;stroke-linejoin:miter;stroke-opacity:1" /><path
   inkscape:connector-curvature="0"
   id="path902"
   d="m 1480.1906,1547.0386 9.4908,7.2097 69.8256,-0.5546 9.3213,-6.7936 -9.1519,-6.9324 -70.334,0.2774 z"
   style="fill:#000000;fill-opacity:1;fill-rule:evenodd;stroke:none;stroke-width:2.45819px;stroke-linecap:butt;stroke-linejoin:miter;stroke-opacity:1" /><path
   inkscape:connector-curvature="0"
   id="path904"
   d="m 1571.3545,1543.7092 8.8969,-9.172 -0.056,-68.0473 -8.2212,-9.1552 -8.5551,8.8446 -0.2868,68.5397 z"
   style="fill:#000000;fill-opacity:1;fill-rule:evenodd;stroke:none;stroke-width:2.68294px;stroke-linecap:butt;stroke-linejoin:miter;stroke-opacity:1" /><path
   style="fill:#000000;fill-opacity:1;fill-rule:evenodd;stroke:none;stroke-width:2.68294px;stroke-linecap:butt;stroke-linejoin:miter;stroke-opacity:1"
   d="m 1571.3545,1450.3283 8.8969,-9.1719 -0.056,-68.0473 -8.2212,-9.1553 -8.5551,8.8446 -0.2868,68.5399 z"
   id="path906"
   inkscape:connector-curvature="0" /><path
   inkscape:connector-curvature="0"
   id="path908"
   d="m 1482.0428,1456.1291 9.4909,7.2095 69.8256,-0.5544 9.3214,-6.7937 -9.1521,-6.9324 -70.3339,0.2774 z"
   style="fill:#000000;fill-opacity:1;fill-rule:evenodd;stroke:none;stroke-width:2.45819px;stroke-linecap:butt;stroke-linejoin:miter;stroke-opacity:1" /><path
   style="fill:#000000;fill-opacity:1;fill-rule:evenodd;stroke-width:4.21661;stroke-miterlimit:4;stroke-dasharray:none"
   id="path934"
   sodipodi:type="arc"
   sodipodi:cx="1158.6047"
   sodipodi:cy="926.78992"
   sodipodi:rx="12.751516"
   sodipodi:ry="12.751516"
   sodipodi:start="2.4065996"
   sodipodi:end="2.4059364"
   sodipodi:open="true"
   sodipodi:arc-type="arc"
   d="m 1149.1452,935.34085 a 12.751516,12.751516 0 0 1 0.907,-18.00904 12.751516,12.751516 0 0 1 18.0092,0.90403 12.751516,12.751516 0 0 1 -0.901,18.00935 12.751516,12.751516 0 0 1 -18.0095,-0.89806" /><path
   style="fill:#000000;fill-opacity:1;fill-rule:evenodd;stroke-width:5.35683;stroke-miterlimit:4;stroke-dasharray:none"
   id="path960"
   sodipodi:type="arc"
   sodipodi:cx="1399.9773"
   sodipodi:cy="1540.566"
   sodipodi:rx="16.199697"
   sodipodi:ry="16.199697"
   sodipodi:start="2.4065996"
   sodipodi:end="2.4059364"
   sodipodi:open="true"
   sodipodi:arc-type="arc"
   d="m 1387.9598,1551.4293 a 16.199697,16.199697 0 0 1 1.1523,-22.879 16.199697,16.199697 0 0 1 22.8791,1.1485 16.199697,16.199697 0 0 1 -1.1447,22.8793 16.199697,16.199697 0 0 1 -22.8795,-1.1409" /><path
   inkscape:connector-curvature="0"
   id="path986"
   d="m 1237.1059,760.94751 8.5074,6.46251 62.59,-0.49713 8.3554,-6.08971 -8.2036,-6.21395 -63.0457,0.24857 z"
   style="fill:#000000;fill-opacity:1;fill-rule:evenodd;stroke:none;stroke-width:2.20346px;stroke-linecap:butt;stroke-linejoin:miter;stroke-opacity:1" /><path
   inkscape:connector-curvature="0"
   id="path988"
   d="m 1237.1059,927.11325 8.5074,6.4626 62.59,-0.49713 8.3554,-6.08962 -8.2036,-6.21404 -63.0457,0.24865 z"
   style="fill:#000000;fill-opacity:1;fill-rule:evenodd;stroke:none;stroke-width:2.20346px;stroke-linecap:butt;stroke-linejoin:miter;stroke-opacity:1" /><path
   inkscape:connector-curvature="0"
   id="path990"
   d="m 1318.8231,924.12885 7.975,-8.22156 -0.05,-60.99598 -7.3693,-8.20651 -7.6686,7.92809 -0.2571,61.43736 z"
   style="fill:#000000;fill-opacity:1;fill-rule:evenodd;stroke:none;stroke-width:2.40492px;stroke-linecap:butt;stroke-linejoin:miter;stroke-opacity:1" /><path
   style="fill:#000000;fill-opacity:1;fill-rule:evenodd;stroke:none;stroke-width:2.40492px;stroke-linecap:butt;stroke-linejoin:miter;stroke-opacity:1"
   d="m 1318.8231,840.42443 7.975,-8.22147 -0.05,-60.99598 -7.3693,-8.20659 -7.6686,7.92809 -0.2571,61.43753 z"
   id="path992"
   inkscape:connector-curvature="0" /><path
   inkscape:connector-curvature="0"
   id="path994"
   d="m 1238.7662,845.62413 8.5074,6.46243 62.59,-0.49695 8.3555,-6.08971 -8.2037,-6.21404 -63.0456,0.24865 z"
   style="fill:#000000;fill-opacity:1;fill-rule:evenodd;stroke:none;stroke-width:2.20346px;stroke-linecap:butt;stroke-linejoin:miter;stroke-opacity:1" /><path
   style="fill:none;fill-rule:evenodd;stroke:#000000;stroke-width:5.47032;stroke-miterlimit:4;stroke-dasharray:none;stroke-opacity:1"
   id="path1020"
   sodipodi:type="arc"
   sodipodi:cx="1483.5132"
   sodipodi:cy="1148.1354"
   sodipodi:rx="14.521412"
   sodipodi:ry="14.915239"
   sodipodi:start="2.4065996"
   sodipodi:end="2.4059364"
   sodipodi:open="true"
   sodipodi:arc-type="arc"
   d="m 1472.7407,1158.1373 a 14.521412,14.915239 0 0 1 1.0329,-21.0649 14.521412,14.915239 0 0 1 20.5089,1.0574 14.521412,14.915239 0 0 1 -1.0262,21.0653 14.521412,14.915239 0 0 1 -20.5092,-1.0505" /><path
   sodipodi:open="true"
   sodipodi:end="2.4059364"
   sodipodi:start="2.4065996"
   sodipodi:ry="14.015144"
   sodipodi:rx="14.521412"
   sodipodi:cy="1293.2924"
   sodipodi:cx="1567.8593"
   sodipodi:type="arc"
   id="path1022"
   style="fill:none;fill-rule:evenodd;stroke:#000000;stroke-width:5.47032;stroke-miterlimit:4;stroke-dasharray:none;stroke-opacity:1"
   sodipodi:arc-type="arc"
   d="m 1557.0868,1302.6907 a 14.521412,14.015144 0 0 1 1.0329,-19.7937 14.521412,14.015144 0 0 1 20.5088,0.9936 14.521412,14.015144 0 0 1 -1.0261,19.794 14.521412,14.015144 0 0 1 -20.5092,-0.987" /><path
   style="fill:none;fill-rule:evenodd;stroke:#000000;stroke-width:7.75066;stroke-linecap:round;stroke-linejoin:miter;stroke-miterlimit:4;stroke-dasharray:none;stroke-opacity:1"
   d="M 1575.2159,1135.8316 1480.035,1304.204"
   id="path1024"
   inkscape:connector-curvature="0"
   sodipodi:nodetypes="cc" /><path
   sodipodi:open="true"
   sodipodi:end="2.4059364"
   sodipodi:start="2.4065996"
   sodipodi:ry="11.130412"
   sodipodi:rx="11.532475"
   sodipodi:cy="569.1745"
   sodipodi:cx="1236.834"
   sodipodi:type="arc"
   id="path1050"
   style="fill:none;fill-rule:evenodd;stroke:#000000;stroke-width:4.34437;stroke-miterlimit:4;stroke-dasharray:none;stroke-opacity:1"
   sodipodi:arc-type="arc"
   d="m 1228.2788,576.63835 a 11.532475,11.130412 0 0 1 0.8203,-15.71955 11.532475,11.130412 0 0 1 16.2875,0.78911 11.532475,11.130412 0 0 1 -0.8149,15.71981 11.532475,11.130412 0 0 1 -16.2878,-0.78389" /><path
   style="fill:#000000;fill-opacity:1;fill-rule:evenodd;stroke-width:2.67896"
   id="path1076"
   sodipodi:type="arc"
   sodipodi:cx="1026.7783"
   sodipodi:cy="410.97021"
   sodipodi:rx="9.4501305"
   sodipodi:ry="9.4501305"
   sodipodi:start="2.4065996"
   sodipodi:end="2.4059364"
   sodipodi:open="true"
   sodipodi:arc-type="arc"
   d="m 1019.7679,417.3073 a 9.4501305,9.4501305 0 0 1 0.6722,-13.34648 9.4501305,9.4501305 0 0 1 13.3466,0.66998 9.4501305,9.4501305 0 0 1 -0.6678,13.3467 9.4501305,9.4501305 0 0 1 -13.3468,-0.66555" /><path
   style="fill:none;fill-rule:evenodd;stroke:#000000;stroke-width:8.15152;stroke-linecap:round;stroke-linejoin:miter;stroke-miterlimit:4;stroke-dasharray:none;stroke-opacity:1"
   d="m 1044.3516,390.12146 c 0,0 12.2195,6.35232 12.2195,21.65872 0,15.62592 -10.9616,20.30543 -10.9616,20.30543"
   id="path1078"
   sodipodi:nodetypes="csc" /><path
   style="fill:none;fill-rule:evenodd;stroke:#000000;stroke-width:8.15152;stroke-linecap:round;stroke-linejoin:miter;stroke-miterlimit:4;stroke-dasharray:none;stroke-opacity:1"
   d="m 1055.6665,372.99167 c 0,0 22.1957,11.53838 22.1957,39.34093 0,28.38294 -19.9106,36.88279 -19.9106,36.88279"
   id="path1080"
   sodipodi:nodetypes="csc" /><path
   style="fill:none;fill-rule:evenodd;stroke:#000000;stroke-width:8.15152;stroke-linecap:round;stroke-linejoin:miter;stroke-miterlimit:4;stroke-dasharray:none;stroke-opacity:1"
   d="m 1009.1707,390.12146 c 0,0 -12.21959,6.35232 -12.21959,21.65872 0,15.62592 10.96149,20.30543 10.96149,20.30543"
   id="path1082"
   sodipodi:nodetypes="csc" /><path
   style="fill:none;fill-rule:evenodd;stroke:#000000;stroke-width:8.15152;stroke-linecap:round;stroke-linejoin:miter;stroke-miterlimit:4;stroke-dasharray:none;stroke-opacity:1"
   d="m 997.8556,372.99167 c 0,0 -22.19571,11.53838 -22.19571,39.34093 0,28.38294 19.91072,36.88279 19.91072,36.88279"
   id="path1084"
   sodipodi:nodetypes="csc" /><rect
   style="fill:none;fill-opacity:1;fill-rule:evenodd;stroke:#000000;stroke-width:7.77055;stroke-linecap:round;stroke-linejoin:miter;stroke-miterlimit:4;stroke-dasharray:none;stroke-dashoffset:0;stroke-opacity:1;paint-order:markers stroke fill"
   id="rect1110"
   width="120.73151"
   height="68.84536"
   x="1169.5403"
   y="381.74905"
   ry="8.8028088" /><rect
   ry="4.523726"
   y="397.94693"
   x="1288.8223"
   height="35.37933"
   width="16.175568"
   id="rect1112"
   style="fill:#000000;fill-opacity:1;fill-rule:evenodd;stroke:#000000;stroke-width:2.03896;stroke-linecap:round;stroke-linejoin:miter;stroke-miterlimit:4;stroke-dasharray:none;stroke-dashoffset:0;stroke-opacity:1;paint-order:markers stroke fill" /><rect
   ry="0.52052557"
   y="395.47971"
   x="1185.7955"
   height="41.547832"
   width="4.3463192"
   id="rect1114"
   style="fill:#000000;fill-opacity:1;fill-rule:evenodd;stroke:#000000;stroke-width:7.49503;stroke-linecap:round;stroke-linejoin:miter;stroke-miterlimit:4;stroke-dasharray:none;stroke-dashoffset:0;stroke-opacity:1;paint-order:markers stroke fill" /><rect
   style="fill:#000000;fill-opacity:1;fill-rule:evenodd;stroke:#000000;stroke-width:7.49503;stroke-linecap:round;stroke-linejoin:miter;stroke-miterlimit:4;stroke-dasharray:none;stroke-dashoffset:0;stroke-opacity:1;paint-order:markers stroke fill"
   id="rect1116"
   width="4.3463192"
   height="41.547832"
   x="1208.7687"
   y="395.47971"
   ry="0.52052557" /><rect
   ry="0.52052557"
   y="395.47971"
   x="1229.8313"
   height="41.547832"
   width="4.3463192"
   id="rect1118"
   style="fill:#000000;fill-opacity:1;fill-rule:evenodd;stroke:#000000;stroke-width:7.49503;stroke-linecap:round;stroke-linejoin:miter;stroke-miterlimit:4;stroke-dasharray:none;stroke-dashoffset:0;stroke-opacity:1;paint-order:markers stroke fill" /><rect
   style="fill:#000000;fill-opacity:1;fill-rule:evenodd;stroke:#000000;stroke-width:7.49503;stroke-linecap:round;stroke-linejoin:miter;stroke-miterlimit:4;stroke-dasharray:none;stroke-dashoffset:0;stroke-opacity:1;paint-order:markers stroke fill"
   id="rect1120"
   width="4.3463192"
   height="41.547832"
   x="1251.3723"
   y="395.47971"
   ry="0.52052557" /><rect
   ry="0.52052557"
   y="395.47971"
   x="1272.4351"
   height="41.547832"
   width="4.3463192"
   id="rect1122"
   style="fill:#000000;fill-opacity:1;fill-rule:evenodd;stroke:#000000;stroke-width:7.49503;stroke-linecap:round;stroke-linejoin:miter;stroke-miterlimit:4;stroke-dasharray:none;stroke-dashoffset:0;stroke-opacity:1;paint-order:markers stroke fill" /><path
   inkscape:connector-curvature="0"
   id="path1148"
   d="m 1268.1717,590.03274 5.8848,4.47028 43.2951,-0.34388 5.7796,-4.2124 -5.6746,-4.29835 -43.6103,0.17194 z"
   style="fill:#000000;fill-opacity:1;fill-rule:evenodd;stroke:none;stroke-width:1.52419px;stroke-linecap:butt;stroke-linejoin:miter;stroke-opacity:1" /><path
   inkscape:connector-curvature="0"
   id="path1150"
   d="m 1268.1717,704.97378 5.8848,4.47035 43.2951,-0.34388 5.7796,-4.21234 -5.6746,-4.29841 -43.6103,0.172 z"
   style="fill:#000000;fill-opacity:1;fill-rule:evenodd;stroke:none;stroke-width:1.52419px;stroke-linecap:butt;stroke-linejoin:miter;stroke-opacity:1" /><path
   inkscape:connector-curvature="0"
   id="path1152"
   d="m 1262.6976,702.9094 5.5165,-5.68706 -0.035,-42.19246 -5.0975,-5.67665 -5.3046,5.48406 -0.1778,42.49777 z"
   style="fill:#000000;fill-opacity:1;fill-rule:evenodd;stroke:none;stroke-width:1.66354px;stroke-linecap:butt;stroke-linejoin:miter;stroke-opacity:1" /><path
   style="fill:#000000;fill-opacity:1;fill-rule:evenodd;stroke:none;stroke-width:1.66354px;stroke-linecap:butt;stroke-linejoin:miter;stroke-opacity:1"
   d="m 1262.6976,645.00894 5.5165,-5.687 -0.035,-42.19246 -5.0975,-5.67671 -5.3046,5.48406 -0.1778,42.49789 z"
   id="path1154"
   inkscape:connector-curvature="0" /><path
   style="fill:none;fill-rule:evenodd;stroke:#000000;stroke-width:3.3077px;stroke-linecap:butt;stroke-linejoin:miter;stroke-opacity:1"
   d="M 477.84588,1033.6489 H 1601.9084"
   id="path1180" /><path
   style="fill:none;fill-rule:evenodd;stroke:#000000;stroke-width:21.1388;stroke-linecap:butt;stroke-linejoin:miter;stroke-miterlimit:4;stroke-dasharray:none;stroke-opacity:1"
   d="m 713.35812,162.30328 c 695.43078,0.14509 2.79563,-3.61611 695.93718,2.57757 436.3467,3.89905 428.5988,347.8672 434.8124,532.39801 10.9967,326.59284 17.9789,449.68614 -4.7814,749.48274 -30.2041,397.8528 -295.5623,449.8274 -478.118,449.6898 -651.21228,-0.4909 -3.2226,-2.5355 -647.85018,-2.5844 C 311.4408,1893.8365 217.04708,1659.8493 208.94339,1428.6707 195.21857,1037.1322 194.7877,942.47622 211.33397,630.08387 233.42153,213.07269 478.10478,162.2542 713.35812,162.30328 Z"
   id="path1206"
   sodipodi:nodetypes="sssssssss" /><path
   style="fill:none;fill-rule:evenodd;stroke:#000000;stroke-width:22.121;stroke-linecap:butt;stroke-linejoin:miter;stroke-miterlimit:4;stroke-dasharray:none;stroke-opacity:1"
   d="m 752.75773,225.6122 c 253.45317,-6.3834 403.68217,-6.55109 645.70917,9.3707 373.9806,24.60236 374.4585,283.06414 387.7152,480.03493 20.5127,304.78447 10.2413,363.04427 -4.4434,700.84327 -17.1253,393.9317 -322.508,415.1334 -444.3477,420.5058 -265.4578,11.7052 -355.44629,0.2419 -602.09125,-2.4168 C 343.36441,1829.7256 274.04416,1615.1198 266.51282,1398.9441 253.75748,1032.8154 255.73344,958.47596 268.73457,652.18363 285.95285,246.54373 564.29574,230.3588 752.75773,225.6122 Z"
   id="path1328"
   sodipodi:nodetypes="sssssssss" /><path
   style="fill:none;fill-rule:evenodd;stroke:#000000;stroke-width:10.3219;stroke-linecap:butt;stroke-linejoin:miter;stroke-miterlimit:4;stroke-dasharray:none;stroke-opacity:1"
   d="m 774.90457,302.50753 c 224.44462,-12.29577 351.65063,1.75145 566.68153,4.55775 362.6003,4.73218 343.6429,119.10577 369.2517,423.65071 11.6078,138.0407 3.8744,300.07341 -0.4612,634.83621 -5.219,402.9748 -204.2907,387.8968 -389.4666,393.8924 -294.8159,9.5454 -638.32434,-0.8881 -638.32434,-0.8881 -330.75283,-10.3299 -326.30597,-166.7621 -338.78042,-408.1133 -16.8862,-326.7109 -9.55691,-393.39447 1.96984,-666.95277 15.26543,-362.28842 99.97672,-362.9509 429.12949,-380.9829 z"
   id="path1354"
   sodipodi:nodetypes="sssssssss" /><path
   style="fill:none;fill-rule:evenodd;stroke:#000000;stroke-width:11.8942;stroke-miterlimit:4;stroke-dasharray:none;stroke-opacity:1"
   id="path1380"
   sodipodi:type="arc"
   sodipodi:cx="551.9527"
   sodipodi:cy="1473.7125"
   sodipodi:rx="31.574257"
   sodipodi:ry="32.430565"
   sodipodi:start="2.4065996"
   sodipodi:end="2.4059364"
   sodipodi:open="true"
   sodipodi:arc-type="arc"
   d="m 528.5298,1495.4599 a 31.574257,32.430565 0 0 1 2.24589,-45.8019 31.574257,32.430565 0 0 1 44.59289,2.2992 31.574257,32.430565 0 0 1 -2.23111,45.8026 31.574257,32.430565 0 0 1 -44.59363,-2.284" /><path
   style="fill:none;fill-rule:evenodd;stroke:#000000;stroke-width:15;stroke-linecap:round;stroke-linejoin:miter;stroke-miterlimit:4;stroke-dasharray:none;stroke-opacity:1"
   d="m 610.45934,1420.4347 -19.06467,17.2583"
   id="path1406"
   inkscape:connector-curvature="0"
   sodipodi:nodetypes="cc" /><path
   style="fill:none;fill-rule:evenodd;stroke:#000000;stroke-width:15;stroke-linecap:round;stroke-linejoin:miter;stroke-miterlimit:4;stroke-dasharray:none;stroke-opacity:1"
   d="m 516.49643,1506.6392 -19.06467,17.2583"
   id="path2011"
   inkscape:connector-curvature="0"
   sodipodi:nodetypes="cc" /><path
   style="fill:none;fill-rule:evenodd;stroke:#000000;stroke-width:15;stroke-linecap:round;stroke-linejoin:miter;stroke-miterlimit:4;stroke-dasharray:none;stroke-opacity:1"
   d="m 630.55855,1472.7944 -25.71353,-0.3533"
   id="path2037"
   inkscape:connector-curvature="0"
   sodipodi:nodetypes="cc" /><path
   style="fill:none;fill-rule:evenodd;stroke:#000000;stroke-width:15;stroke-linecap:round;stroke-linejoin:miter;stroke-miterlimit:4;stroke-dasharray:none;stroke-opacity:1"
   d="m 503.04608,1471.8911 -25.71353,-0.3533"
   id="path2039"
   inkscape:connector-curvature="0"
   sodipodi:nodetypes="cc" /><path
   style="fill:none;fill-rule:evenodd;stroke:#000000;stroke-width:15;stroke-linecap:round;stroke-linejoin:miter;stroke-miterlimit:4;stroke-dasharray:none;stroke-opacity:1"
   d="m 608.70041,1525.7558 -18.27853,-18.0889"
   id="path2065"
   inkscape:connector-curvature="0"
   sodipodi:nodetypes="cc" /><path
   style="fill:none;fill-rule:evenodd;stroke:#000000;stroke-width:15;stroke-linecap:round;stroke-linejoin:miter;stroke-miterlimit:4;stroke-dasharray:none;stroke-opacity:1"
   d="m 517.46922,1436.6653 -18.27853,-18.0889"
   id="path2067"
   inkscape:connector-curvature="0"
   sodipodi:nodetypes="cc" /><path
   style="fill:none;fill-rule:evenodd;stroke:#000000;stroke-width:15;stroke-linecap:round;stroke-linejoin:miter;stroke-miterlimit:4;stroke-dasharray:none;stroke-opacity:1"
   d="m 552.67854,1548.7712 0.5677,-25.7097"
   id="path2093"
   inkscape:connector-curvature="0"
   sodipodi:nodetypes="cc" /><path
   style="fill:none;fill-rule:evenodd;stroke:#000000;stroke-width:15;stroke-linecap:round;stroke-linejoin:miter;stroke-miterlimit:4;stroke-dasharray:none;stroke-opacity:1"
   d="m 554.64486,1421.2707 0.5677,-25.7097"
   id="path2095"
   inkscape:connector-curvature="0"
   sodipodi:nodetypes="cc" /><path
   style="fill:none;stroke:#000000;stroke-width:12;stroke-linecap:butt;stroke-linejoin:miter;stroke-opacity:1;stroke-dasharray:none"
   d="m 1493.4169,828.99876 c 0,0 -21.6519,30.90198 -18.2868,47.54551 5.9235,29.29695 32.3158,63.26058 62.175,64.61315 24.174,1.09504 45.1069,-25.39933 54.8602,-47.54552 6.0623,-13.76545 -1.2191,-45.10729 -1.2191,-45.10729 l -6.0956,-41.44993 c 0,0 -18.0071,13.28294 -21.9441,23.16319 -3.7606,9.43764 0,30.4779 0,30.4779 0,0 -16.971,-17.92294 -18.2867,-30.47789 -3.8481,-36.7197 2.4382,-57.29845 2.4382,-57.29845 0,0 -28.401,14.75677 -36.5735,43.88817 -8.0679,28.75864 -1.2191,56.07933 -1.2191,56.07933 z"
   id="path2534"
   sodipodi:nodetypes="caaaccacscscc" /></svg>
