<?xml version="1.0" encoding="UTF-8" standalone="no"?>
<svg
   xmlns:dc="http://purl.org/dc/elements/1.1/"
   xmlns:cc="http://creativecommons.org/ns#"
   xmlns:rdf="http://www.w3.org/1999/02/22-rdf-syntax-ns#"
   xmlns:svg="http://www.w3.org/2000/svg"
   xmlns="http://www.w3.org/2000/svg"
   xmlns:sodipodi="http://sodipodi.sourceforge.net/DTD/sodipodi-0.dtd"
   xmlns:inkscape="http://www.inkscape.org/namespaces/inkscape"
   version="1.1"
   id="Layer_1"
   x="0px"
   y="0px"
   viewBox="0 0 1999.35 1999.35"
   style="enable-background:new 0 0 1999.35 1999.35;"
   xml:space="preserve"
   sodipodi:docname="icon.svg"
   inkscape:version="1.0 (4035a4fb49, 2020-05-01)"><metadata
   id="metadata41"><rdf:RDF><cc:Work
       rdf:about=""><dc:format>image/svg+xml</dc:format><dc:type
         rdf:resource="http://purl.org/dc/dcmitype/StillImage" /></cc:Work></rdf:RDF></metadata><defs
   id="defs39" /><sodipodi:namedview
   inkscape:document-rotation="0"
   pagecolor="#ffffff"
   bordercolor="#666666"
   borderopacity="1"
   objecttolerance="10"
   gridtolerance="10"
   guidetolerance="10"
   inkscape:pageopacity="0"
   inkscape:pageshadow="2"
   inkscape:window-width="1680"
   inkscape:window-height="987"
   id="namedview37"
   showgrid="false"
   inkscape:zoom="0.036251005"
   inkscape:cx="-3324.3466"
   inkscape:cy="4061.491"
   inkscape:window-x="-8"
   inkscape:window-y="-8"
   inkscape:window-maximized="1"
   inkscape:current-layer="Layer_1" />





<path
   sodipodi:nodetypes="ccccccccccccsscc"
   id="path857"
   d="m 401.2415,319.86552 1005.6182,-19.96302 214.5644,14.62939 36.5734,34.13524 -0.3048,1189.85707 -34.1352,40.8404 -87.4715,5.486 2.4382,-173.1145 -665.63726,32.3066 0.30478,148.7321 -17.3724,40.8404 -109.72043,7.3147 -324.28481,-17.0676 c -27.57121,-1.4511 -60.89967,-28.47 -60.95579,-56.0793 L 358.42006,368.17298 Z"
   style="fill:none;stroke:#000000;stroke-width:9;stroke-linecap:butt;stroke-linejoin:miter;stroke-opacity:1;stroke-miterlimit:4;stroke-dasharray:none" /><path
   sodipodi:nodetypes="cccc"
   id="path859"
   d="m 550.71392,329.54 -25.48416,44.93773 3.86651,1217.68757 34.13525,39.0117"
   style="fill:none;stroke:#000000;stroke-width:9;stroke-linecap:butt;stroke-linejoin:miter;stroke-opacity:1;stroke-miterlimit:4;stroke-dasharray:none" /><path
   sodipodi:nodetypes="ccc"
   id="path861"
   d="M 1621.4241,314.53189 748.53712,341.35243 401.2415,319.86552"
   style="fill:none;stroke:#000000;stroke-width:9;stroke-linecap:butt;stroke-linejoin:miter;stroke-opacity:1;stroke-miterlimit:4;stroke-dasharray:none" /><path
   sodipodi:nodetypes="cccc"
   id="path863"
   d="m 746.09889,1640.9299 -21.02974,-42.0595 -0.91434,-1216.06803 24.38231,-41.44994"
   style="fill:none;stroke:#000000;stroke-width:9;stroke-linecap:butt;stroke-linejoin:miter;stroke-opacity:1;stroke-miterlimit:4;stroke-dasharray:none" /><path
   id="path865"
   d="M 1657.9975,348.66713 777.7959,380.36414 748.53712,341.35243"
   style="fill:none;stroke:#000000;stroke-width:9;stroke-linecap:butt;stroke-linejoin:miter;stroke-opacity:1;stroke-miterlimit:4;stroke-dasharray:none" /><path
   sodipodi:nodetypes="ccc"
   id="path867"
   d="m 777.7959,380.36414 -14.01983,1218.20146 -17.67718,42.3643"
   style="fill:none;stroke:#000000;stroke-width:9;stroke-linecap:butt;stroke-linejoin:miter;stroke-opacity:1;stroke-miterlimit:4;stroke-dasharray:none" /><path
   sodipodi:nodetypes="cccc"
   id="path869"
   d="m 1657.6927,1538.5242 -106.825,5.9432 1.6763,-138.2173 -14.0198,5.486"
   style="fill:none;stroke:#000000;stroke-width:9;stroke-linecap:butt;stroke-linejoin:miter;stroke-opacity:1;stroke-miterlimit:4;stroke-dasharray:none" /><path
   sodipodi:nodetypes="cc"
   id="path871"
   d="m 1550.8677,1544.4674 -14.7817,40.3832"
   style="fill:none;stroke:#000000;stroke-width:9;stroke-linecap:butt;stroke-linejoin:miter;stroke-opacity:1;stroke-miterlimit:4;stroke-dasharray:none" /><path
   sodipodi:nodetypes="cc"
   id="path873"
   d="m 1552.544,1406.2501 -679.65706,37.7926"
   style="fill:none;stroke:#000000;stroke-width:9;stroke-linecap:butt;stroke-linejoin:miter;stroke-opacity:1;stroke-miterlimit:4;stroke-dasharray:none" /><path
   sodipodi:nodetypes="cc"
   id="path875"
   d="m 873.19172,1592.7748 -109.41565,5.7908"
   style="fill:none;stroke:#000000;stroke-width:9;stroke-linecap:butt;stroke-linejoin:miter;stroke-opacity:1;stroke-miterlimit:4;stroke-dasharray:none" /><path
   sodipodi:nodetypes="ccsc"
   id="path877"
   d="m 725.06915,1598.8704 -195.97288,-6.7051 -130.42847,-4.0789 c -17.38653,-0.5438 -37.80951,-20.3034 -37.80951,-20.3034"
   style="fill:none;stroke:#000000;stroke-width:9;stroke-linecap:butt;stroke-linejoin:miter;stroke-opacity:1;stroke-miterlimit:4;stroke-dasharray:none" /><path
   sodipodi:nodetypes="cccc"
   id="path879"
   d="m 358.42006,368.17298 166.8097,5.4427 198.92505,9.18669 c 20.0039,3.39171 34.7434,3.95549 53.64109,-2.43823"
   style="fill:none;stroke:#000000;stroke-width:9;stroke-linecap:butt;stroke-linejoin:miter;stroke-opacity:1;stroke-miterlimit:4;stroke-dasharray:none" /><path
   transform="matrix(0.99113854,0.13283219,-0.12924749,0.99161237,0,0)"
   d="m 1675.0908,645.25631 a 56.291584,75.089523 0 0 1 -79.4815,-5.42813 56.291584,75.089523 0 0 1 4.0239,-106.02651 56.291584,75.089523 0 0 1 79.4861,5.30701 56.291584,75.089523 0 0 1 -3.9331,106.03258"
   sodipodi:arc-type="arc"
   sodipodi:open="true"
   sodipodi:end="0.83455187"
   sodipodi:start="0.83683651"
   sodipodi:ry="75.089523"
   sodipodi:rx="56.291584"
   sodipodi:cy="589.50024"
   sodipodi:cx="1637.3859"
   sodipodi:type="arc"
   id="path881"
   style="fill:none;fill-rule:evenodd;stroke-width:9.00002941;stroke:#000000;stroke-opacity:1;stroke-miterlimit:4;stroke-dasharray:none" /><path
   style="fill:none;fill-rule:evenodd;stroke:#000000;stroke-width:9.01901296;stroke-opacity:1;stroke-miterlimit:4;stroke-dasharray:none"
   id="path883"
   sodipodi:type="arc"
   sodipodi:cx="1597.2196"
   sodipodi:cy="509.94467"
   sodipodi:rx="32.59407"
   sodipodi:ry="59.939655"
   sodipodi:start="0.83683651"
   sodipodi:end="0.83455187"
   sodipodi:open="true"
   sodipodi:arc-type="arc"
   d="m 1619.0516,554.45154 a 32.59407,59.939655 0 0 1 -46.0215,-4.33296 32.59407,59.939655 0 0 1 2.3299,-84.63488 32.59407,59.939655 0 0 1 46.0242,4.23628 32.59407,59.939655 0 0 1 -2.2774,84.63972"
   transform="matrix(0.98295018,0.18387209,-0.09297785,0.99566818,0,0)" /><path
   id="path885"
   d="m 1525.7235,627.2351 -1.2191,99.35794 46.9359,-0.60956 1.2191,-95.70059"
   style="fill:none;stroke:#000000;stroke-width:9;stroke-linecap:butt;stroke-linejoin:miter;stroke-opacity:1;stroke-miterlimit:4;stroke-dasharray:none" /><path
   sodipodi:nodetypes="cccccccccc"
   id="path887"
   d="m 583.60452,1632.7134 2.58613,13.7927 163.78856,8.6204 475.33499,-29.9713 86.2873,-32.3114 -0.2155,-167.9911 -433.16543,24.3712 -0.12494,144.011 -12.52339,30.6274 -9.75292,9.7529"
   style="fill:none;stroke:#000000;stroke-width:9;stroke-linecap:butt;stroke-linejoin:miter;stroke-opacity:1;stroke-miterlimit:4;stroke-dasharray:none" /><path
   sodipodi:nodetypes="cccc"
   id="path889"
   d="m 1225.3142,1625.1552 213.5473,-16.8366 95.091,-27.5825 -1.2191,-168.6952"
   style="fill:none;stroke:#000000;stroke-width:9;stroke-linecap:butt;stroke-linejoin:miter;stroke-opacity:1;stroke-miterlimit:4;stroke-dasharray:none" /><path
   sodipodi:nodetypes="cc"
   id="path891"
   d="m 1311.6015,1592.8438 224.6368,-12.1077"
   style="fill:none;stroke:#000000;stroke-width:9;stroke-linecap:butt;stroke-linejoin:miter;stroke-opacity:1;stroke-miterlimit:4;stroke-dasharray:none" /><g
   style="stroke-width:9;stroke-miterlimit:4;stroke-dasharray:none;stroke:#000000;stroke-opacity:1"
   id="g904"><path
     transform="matrix(0.99100123,0.13385274,-0.12826084,0.99174047,0,0)"
     d="m 1691.5626,1330.3972 a 45.263767,60.835129 0 0 1 -63.9106,-4.3977 45.263767,60.835129 0 0 1 3.2355,-85.8992 45.263767,60.835129 0 0 1 63.9144,4.2995 45.263767,60.835129 0 0 1 -3.1626,85.9042"
     sodipodi:arc-type="arc"
     sodipodi:open="true"
     sodipodi:end="0.83455187"
     sodipodi:start="0.83683651"
     sodipodi:ry="60.835129"
     sodipodi:rx="45.263767"
     sodipodi:cy="1285.2255"
     sodipodi:cx="1661.2443"
     sodipodi:type="arc"
     id="path893"
     style="fill:none;fill-rule:evenodd;stroke:#000000;stroke-width:9.00007159;stroke-opacity:1;stroke-miterlimit:4;stroke-dasharray:none" /><path
     style="fill:none;fill-rule:evenodd;stroke:#000000;stroke-width:9.00498844;stroke-opacity:1;stroke-miterlimit:4;stroke-dasharray:none"
     id="path897"
     sodipodi:type="arc"
     sodipodi:cx="1628.7328"
     sodipodi:cy="1250.5033"
     sodipodi:rx="35.523064"
     sodipodi:ry="55.639633"
     sodipodi:start="0.83683651"
     sodipodi:end="0.83455187"
     sodipodi:open="true"
     sodipodi:arc-type="arc"
     d="m 1652.5267,1291.8173 a 35.523064,55.639633 0 0 1 -50.1572,-4.0221 35.523064,55.639633 0 0 1 2.5393,-78.5633 35.523064,55.639633 0 0 1 50.16,3.9324 35.523064,55.639633 0 0 1 -2.4819,78.5677"
     transform="matrix(0.98770326,0.15634022,-0.10969234,0.99396559,0,0)" /><path
     style="fill:none;stroke:#000000;stroke-width:9;stroke-linecap:butt;stroke-linejoin:miter;stroke-opacity:1;stroke-miterlimit:4;stroke-dasharray:none"
     d="m 1485.9133,1449.6072 -44.1429,80.9538 7.3274,12.4997 43.4026,-84.7284 z"
     id="path899"
     sodipodi:nodetypes="ccccc" /></g><g
   style="stroke-width:9;stroke-miterlimit:4;stroke-dasharray:none;stroke:#000000;stroke-opacity:1"
   transform="translate(-112.49688,6.4653381)"
   id="g912"><path
     style="fill:none;fill-rule:evenodd;stroke:#000000;stroke-width:9.00007159;stroke-opacity:1;stroke-miterlimit:4;stroke-dasharray:none"
     id="path906"
     sodipodi:type="arc"
     sodipodi:cx="1661.2443"
     sodipodi:cy="1285.2255"
     sodipodi:rx="45.263767"
     sodipodi:ry="60.835129"
     sodipodi:start="0.83683651"
     sodipodi:end="0.83455187"
     sodipodi:open="true"
     sodipodi:arc-type="arc"
     d="m 1691.5626,1330.3972 a 45.263767,60.835129 0 0 1 -63.9106,-4.3977 45.263767,60.835129 0 0 1 3.2355,-85.8992 45.263767,60.835129 0 0 1 63.9144,4.2995 45.263767,60.835129 0 0 1 -3.1626,85.9042"
     transform="matrix(0.99100123,0.13385274,-0.12826084,0.99174047,0,0)" /><path
     transform="matrix(0.98770326,0.15634022,-0.10969234,0.99396559,0,0)"
     d="m 1652.5267,1291.8173 a 35.523064,55.639633 0 0 1 -50.1572,-4.0221 35.523064,55.639633 0 0 1 2.5393,-78.5633 35.523064,55.639633 0 0 1 50.16,3.9324 35.523064,55.639633 0 0 1 -2.4819,78.5677"
     sodipodi:arc-type="arc"
     sodipodi:open="true"
     sodipodi:end="0.83455187"
     sodipodi:start="0.83683651"
     sodipodi:ry="55.639633"
     sodipodi:rx="35.523064"
     sodipodi:cy="1250.5033"
     sodipodi:cx="1628.7328"
     sodipodi:type="arc"
     id="path908"
     style="fill:none;fill-rule:evenodd;stroke:#000000;stroke-width:9.00498844;stroke-opacity:1;stroke-miterlimit:4;stroke-dasharray:none" /><path
     sodipodi:nodetypes="ccccc"
     id="path910"
     d="m 1485.9133,1449.6072 -44.1429,80.9538 7.3274,12.4997 43.4026,-84.7284 z"
     style="fill:none;stroke:#000000;stroke-width:9;stroke-linecap:butt;stroke-linejoin:miter;stroke-opacity:1;stroke-miterlimit:4;stroke-dasharray:none" /></g><g
   style="stroke-width:9;stroke-miterlimit:4;stroke-dasharray:none;stroke:#000000;stroke-opacity:1"
   id="g920"
   transform="translate(-227.5799,15.085789)"><path
     transform="matrix(0.99100123,0.13385274,-0.12826084,0.99174047,0,0)"
     d="m 1691.5626,1330.3972 a 45.263767,60.835129 0 0 1 -63.9106,-4.3977 45.263767,60.835129 0 0 1 3.2355,-85.8992 45.263767,60.835129 0 0 1 63.9144,4.2995 45.263767,60.835129 0 0 1 -3.1626,85.9042"
     sodipodi:arc-type="arc"
     sodipodi:open="true"
     sodipodi:end="0.83455187"
     sodipodi:start="0.83683651"
     sodipodi:ry="60.835129"
     sodipodi:rx="45.263767"
     sodipodi:cy="1285.2255"
     sodipodi:cx="1661.2443"
     sodipodi:type="arc"
     id="path914"
     style="fill:none;fill-rule:evenodd;stroke:#000000;stroke-width:9.00007159;stroke-opacity:1;stroke-miterlimit:4;stroke-dasharray:none" /><path
     style="fill:none;fill-rule:evenodd;stroke:#000000;stroke-width:9.00498844;stroke-opacity:1;stroke-miterlimit:4;stroke-dasharray:none"
     id="path916"
     sodipodi:type="arc"
     sodipodi:cx="1628.7328"
     sodipodi:cy="1250.5033"
     sodipodi:rx="35.523064"
     sodipodi:ry="55.639633"
     sodipodi:start="0.83683651"
     sodipodi:end="0.83455187"
     sodipodi:open="true"
     sodipodi:arc-type="arc"
     d="m 1652.5267,1291.8173 a 35.523064,55.639633 0 0 1 -50.1572,-4.0221 35.523064,55.639633 0 0 1 2.5393,-78.5633 35.523064,55.639633 0 0 1 50.16,3.9324 35.523064,55.639633 0 0 1 -2.4819,78.5677"
     transform="matrix(0.98770326,0.15634022,-0.10969234,0.99396559,0,0)" /><path
     style="fill:none;stroke:#000000;stroke-width:9;stroke-linecap:butt;stroke-linejoin:miter;stroke-opacity:1;stroke-miterlimit:4;stroke-dasharray:none"
     d="m 1485.9133,1449.6072 -44.1429,80.9538 7.3274,12.4997 43.4026,-84.7284 z"
     id="path918"
     sodipodi:nodetypes="ccccc" /></g><g
   style="stroke-width:9;stroke-miterlimit:4;stroke-dasharray:none;stroke:#000000;stroke-opacity:1"
   transform="translate(-343.09394,22.844195)"
   id="g928"><path
     style="fill:none;fill-rule:evenodd;stroke:#000000;stroke-width:9.00007159;stroke-opacity:1;stroke-miterlimit:4;stroke-dasharray:none"
     id="path922"
     sodipodi:type="arc"
     sodipodi:cx="1661.2443"
     sodipodi:cy="1285.2255"
     sodipodi:rx="45.263767"
     sodipodi:ry="60.835129"
     sodipodi:start="0.83683651"
     sodipodi:end="0.83455187"
     sodipodi:open="true"
     sodipodi:arc-type="arc"
     d="m 1691.5626,1330.3972 a 45.263767,60.835129 0 0 1 -63.9106,-4.3977 45.263767,60.835129 0 0 1 3.2355,-85.8992 45.263767,60.835129 0 0 1 63.9144,4.2995 45.263767,60.835129 0 0 1 -3.1626,85.9042"
     transform="matrix(0.99100123,0.13385274,-0.12826084,0.99174047,0,0)" /><path
     transform="matrix(0.98770326,0.15634022,-0.10969234,0.99396559,0,0)"
     d="m 1652.5267,1291.8173 a 35.523064,55.639633 0 0 1 -50.1572,-4.0221 35.523064,55.639633 0 0 1 2.5393,-78.5633 35.523064,55.639633 0 0 1 50.16,3.9324 35.523064,55.639633 0 0 1 -2.4819,78.5677"
     sodipodi:arc-type="arc"
     sodipodi:open="true"
     sodipodi:end="0.83455187"
     sodipodi:start="0.83683651"
     sodipodi:ry="55.639633"
     sodipodi:rx="35.523064"
     sodipodi:cy="1250.5033"
     sodipodi:cx="1628.7328"
     sodipodi:type="arc"
     id="path924"
     style="fill:none;fill-rule:evenodd;stroke:#000000;stroke-width:9.00498844;stroke-opacity:1;stroke-miterlimit:4;stroke-dasharray:none" /><path
     sodipodi:nodetypes="ccccc"
     id="path926"
     d="m 1485.9133,1449.6072 -44.1429,80.9538 7.3274,12.4997 43.4026,-84.7284 z"
     style="fill:none;stroke:#000000;stroke-width:9;stroke-linecap:butt;stroke-linejoin:miter;stroke-opacity:1;stroke-miterlimit:4;stroke-dasharray:none" /></g><g
   style="stroke-width:9;stroke-miterlimit:4;stroke-dasharray:none;stroke:#000000;stroke-opacity:1"
   id="g936"
   transform="translate(-457.74593,29.309533)"><path
     transform="matrix(0.99100123,0.13385274,-0.12826084,0.99174047,0,0)"
     d="m 1691.5626,1330.3972 a 45.263767,60.835129 0 0 1 -63.9106,-4.3977 45.263767,60.835129 0 0 1 3.2355,-85.8992 45.263767,60.835129 0 0 1 63.9144,4.2995 45.263767,60.835129 0 0 1 -3.1626,85.9042"
     sodipodi:arc-type="arc"
     sodipodi:open="true"
     sodipodi:end="0.83455187"
     sodipodi:start="0.83683651"
     sodipodi:ry="60.835129"
     sodipodi:rx="45.263767"
     sodipodi:cy="1285.2255"
     sodipodi:cx="1661.2443"
     sodipodi:type="arc"
     id="path930"
     style="fill:none;fill-rule:evenodd;stroke:#000000;stroke-width:9.00007159;stroke-opacity:1;stroke-miterlimit:4;stroke-dasharray:none" /><path
     style="fill:none;fill-rule:evenodd;stroke:#000000;stroke-width:9.00498844;stroke-opacity:1;stroke-miterlimit:4;stroke-dasharray:none"
     id="path932"
     sodipodi:type="arc"
     sodipodi:cx="1628.7328"
     sodipodi:cy="1250.5033"
     sodipodi:rx="35.523064"
     sodipodi:ry="55.639633"
     sodipodi:start="0.83683651"
     sodipodi:end="0.83455187"
     sodipodi:open="true"
     sodipodi:arc-type="arc"
     d="m 1652.5267,1291.8173 a 35.523064,55.639633 0 0 1 -50.1572,-4.0221 35.523064,55.639633 0 0 1 2.5393,-78.5633 35.523064,55.639633 0 0 1 50.16,3.9324 35.523064,55.639633 0 0 1 -2.4819,78.5677"
     transform="matrix(0.98770326,0.15634022,-0.10969234,0.99396559,0,0)" /><path
     style="fill:none;stroke:#000000;stroke-width:9;stroke-linecap:butt;stroke-linejoin:miter;stroke-opacity:1;stroke-miterlimit:4;stroke-dasharray:none"
     d="m 1485.9133,1449.6072 -44.1429,80.9538 7.3274,12.4997 43.4026,-84.7284 z"
     id="path934"
     sodipodi:nodetypes="ccccc" /></g><g
   style="stroke-width:9;stroke-miterlimit:4;stroke-dasharray:none;stroke:#000000;stroke-opacity:1"
   transform="translate(-568.0877,36.636916)"
   id="g944"><path
     style="fill:none;fill-rule:evenodd;stroke:#000000;stroke-width:9.00007159;stroke-opacity:1;stroke-miterlimit:4;stroke-dasharray:none"
     id="path938"
     sodipodi:type="arc"
     sodipodi:cx="1661.2443"
     sodipodi:cy="1285.2255"
     sodipodi:rx="45.263767"
     sodipodi:ry="60.835129"
     sodipodi:start="3.6577231"
     sodipodi:end="2.2783261"
     sodipodi:open="true"
     sodipodi:arc-type="arc"
     d="m 1621.8768,1255.2022 a 45.263767,60.835129 0 0 1 47.0824,-29.9217 45.263767,60.835129 0 0 1 36.8687,49.4389 45.263767,60.835129 0 0 1 -22.1552,63.3477 45.263767,60.835129 0 0 1 -51.848,-6.6088"
     transform="matrix(0.99100123,0.13385274,-0.12826084,0.99174047,0,0)" /><path
     transform="matrix(0.98770326,0.15634022,-0.10969234,0.99396559,0,0)"
     d="m 1599.7103,1218.4197 a 35.523064,55.639633 0 0 1 49.4556,-13.4301 35.523064,55.639633 0 0 1 8.6606,77.4386 35.523064,55.639633 0 0 1 -49.4253,13.7001"
     sodipodi:arc-type="arc"
     sodipodi:open="true"
     sodipodi:end="2.1801648"
     sodipodi:start="3.756194"
     sodipodi:ry="55.639633"
     sodipodi:rx="35.523064"
     sodipodi:cy="1250.5033"
     sodipodi:cx="1628.7328"
     sodipodi:type="arc"
     id="path940"
     style="fill:none;fill-rule:evenodd;stroke:#000000;stroke-width:9.00498844;stroke-opacity:1;stroke-miterlimit:4;stroke-dasharray:none" /><path
     sodipodi:nodetypes="ccsccc"
     id="path942"
     d="m 1485.9133,1449.6072 -39.5559,72.9986 c -0.2135,16.2128 0,0 -0.2135,16.2128 -0.01,0.6499 2.5868,3.6159 2.9539,4.2421 l 43.4026,-84.7284 z"
     style="fill:none;stroke:#000000;stroke-width:9;stroke-linecap:butt;stroke-linejoin:miter;stroke-opacity:1;stroke-miterlimit:4;stroke-dasharray:none" /></g><path
   id="path946"
   d="m 1311.6015,1592.8438 -446.02926,31.0185"
   style="fill:none;stroke:#000000;stroke-width:9;stroke-linecap:butt;stroke-linejoin:miter;stroke-opacity:1;stroke-miterlimit:4;stroke-dasharray:none" /><path
   id="path948"
   d="m 1048.2468,1409.4437 -14.6548,-32.7577 27.5855,-1.7241 z"
   style="fill:none;stroke:#000000;stroke-width:9;stroke-linecap:butt;stroke-linejoin:miter;stroke-opacity:1;stroke-miterlimit:4;stroke-dasharray:none" /><path
   style="fill:none;stroke:#000000;stroke-width:9;stroke-linecap:butt;stroke-linejoin:miter;stroke-opacity:1;stroke-miterlimit:4;stroke-dasharray:none"
   d="m 933.59481,1415.478 -14.6548,-32.7577 27.5855,-1.7241 z"
   id="path950" /><path
   id="path952"
   d="m 1165.4849,1406.8575 -14.6548,-32.7577 27.5855,-1.7241 z"
   style="fill:none;stroke:#000000;stroke-width:9;stroke-linecap:butt;stroke-linejoin:miter;stroke-opacity:1;stroke-miterlimit:4;stroke-dasharray:none" /><path
   style="fill:none;stroke:#000000;stroke-width:9;stroke-linecap:butt;stroke-linejoin:miter;stroke-opacity:1;stroke-miterlimit:4;stroke-dasharray:none"
   d="m 1278.4128,1399.0991 -14.6548,-32.7577 27.5855,-1.7241 z"
   id="path954" /><path
   id="path956"
   d="m 1388.7546,1391.3407 -14.6548,-32.7577 27.5855,-1.7241 z"
   style="fill:none;stroke:#000000;stroke-width:9;stroke-linecap:butt;stroke-linejoin:miter;stroke-opacity:1;stroke-miterlimit:4;stroke-dasharray:none" /><path
   style="fill:none;stroke:#000000;stroke-width:9;stroke-linecap:butt;stroke-linejoin:miter;stroke-opacity:1;stroke-miterlimit:4;stroke-dasharray:none"
   d="m 1496.5102,1385.3064 -14.6548,-32.7577 27.5855,-1.7241 z"
   id="path958" /><text
   id="text962"
   y="1244.7931"
   x="877.56189"
   style="font-style:normal;font-weight:normal;font-size:40px;line-height:1.25;font-family:sans-serif;letter-spacing:0px;word-spacing:0px;fill:#000000;fill-opacity:1;stroke:none"
   xml:space="preserve"><tspan
     y="1244.7931"
     x="877.56189"
     id="tspan960"
     sodipodi:role="line" /></text><text
   transform="rotate(-1.8577913)"
   id="text966"
   y="1394.7292"
   x="846.5896"
   style="font-style:normal;font-weight:normal;font-size:54.0535px;line-height:1.25;font-family:sans-serif;letter-spacing:0px;word-spacing:0px;fill:#000000;fill-opacity:1;stroke:#000000;stroke-width:1;stroke-miterlimit:4;stroke-dasharray:none;stroke-opacity:1;"
   xml:space="preserve"><tspan
     style="stroke-width:1;stroke-miterlimit:4;stroke-dasharray:none;stroke:#000000;stroke-opacity:1;"
     y="1394.7292"
     x="846.5896"
     id="tspan964"
     sodipodi:role="line">Nln</tspan></text><text
   transform="rotate(-1.8577913)"
   xml:space="preserve"
   style="font-style:normal;font-weight:normal;font-size:54.0535px;line-height:1.25;font-family:sans-serif;letter-spacing:0px;word-spacing:0px;fill:#000000;fill-opacity:1;stroke:#000000;stroke-width:1;stroke-miterlimit:4;stroke-dasharray:none;stroke-opacity:1;"
   x="962.02026"
   y="1391.2518"
   id="text970"><tspan
     sodipodi:role="line"
     id="tspan968"
     x="962.02026"
     y="1391.2518"
     style="stroke-width:1;stroke-miterlimit:4;stroke-dasharray:none;stroke:#000000;stroke-opacity:1;">Nln</tspan></text><text
   transform="rotate(-1.8577913)"
   id="text974"
   y="1388.8021"
   x="1080.7845"
   style="font-style:normal;font-weight:normal;font-size:54.0535px;line-height:1.25;font-family:sans-serif;letter-spacing:0px;word-spacing:0px;fill:#000000;fill-opacity:1;stroke:#000000;stroke-width:1;stroke-miterlimit:4;stroke-dasharray:none;stroke-opacity:1;"
   xml:space="preserve"><tspan
     style="stroke-width:1;stroke-miterlimit:4;stroke-dasharray:none;stroke:#000000;stroke-opacity:1;"
     y="1388.8021"
     x="1080.7845"
     id="tspan972"
     sodipodi:role="line">Lln</tspan></text><text
   transform="rotate(-1.8577913)"
   xml:space="preserve"
   style="font-style:normal;font-weight:normal;font-size:54.0535px;line-height:1.25;font-family:sans-serif;letter-spacing:0px;word-spacing:0px;fill:#000000;fill-opacity:1;stroke:#000000;stroke-width:1;stroke-miterlimit:4;stroke-dasharray:none;stroke-opacity:1;"
   x="1166.8499"
   y="1386.1859"
   id="text978"><tspan
     sodipodi:role="line"
     id="tspan976"
     x="1166.8499"
     y="1386.1859"
     style="stroke-width:1;stroke-miterlimit:4;stroke-dasharray:none;stroke:#000000;stroke-opacity:1;">LOut</tspan></text><text
   transform="rotate(-1.8577913)"
   id="text982"
   y="1380.9576"
   x="1307.3641"
   style="font-style:normal;font-weight:normal;font-size:54.0535px;line-height:1.25;font-family:sans-serif;letter-spacing:0px;word-spacing:0px;fill:#000000;fill-opacity:1;stroke:#000000;stroke-width:1;stroke-miterlimit:4;stroke-dasharray:none;stroke-opacity:1;"
   xml:space="preserve"><tspan
     style="stroke-width:1;stroke-miterlimit:4;stroke-dasharray:none;stroke:#000000;stroke-opacity:1;"
     y="1380.9576"
     x="1307.3641"
     id="tspan980"
     sodipodi:role="line">S1</tspan></text><text
   transform="rotate(-1.8577913)"
   xml:space="preserve"
   style="font-style:normal;font-weight:normal;font-size:54.0535px;line-height:1.25;font-family:sans-serif;letter-spacing:0px;word-spacing:0px;fill:#000000;fill-opacity:1;stroke:#000000;stroke-width:1;stroke-miterlimit:4;stroke-dasharray:none;stroke-opacity:1;"
   x="1414.0909"
   y="1378.3129"
   id="text986"><tspan
     sodipodi:role="line"
     id="tspan984"
     x="1414.0909"
     y="1378.3129"
     style="stroke-width:1;stroke-miterlimit:4;stroke-dasharray:none;stroke:#000000;stroke-opacity:1;">S2</tspan></text><path
   style="stroke-width:1.63205"
   d="m 972.0312,702.70837 c -1.71382,1.92834 -1.98131,2.49786 -1.49773,3.20107 0.32706,0.47844 3.17792,3.44367 3.93046,4.08845 0.34681,0.29649 0.63503,0.64564 0.63943,0.77449 0.001,0.12893 0.52095,0.8799 1.14799,1.6679 0.62524,0.7897 1.14211,1.55542 1.14733,1.70386 10e-4,0.14852 0.18262,0.36266 0.39381,0.47445 0.21298,0.11163 0.65282,0.68422 0.97874,1.27212 1.61948,2.91859 2.38247,4.41384 2.39226,4.69274 0.002,0.16969 0.25101,0.59381 0.54575,0.94109 0.29475,0.34893 0.63748,1.18119 0.76201,1.84965 0.1224,0.6685 0.39218,1.30412 0.59341,1.41136 0.20303,0.10723 0.54364,0.92484 0.75776,1.81551 0.21413,0.89066 0.5074,1.75406 0.65217,1.92045 0.14525,0.16638 0.42074,1.38149 0.61561,2.70069 0.19486,1.31921 0.51523,2.82017 0.71304,3.33745 0.49092,1.28106 0.85176,11.94202 0.4573,13.49909 -0.15994,0.62616 -0.37244,2.04622 -0.47379,3.15536 -0.10118,1.10914 -0.36068,2.38546 -0.57497,2.83718 -0.21624,0.45177 -0.38141,1.18755 -0.36721,1.63615 0.0212,0.44852 -0.19747,1.2121 -0.46954,1.6985 a 6.6652862,6.6652862 0 0 0 -0.65102,1.92698 c -0.0849,0.57621 -0.37227,1.34564 -0.63715,1.71256 -0.26488,0.3653 -0.47509,0.83974 -0.46791,1.05014 0,0.33119 -0.50626,1.57734 -1.29944,3.12552 -0.11751,0.22783 -0.41127,0.84729 -0.65412,1.37513 -0.24269,0.52782 -0.61708,1.16804 -0.83186,1.42382 -0.21657,0.25419 -0.73703,1.10039 -1.15875,1.88109 -0.42172,0.77906 -0.8614,1.42322 -0.97711,1.43054 -0.11588,0.007 -0.31678,0.3214 -0.44571,0.69988 -0.12893,0.38012 -0.35122,0.69331 -0.49484,0.69835 -0.14362,0.005 -0.32527,0.22534 -0.4041,0.49103 -0.08,0.2641 -0.90774,1.35299 -1.83882,2.41937 -0.93256,1.06481 -1.68624,2.16254 -1.67661,2.43655 0.0326,0.90197 3.75241,4.45722 4.62996,4.42644 0.46154,-0.0163 3.57761,-3.22179 3.56211,-3.66378 -0.001,-0.13873 0.2311,-0.39189 0.52405,-0.5622 0.29295,-0.17032 0.52813,-0.44803 0.52209,-0.61766 -0.002,-0.16967 0.17006,-0.50729 0.38859,-0.75176 0.85944,-0.96099 1.9423,-2.6353 1.9299,-2.98598 0,-0.20394 0.15831,-0.37625 0.36868,-0.38364 0.21053,-0.007 0.50855,-0.35587 0.66375,-0.77284 0.15505,-0.41699 0.56649,-1.25774 0.91248,-1.86922 0.34616,-0.60983 0.80966,-1.5455 1.03113,-2.07748 0.2231,-0.53203 0.55376,-1.15603 0.7385,-1.38625 a 3.5415453,3.5415453 0 0 0 0.50986,-1.10713 c 0.0979,-0.37738 0.32853,-0.87542 0.51311,-1.10562 0.18475,-0.23183 0.44963,-0.91884 0.58819,-1.5263 0.14036,-0.60917 0.42776,-1.35411 0.63928,-1.65547 0.21314,-0.30307 0.37994,-0.856 0.37341,-1.22973 0,-0.37373 0.16549,-1.05423 0.38614,-1.51107 0.22082,-0.45684 0.49288,-1.54907 0.60418,-2.42668 0.11098,-0.87921 0.36216,-1.86786 0.55833,-2.19644 0.19405,-0.33016 0.40262,-1.45938 0.46056,-2.50983 0.0588,-1.0505 0.29557,-2.46648 0.52471,-3.14897 0.61381,-1.81952 0.18344,-14.18296 -0.5673,-16.17344 -0.27582,-0.73989 -0.60941,-2.14732 -0.73867,-3.13079 -0.13056,-0.98178 -0.42368,-2.11789 -0.65184,-2.52305 -0.22995,-0.40511 -0.55539,-1.44374 -0.7261,-2.30652 -0.17055,-0.86445 -0.5154,-1.93669 -0.76461,-2.38195 -0.25068,-0.44519 -0.46285,-0.99951 -0.47085,-1.23112 0,-0.23328 -0.27565,-0.87055 -0.59374,-1.41789 -0.31972,-0.54729 -0.58933,-1.25312 -0.60043,-1.56954 -0.0196,-0.31469 -0.27255,-0.78573 -0.58052,-1.04601 -0.30797,-0.26028 -0.56779,-0.6823 -0.5766,-0.93673 0,-0.2545 -0.33881,-0.90262 -0.73165,-1.44081 -0.39283,-0.5382 -0.72136,-1.14886 -0.72854,-1.35763 0,-0.20884 -0.12404,-0.44314 -0.25836,-0.52006 -0.13383,-0.0769 -0.51311,-0.66133 -0.84083,-1.29818 -0.32608,-0.63687 -1.05136,-1.71538 -1.61263,-2.39788 -0.55963,-0.68261 -1.02117,-1.36208 -1.02623,-1.5105 a 0.26928801,0.26928801 0 0 0 -0.27696,-0.25974 c -0.14525,0.005 -0.51687,-0.44403 -0.82386,-0.99666 -0.30682,-0.55264 -1.01513,-1.47006 -1.57394,-2.03999 -0.55882,-0.56828 -1.01938,-1.13186 -1.02379,-1.25257 -10e-4,-0.11914 -0.19519,-0.21197 -0.42351,-0.20395 a 0.67077195,0.67077195 0 0 1 -0.58852,-0.3909 c -1.06459,-2.5053 -2.77628,-2.47137 -5.06082,0.0992 m -9.62468,10.76309 c -0.17806,0.22997 -0.48472,0.42526 -0.68056,0.43213 -0.19569,0.007 -0.42515,0.25987 -0.50937,0.56169 -0.0849,0.30184 -0.31041,0.55468 -0.49973,0.56134 -0.19062,0.007 -0.47509,0.32367 -0.63176,0.70313 -0.15668,0.37946 -0.47199,0.69754 -0.69868,0.70551 -0.22833,0.007 -0.40932,0.15798 -0.40296,0.33257 0,0.17459 -0.19274,0.56037 -0.44196,0.85654 -0.43118,0.51156 -0.42971,0.55396 0.0294,0.86608 0.26602,0.18172 0.48668,0.42384 0.49076,0.53965 10e-4,0.11587 0.29262,0.47313 0.64025,0.79244 0.95834,0.87925 2.56362,2.73686 3.0503,3.52979 0.2373,0.3885 0.58819,0.79915 0.77995,0.91163 0.19161,0.11245 0.35432,0.41707 0.3633,0.67477 0,0.2594 0.22718,0.74814 0.4839,1.08861 0.73834,0.98005 2.12477,3.44957 2.1481,3.82926 0.018,0.18896 0.27533,0.82482 0.58526,1.41329 0.30943,0.58684 0.58019,1.46082 0.6019,1.94181 0.0212,0.481 0.27483,1.45196 0.56093,2.15881 0.75237,1.85326 1.06638,11.03306 0.44,12.82038 -0.23322,0.66302 -0.41062,1.56415 -0.39528,2.00128 0.0212,0.4387 -0.1872,1.31791 -0.45077,1.95425 a 11.391699,11.391699 0 0 0 -0.63112,2.16633 c -0.0849,0.55492 -0.31009,1.074 -0.50316,1.15588 -0.19323,0.0818 -0.4178,0.51929 -0.50153,0.97132 -0.0816,0.45033 -0.32657,0.97823 -0.54363,1.17199 -0.2169,0.19379 -0.56061,0.73331 -0.76462,1.20264 -0.68138,1.56712 -1.07943,2.22943 -2.01819,3.35812 -2.36141,2.83945 -2.75669,3.39549 -2.74021,3.86033 0.0212,0.49254 4.16124,4.6601 4.61952,4.64564 0.70961,-0.0204 4.84979,-5.31427 5.23447,-6.6881 0.0881,-0.31663 0.31106,-0.58084 0.49532,-0.58731 0.18442,-0.007 0.47134,-0.4346 0.63797,-0.94995 0.16484,-0.51528 0.47868,-1.01296 0.69607,-1.10387 0.21559,-0.0925 0.38647,-0.38589 0.37717,-0.65175 0,-0.26596 0.19535,-0.85929 0.45207,-1.31739 0.25819,-0.45817 0.54707,-1.20317 0.64238,-1.6556 0.0963,-0.45249 0.3269,-1.01254 0.51165,-1.24274 0.18458,-0.23184 0.40034,-0.97102 0.47786,-1.6433 0.0783,-0.67227 0.32053,-1.43362 0.53841,-1.69113 0.21804,-0.2575 0.44017,-1.18796 0.49598,-2.06525 0.0555,-0.8789 0.28512,-1.97131 0.51067,-2.42831 0.52764,-1.07019 0.19144,-13.39937 -0.38321,-14.04386 -0.18703,-0.21063 -0.51866,-1.28986 -0.73572,-2.39764 -0.21674,-1.10777 -0.55523,-2.19167 -0.75401,-2.40842 -0.19699,-0.21847 -0.46383,-0.88191 -0.59064,-1.47679 -0.1273,-0.59488 -0.40279,-1.3805 -0.61006,-1.74719 -0.59178,-1.04399 -1.79346,-3.54776 -2.02276,-4.21579 -0.11424,-0.33405 -0.32314,-0.60107 -0.46334,-0.59616 -0.14035,0.005 -0.46529,-0.46541 -0.72087,-1.04271 -0.25542,-0.57894 -0.63993,-1.11252 -0.85487,-1.18665 a 0.63976302,0.63976302 0 0 1 -0.40589,-0.53771 0.82092041,0.82092041 0 0 0 -0.36264,-0.60786 c -0.19014,-0.11261 -0.79073,-0.80184 -1.33404,-1.53234 -0.86384,-1.1602 -3.50792,-3.82239 -3.78864,-3.81255 -0.0555,0.002 -0.24644,0.19155 -0.42433,0.42316 m -13.27965,14.34684 c -0.0783,0.22648 -0.25476,0.41719 -0.39349,0.42205 -0.3065,0.0114 -2.07368,1.87239 -2.06291,2.17414 10e-4,0.11914 -0.23191,0.37718 -0.52535,0.57529 -0.6414,0.43238 -0.68351,1.92975 -0.0604,2.14306 0.22653,0.0787 0.41781,0.27112 0.42335,0.4277 0,0.15667 0.36134,0.71075 0.79106,1.23133 2.38442,2.88686 3.3834,6.32042 2.77938,9.53913 -0.20515,1.08502 -0.43315,2.36351 -0.50953,2.84143 -0.0751,0.47621 -0.2954,0.93304 -0.48847,1.01493 -0.19307,0.0818 -0.42531,0.4934 -0.51508,0.91297 -0.0898,0.42122 -0.39332,0.93812 -0.67485,1.1505 -0.28169,0.21238 -0.50561,0.53214 -0.49924,0.71319 0,0.17947 -0.22784,0.48811 -0.52144,0.68458 -1.12628,0.75968 1.08596,4.65204 2.61258,4.59847 0.12893,-0.005 0.32021,0.23373 0.42531,0.53052 0.41634,1.16446 2.98306,-0.2941 3.44869,-1.9598 0.0947,-0.33973 0.40474,-0.75234 0.68807,-0.91742 0.28332,-0.16502 0.50871,-0.4898 0.50038,-0.72305 0,-0.2333 0.21902,-0.74255 0.50414,-1.13305 0.28675,-0.39057 0.511,-0.98308 0.49925,-1.31742 -0.0196,-0.33266 0.21249,-0.92523 0.49761,-1.31574 0.28512,-0.39052 0.50724,-1.04336 0.49288,-1.44947 -0.0212,-0.40609 0.19764,-1.86372 0.47101,-3.24019 0.4289,-2.16088 0.44489,-2.68237 0.1273,-3.8487 a 62.766955,62.766955 0 0 1 -0.78763,-3.46218 c -0.23175,-1.16277 -0.55539,-2.19168 -0.71875,-2.28718 -0.16419,-0.0956 -0.40312,-0.5999 -0.53238,-1.11956 -0.28495,-1.13642 -1.54636,-3.20369 -2.06536,-3.38145 a 0.63486688,0.63486688 0 0 1 -0.38793,-0.53837 c -0.0408,-1.15803 -3.20012,-3.19304 -3.5187,-2.26571 m -96.05356,7.65665 c -0.0653,0.18845 0.60287,19.9772 1.48206,43.97182 l 1.60088,43.62801 28.32142,-0.85807 c 15.57742,-0.47138 28.37872,-0.79804 28.4484,-0.72535 0.71337,0.7425 0.81228,2.06508 1.39573,18.69848 l 0.61039,17.39999 -0.58852,0.44361 c -0.52503,0.39567 -3.69251,0.55414 -28.63625,1.42925 -25.32335,0.88843 -28.06062,1.02528 -28.19543,1.41867 -0.0816,0.23972 0,4.88097 0.19682,10.31399 0.1903,5.43301 0.42678,10.06914 0.5265,10.30242 0.3096,0.72892 78.42369,-2.10302 78.86091,-2.85979 0.58346,-1.01174 -2.29515,-80.7817 -2.93083,-81.21176 -0.40817,-0.27799 -5.76031,-0.15717 -28.45803,0.63913 -26.37064,0.92517 -27.96841,0.95345 -28.16834,0.5114 -0.29916,-0.6607 -1.71267,-41.82772 -1.44665,-42.11304 0.11914,-0.13007 12.82888,-0.70974 28.24423,-1.28976 25.5383,-0.96127 28.06634,-1.09571 28.50226,-1.51762 0.6853,-0.66748 0.0359,-20.88476 -0.67926,-21.13236 -0.93891,-0.32308 -78.96373,2.5874 -79.08646,2.95098 m 104.25771,62.47929 c -0.0653,0.19008 0.54706,18.38858 1.35836,40.43898 l 1.47684,40.09515 79.64891,-2.79434 -2.8326,-80.73672 -39.76734,1.32494 c -31.67023,1.05721 -39.79098,1.39764 -39.88417,1.67199 m 97.31791,-3.41423 c -0.2103,0.61324 2.8093,80.07288 3.0539,80.29946 0.3294,0.30526 19.8052,-0.29147 20.3016,-0.62243 0.3495,-0.23271 0.2833,-3.79373 -0.5334,-28.88958 l -0.9324,-28.62409 0.5918,-0.4911 c 0.5461,-0.45353 1.9296,-0.538 18.067,-1.10906 l 17.4763,-0.61965 0.8266,0.56705 0.825,0.56549 0.9887,28.17957 c 0.9455,26.95302 1.0104,28.19677 1.5017,28.61066 0.759,0.63965 19.3683,0.007 20.0087,-0.68076 0.3731,-0.4001 0.2695,-4.33539 -1.0548,-40.31245 l -1.4675,-39.87011 -39.7673,1.32495 c -31.6703,1.05721 -39.7909,1.39763 -39.8859,1.67205 m 97.0911,-3.31647 c -0.3882,1.129 2.5984,79.0923 3.0541,79.69524 l 0.4438,0.58867 77.8952,-2.73283 0.3016,-0.62297 c 0.2299,-0.47349 -0.049,-10.10198 -1.1645,-40.30862 l -1.4641,-39.6857 -39.459,1.31414 c -35.8036,1.19404 -39.4706,1.35698 -39.6071,1.75207 m 96.4602,-3.47232 c -0.065,0.18846 0.5472,18.38692 1.3599,40.43729 l 1.4752,40.0952 10.257,-0.28961 10.2553,-0.28794 0.3747,-0.62879 c 0.3083,-0.52035 0.3152,-2.70235 0.042,-12.57437 -0.3066,-11.07276 -0.2963,-11.9909 0.1437,-12.59257 l 0.4752,-0.64868 27.997,-0.98221 c 18.7798,-0.65888 28.1682,-1.0797 28.5138,-1.28126 0.4962,-0.28848 0.5014,-0.7002 0.1371,-11.10627 l -0.3791,-10.80405 -0.8673,-0.47254 c -0.8357,-0.45568 -1.9176,-0.42918 -28.6323,0.70239 -23.2593,0.98585 -27.814,1.11788 -28.0778,0.81687 -0.5358,-0.60993 -0.9371,-8.32508 -0.4897,-9.39902 l 0.3737,-0.8933 28.521,-1.07248 c 25.0002,-0.94078 28.5522,-1.12417 28.7712,-1.48949 0.4505,-0.75068 -0.4974,-20.09197 -0.9993,-20.38465 -0.6869,-0.39885 -79.1032,2.4241 -79.25,2.85548 m 96.8913,-3.28985 c -0.2983,0.38606 -0.1501,6.73672 0.8905,38.41408 1.272,38.63095 1.3959,41.04518 2.1336,41.73294 0.4997,0.46583 19.108,-0.0581 20.3327,-0.57453 l 0.6887,-0.28873 -0.4335,-12.35681 c -0.3812,-10.86928 -0.3846,-12.40913 -0.02,-12.7975 a 13.317516,13.317516 0 0 0 0.459,-0.50926 c 0.024,-0.0369 12.8269,-0.5774 28.4481,-1.2022 l 28.403,-1.13529 -0.321,-11.01183 c -0.1949,-6.66746 -0.4294,-11.16971 -0.5948,-11.41052 -0.2425,-0.35076 -3.7103,-0.27809 -28.5133,0.59209 -23.5345,0.82565 -28.3156,0.93134 -28.7017,0.63299 -0.3961,-0.30619 -0.4855,-0.99547 -0.6192,-4.80232 l -0.1551,-4.44461 0.788,-0.44244 c 0.6902,-0.38838 4.2213,-0.56451 28.7913,-1.42651 27.4081,-0.96157 28.0079,-0.99405 28.2656,-1.5175 0.3444,-0.70124 -0.2841,-19.02978 -0.6848,-19.98087 l -0.2889,-0.68881 -39.2542,1.37717 c -36.1815,1.26938 -39.2824,1.41409 -39.6121,1.84045 m -329.47,33.69982 c 0.6231,0.9155 1.5545,35.00384 0.9641,35.34627 -0.5874,0.34231 -34.60276,1.49321 -34.93701,1.18161 -0.25329,-0.23608 -1.39931,-35.09257 -1.16152,-35.3426 0.59684,-0.6317 34.72643,-1.78336 35.13443,-1.18528 m 193.0086,-6.52806 0.6866,0.16534 1.2296,35.04302 -17.0926,0.66988 c -12.4007,0.48568 -17.1982,0.58868 -17.4752,0.37465 -0.314,-0.2421 -0.4864,-3.2915 -0.9796,-17.35274 -0.6316,-18.00022 -0.6508,-17.43449 0.6006,-17.78869 0.8458,-0.23869 32.2629,-1.29683 33.0306,-1.11146"
   fill="#1e100f"
   fill-rule="evenodd"
   id="path988" /></svg>
