<?xml version="1.0" encoding="UTF-8" standalone="no"?>
<svg
   xmlns:dc="http://purl.org/dc/elements/1.1/"
   xmlns:cc="http://creativecommons.org/ns#"
   xmlns:rdf="http://www.w3.org/1999/02/22-rdf-syntax-ns#"
   xmlns:svg="http://www.w3.org/2000/svg"
   xmlns="http://www.w3.org/2000/svg"
   xmlns:sodipodi="http://sodipodi.sourceforge.net/DTD/sodipodi-0.dtd"
   xmlns:inkscape="http://www.inkscape.org/namespaces/inkscape"
   inkscape:version="1.0 (4035a4fb49, 2020-05-01)"
   sodipodi:docname="icon.svg"
   xml:space="preserve"
   style="enable-background:new 0 0 1999.35 1999.35;"
   viewBox="0 0 1999.35 1999.35"
   y="0px"
   x="0px"
   id="Layer_1"
   version="1.1"><metadata
   id="metadata41"><rdf:RDF><cc:Work
       rdf:about=""><dc:format>image/svg+xml</dc:format><dc:type
         rdf:resource="http://purl.org/dc/dcmitype/StillImage" /></cc:Work></rdf:RDF></metadata><defs
   id="defs39" /><sodipodi:namedview
   inkscape:current-layer="Layer_1"
   inkscape:window-maximized="1"
   inkscape:window-y="-8"
   inkscape:window-x="-8"
   inkscape:cy="709.06998"
   inkscape:cx="1457.7197"
   inkscape:zoom="0.20506665"
   showgrid="false"
   id="namedview37"
   inkscape:window-height="987"
   inkscape:window-width="1680"
   inkscape:pageshadow="2"
   inkscape:pageopacity="0"
   guidetolerance="10"
   gridtolerance="10"
   objecttolerance="10"
   borderopacity="1"
   bordercolor="#666666"
   pagecolor="#ffffff" />





<path
   sodipodi:nodetypes="ccccscccccccccsc"
   id="path880"
   d="m 992.36029,1694.571 560.79331,-477.8934 24.3823,-104.844 -280.3966,-872.8869 c 0,0 -9.7231,-28.46717 -27.7349,-32.30656 -12.8374,-2.73641 -50.2886,20.11541 -50.2886,20.11541 l -653.44605,375.48767 -51.20287,21.94409 -229.19377,-12.19116 -21.94409,75.58518 214.56439,9.75293 31.69701,12.19116 24.38232,51.20286 382.80237,904.58392 c 0,0 14.19141,39.8834 33.85212,46.0306 17.85129,5.5815 41.73306,-16.7718 41.73306,-16.7718 z"
   style="fill:none;stroke:#000000;stroke-width:9;stroke-linecap:butt;stroke-linejoin:miter;stroke-opacity:1;stroke-miterlimit:4;stroke-dasharray:none" /><path
   sodipodi:nodetypes="ccsccc"
   id="path882"
   d="M 285.27311,611.99615 960.66328,243.21361 c 0,0 25.76991,-12.44777 45.41202,-7.92425 7.3881,1.70145 19.2011,12.19116 19.2011,12.19116 l -28.03964,3.65734 -627.84466,352.32448"
   style="fill:none;stroke:#000000;stroke-width:9;stroke-linecap:butt;stroke-linejoin:miter;stroke-opacity:1;stroke-miterlimit:4;stroke-dasharray:none" /><path
   sodipodi:nodetypes="ccc"
   id="path884"
   d="m 1003.3323,234.98458 -669.29456,367.25864 207.50511,4.93905"
   style="fill:none;stroke:#000000;stroke-width:9;stroke-linecap:butt;stroke-linejoin:miter;stroke-opacity:1;stroke-miterlimit:4;stroke-dasharray:none" /><path
   id="path886"
   d="m 308.43631,611.99615 -21.94409,74.36607"
   style="fill:none;stroke:#000000;stroke-width:9;stroke-linecap:butt;stroke-linejoin:miter;stroke-opacity:1;stroke-miterlimit:4;stroke-dasharray:none" /><path
   sodipodi:nodetypes="ccsc"
   id="path888"
   d="M 263.32902,687.58133 665.4988,1577.5425 c 0,0 4.48183,12.4061 12.32525,21.9703 7.35261,8.9657 24.74269,12.5115 24.74269,12.5115"
   style="fill:none;stroke:#000000;stroke-width:9;stroke-linecap:butt;stroke-linejoin:miter;stroke-opacity:1;stroke-miterlimit:4;stroke-dasharray:none" /><path
   sodipodi:nodetypes="csc"
   id="path890"
   d="m 732.73832,1604.6969 c 0,0 -26.68288,16.5333 -31.24914,5.8188 -4.21228,-9.8839 -414.99696,-924.15348 -414.99696,-924.15348"
   style="fill:none;stroke:#000000;stroke-width:9;stroke-linecap:butt;stroke-linejoin:miter;stroke-opacity:1;stroke-miterlimit:4;stroke-dasharray:none" /><path
   sodipodi:nodetypes="ccccc"
   id="path892"
   d="M 310.87454,710.74453 497.50729,724.10623 905.53054,1674.9274 709.4631,1594.7834 310.87454,710.74453"
   style="fill:none;stroke:#000000;stroke-width:9;stroke-linecap:butt;stroke-linejoin:miter;stroke-opacity:1;stroke-miterlimit:4;stroke-dasharray:none" /><path
   sodipodi:nodetypes="csc"
   id="path894"
   d="m 905.53054,1674.9274 c 0,0 10.79326,18.1273 20.30587,31.9219 6.50403,9.4318 30.17158,5.1723 30.17158,5.1723"
   style="fill:none;stroke:#000000;stroke-width:9;stroke-linecap:butt;stroke-linejoin:miter;stroke-opacity:1;stroke-miterlimit:4;stroke-dasharray:none" /><path
   sodipodi:nodetypes="csc"
   id="path896"
   d="m 1266.3442,206.4598 c 0,0 -16.8959,-4.85839 -28.7045,1.90711 L 541.54285,607.18227"
   style="fill:none;stroke:#000000;stroke-width:9;stroke-linecap:butt;stroke-linejoin:miter;stroke-opacity:1;stroke-miterlimit:4;stroke-dasharray:none" /><path
   id="path898"
   d="m 1205.139,226.71786 c -9.9135,0.43102 -179.8626,20.76266 -179.8626,20.76266"
   style="fill:none;stroke:#000000;stroke-width:9;stroke-linecap:butt;stroke-linejoin:miter;stroke-opacity:1;stroke-miterlimit:4;stroke-dasharray:none" /><path
   sodipodi:open="true"
   transform="matrix(0.98619486,0.16558897,-0.13320044,0.99108912,0,0)"
   d="m 1418.4435,1048.3975 a 297.66397,396.77661 0 0 1 -400.7846,-2.4579 297.66397,396.77661 0 0 1 -35.65343,-532.12081 297.66397,396.77661 0 0 1 394.11463,-97.09088"
   sodipodi:arc-type="arc"
   sodipodi:end="5.2681964"
   sodipodi:start="0.83683735"
   sodipodi:ry="396.77661"
   sodipodi:rx="297.66397"
   sodipodi:cy="753.7796"
   sodipodi:cx="1219.0638"
   sodipodi:type="arc"
   id="path900"
   style="fill:none;fill-rule:evenodd;stroke:#000000;stroke-width:9.00241513;stroke-miterlimit:4;stroke-dasharray:none;stroke-opacity:1" /><path
   style="fill:none;fill-rule:evenodd;stroke:#000000;stroke-width:9.00406458;stroke-miterlimit:4;stroke-dasharray:none;stroke-opacity:1"
   id="path904"
   sodipodi:type="arc"
   sodipodi:cx="931.39374"
   sodipodi:cy="1200.0386"
   sodipodi:rx="327.97705"
   sodipodi:ry="345.15106"
   sodipodi:start="2.2740671"
   sodipodi:end="2.2731036"
   sodipodi:arc-type="arc"
   d="m 719.28578,1463.296 a 327.97705,345.15106 0 0 1 -38.10139,-486.40867 327.97705,345.15106 0 0 1 462.19681,-40.21368 327.97705,345.15106 0 0 1 38.324,486.38925 327.97705,345.15106 0 0 1 -462.1783,40.448"
   transform="matrix(0.9701657,-0.24244282,0.20101245,0.97958869,0,0)"
   sodipodi:open="true" /></svg>
