<?xml version="1.0" encoding="UTF-8" standalone="no"?>
<svg
   inkscape:version="1.2 (dc2aedaf03, 2022-05-15)"
   sodipodi:docname="icon.svg"
   xml:space="preserve"
   style="enable-background:new 0 0 1999.35 1999.35;"
   viewBox="0 0 1999.35 1999.35"
   y="0px"
   x="0px"
   id="Layer_1"
   version="1.1"
   xmlns:inkscape="http://www.inkscape.org/namespaces/inkscape"
   xmlns:sodipodi="http://sodipodi.sourceforge.net/DTD/sodipodi-0.dtd"
   xmlns="http://www.w3.org/2000/svg"
   xmlns:svg="http://www.w3.org/2000/svg"
   xmlns:rdf="http://www.w3.org/1999/02/22-rdf-syntax-ns#"
   xmlns:cc="http://creativecommons.org/ns#"
   xmlns:dc="http://purl.org/dc/elements/1.1/"><metadata
   id="metadata41"><rdf:RDF><cc:Work
       rdf:about=""><dc:format>image/svg+xml</dc:format><dc:type
         rdf:resource="http://purl.org/dc/dcmitype/StillImage" /></cc:Work></rdf:RDF></metadata><defs
   id="defs39" /><sodipodi:namedview
   inkscape:current-layer="Layer_1"
   inkscape:window-maximized="1"
   inkscape:window-y="-8"
   inkscape:window-x="1672"
   inkscape:cy="1321.5216"
   inkscape:cx="341.35243"
   inkscape:zoom="0.20506665"
   showgrid="false"
   id="namedview37"
   inkscape:window-height="987"
   inkscape:window-width="1680"
   inkscape:pageshadow="2"
   inkscape:pageopacity="0"
   guidetolerance="10"
   gridtolerance="10"
   objecttolerance="10"
   borderopacity="1"
   bordercolor="#666666"
   pagecolor="#ffffff"
   inkscape:showpageshadow="2"
   inkscape:pagecheckerboard="0"
   inkscape:deskcolor="#d1d1d1" />





<path
   style="fill:none;stroke:#000000;stroke-width:30;stroke-linecap:butt;stroke-linejoin:miter;stroke-opacity:1;stroke-dasharray:none"
   d="m 1423.9273,1480.0066 c -64.5489,310.2922 -231.5585,371.5007 -416.9376,368.173 C 787.20855,1844.2343 654.67229,1688.8935 611.99615,1487.3213 577.54403,1324.5936 562.57902,1170.8575 538.8492,963.10151 513.51217,741.27433 507.7663,475.61418 648.56962,302.34073 734.90065,196.10122 894.49745,151.32033 1031.372,153.6086 c 121.9623,2.03897 260.161,48.69807 336.476,143.85566 138.1254,172.22921 145.6032,431.50792 121.9115,651.00786 -23.7344,219.89638 -29.4713,356.74448 -65.8322,531.53448 z"
   id="path376"
   sodipodi:nodetypes="ssssaaass" /><path
   style="fill:none;fill-rule:evenodd;stroke:#000000;stroke-width:28.5468;stroke-dasharray:none;stroke-opacity:1"
   id="path1081"
   sodipodi:type="arc"
   sodipodi:cx="1011.8661"
   sodipodi:cy="638.81671"
   sodipodi:rx="368.8996"
   sodipodi:ry="368.8996"
   sodipodi:start="2.4065996"
   sodipodi:end="2.4059364"
   sodipodi:open="true"
   sodipodi:arc-type="arc"
   d="m 738.2033,886.19414 a 368.8996,368.8996 0 0 1 26.23999,-520.99919 368.8996,368.8996 0 0 1 521.00351,26.1536 368.8996,368.8996 0 0 1 -26.0672,521.00787 368.8996,368.8996 0 0 1 -521.01217,-25.98084" /><path
   style="fill:none;fill-rule:evenodd;stroke:#000000;stroke-width:31.8165;stroke-dasharray:none;stroke-opacity:1"
   id="path1083"
   sodipodi:type="arc"
   sodipodi:cx="1011.8661"
   sodipodi:cy="638.81671"
   sodipodi:rx="411.15286"
   sodipodi:ry="411.15286"
   sodipodi:start="2.4065996"
   sodipodi:end="2.4059364"
   sodipodi:open="true"
   sodipodi:arc-type="arc"
   d="m 706.85834,914.52842 a 411.15286,411.15286 0 0 1 29.24547,-580.67374 411.15286,411.15286 0 0 1 580.67859,29.1492 411.15286,411.15286 0 0 1 -29.0529,580.68341 411.15286,411.15286 0 0 1 -580.68825,-28.95665" /><path
   style="fill:#000000;fill-rule:evenodd;fill-opacity:1;stroke:none"
   id="path1085"
   sodipodi:type="arc"
   sodipodi:cx="843.62817"
   sodipodi:cy="636.37848"
   sodipodi:rx="51.202866"
   sodipodi:ry="51.202866"
   sodipodi:start="2.4065996"
   sodipodi:end="2.4059364"
   sodipodi:open="true"
   sodipodi:arc-type="arc"
   d="m 805.64407,670.7142 a 51.202866,51.202866 0 0 1 3.64209,-72.31413 51.202866,51.202866 0 0 1 72.31472,3.6301 51.202866,51.202866 0 0 1 -3.6181,72.31532 51.202866,51.202866 0 0 1 -72.31593,-3.60611" /><path
   style="fill:#000000;fill-rule:evenodd;fill-opacity:1;stroke:none"
   id="path1087"
   sodipodi:type="arc"
   sodipodi:cx="1177.6659"
   sodipodi:cy="633.94025"
   sodipodi:rx="51.202866"
   sodipodi:ry="51.202866"
   sodipodi:start="2.4065996"
   sodipodi:end="2.4059364"
   sodipodi:open="true"
   sodipodi:arc-type="arc"
   d="m 1139.6818,668.27597 a 51.202866,51.202866 0 0 1 3.6421,-72.31413 51.202866,51.202866 0 0 1 72.3147,3.63009 51.202866,51.202866 0 0 1 -3.6181,72.31533 51.202866,51.202866 0 0 1 -72.3159,-3.60611" /><rect
   style="fill:#000000;fill-opacity:1;fill-rule:evenodd;stroke:none;stroke-width:30;stroke-linecap:round;stroke-linejoin:round;stroke-dasharray:none;stroke-opacity:1;paint-order:stroke fill markers"
   id="rect1141"
   width="78.023415"
   height="75.585182"
   x="970.4162"
   y="273.08194" /><rect
   style="fill:#000000;fill-opacity:1;fill-rule:evenodd;stroke:none;stroke-width:30;stroke-linecap:round;stroke-linejoin:round;stroke-dasharray:none;stroke-opacity:1;paint-order:stroke fill markers"
   id="rect1143"
   width="78.023415"
   height="75.585182"
   x="970.4162"
   y="925.08191" /><path
   style="fill:none;fill-rule:evenodd;stroke:#000000;stroke-width:30;stroke-dasharray:none;stroke-opacity:1"
   id="path1145"
   sodipodi:type="arc"
   sodipodi:cx="1019.1808"
   sodipodi:cy="1493.1627"
   sodipodi:rx="89.558533"
   sodipodi:ry="89.558533"
   sodipodi:start="2.4065996"
   sodipodi:end="2.4059364"
   sodipodi:open="true"
   sodipodi:arc-type="arc"
   d="m 952.7431,1553.2191 a 89.558533,89.558533 0 0 1 6.37033,-126.4841 89.558533,89.558533 0 0 1 126.48517,6.3494 89.558533,89.558533 0 0 1 -6.3284,126.4861 89.558533,89.558533 0 0 1 -126.48726,-6.3074" /><path
   style="fill:none;fill-rule:evenodd;stroke:#000000;stroke-width:20.1972;stroke-dasharray:none;stroke-opacity:1"
   id="path1147"
   sodipodi:type="arc"
   sodipodi:cx="1019.1808"
   sodipodi:cy="1493.1627"
   sodipodi:rx="60.294437"
   sodipodi:ry="60.294437"
   sodipodi:start="2.4065996"
   sodipodi:end="2.4059364"
   sodipodi:open="true"
   sodipodi:arc-type="arc"
   d="m 974.45224,1533.5951 a 60.294437,60.294437 0 0 1 4.28877,-85.1542 60.294437,60.294437 0 0 1 85.15489,4.2746 60.294437,60.294437 0 0 1 -4.2605,85.1557 60.294437,60.294437 0 0 1 -85.15634,-4.2465" /></svg>
